<svg width="100" height="100" viewBox="0 0 100 100" fill="none" xmlns="http://www.w3.org/2000/svg">
<mask id="mask0" mask-type="alpha" maskUnits="userSpaceOnUse" x="0" y="0" width="100" height="100">
<circle cx="50" cy="50" r="50" fill="white"/>
</mask>
<g mask="url(#mask0)">
<circle cx="50" cy="50" r="50" fill="#EDEDED"/>
<path d="M29.9671 28.2803C26.1653 24.6011 21.4223 26.2203 20.8381 29.1216C20.4352 31.1327 23.7765 35.0539 25.6213 35.4256C27.4661 35.7973 31.1673 29.4414 29.9671 28.2803Z" fill="#996D35"/>
<path d="M77.2472 159.01C77.9926 158.967 78.6776 158.9 79.2647 158.817C80.3267 158.67 81.5038 158.367 82.042 157.44C82.278 157.033 82.3586 156.555 82.3701 156.086C82.4478 153.294 78.6402 152.493 76.9709 150.761C75.9204 149.669 76.2111 147.834 76.1161 146.439C75.9348 143.82 75.6701 141.19 76.0356 138.574C76.8472 132.757 77.9725 126.995 78.6114 121.154C79.8345 109.955 79.8345 103.591 77.5005 88.4878C75.1664 73.3848 66.7971 57.138 62.6931 48.5636C58.5862 39.9893 53.8777 30.1156 49.5895 26.8685C43.7413 22.4431 35.044 24.7854 29.8463 26.8685C26.5682 28.1823 23.6298 31.8644 23.3046 38.4104C23.247 38.9694 23.2153 39.5427 23.2153 40.1247C23.2153 44.4407 24.8011 50.0791 27.5352 52.8162C29.7772 55.0606 18.5069 125.007 37.7464 131.829C44.2997 134.235 50.7781 137.22 56.088 141.847C60.1029 145.345 62.3448 149.94 64.3652 154.769C65.9827 158.644 72.746 159.272 77.2472 159.01Z" fill="#B37F3E"/>
<path d="M77.6673 90.2771C77.5206 90.2944 77.3824 90.3117 77.2817 90.3347C76.0499 90.6228 74.7951 90.8015 73.5345 90.9254C72.6423 91.0118 71.4393 90.885 70.6162 91.2279C70.9731 91.3835 70.9846 92.2478 71.376 92.2795C75.7851 92.631 77.676 90.3923 77.6673 90.2771Z" fill="#996D35"/>
<path d="M49.555 22.1896C48.9391 21.3511 47.4972 21.0717 45.6092 22.2155C43.7212 23.3593 42.5643 25.1744 41.9714 25.5807C41.3785 25.9869 42.5355 26.3701 43.5975 26.5488C44.6595 26.7274 46.4841 27.5687 47.3792 28.2746C48.2743 28.9805 48.5966 29.4328 49.3765 28.0239C50.1565 26.615 51.2674 24.5233 49.555 22.1896Z" fill="#A67637"/>
<path d="M67.9886 90.2597C73.9202 91.9567 80.3181 90.8244 83.6652 85.1399C88.0714 77.6518 79.3136 64.0556 74.3721 59.1086L67.9886 90.2597Z" fill="#996D35"/>
<path d="M39.0617 43.7925C42.3109 51.6321 38.2155 54.6314 34.3705 54.6314C30.5255 54.6314 28.7469 53.937 27.3884 52.1824L39.0617 43.7925Z" fill="#996D35"/>
<path d="M31.6882 54.2683C31.1759 54.833 30.6665 55.3977 30.1542 55.9624C29.3973 56.798 28.813 57.7862 28.0331 58.6218C28.1683 57.8006 28.3986 56.9853 28.7324 56.2246C29.072 55.4496 29.639 54.6573 29.4059 53.7295C29.8894 54.0868 30.865 53.4587 30.983 53.3896C31.314 53.1937 31.6277 53.1187 32.0105 53.2426C32.1832 53.2974 32.6724 53.4991 32.376 53.7295C32.376 53.7295 31.6882 54.2683 31.6882 54.2683Z" fill="#805A30"/>
<path d="M73.2036 95.149C74.0209 100.79 74.5044 114.052 72.0322 126.68C69.5629 139.309 69.1916 151.412 69.8363 153.299C70.481 155.187 65.3696 152.458 65.3696 152.458C65.3696 152.458 69.1715 125.79 68.5153 120.016C67.8591 114.242 73.2036 95.149 73.2036 95.149Z" fill="#996D35"/>
<path d="M39.5251 46.4431C39.3409 44.7173 38.9754 42.9338 37.804 41.5912C36.5319 40.1305 34.8713 39.0472 32.8768 39.1221C30.914 39.197 29.0635 40.1305 27.7223 41.5422C26.1423 43.2047 21.8771 46.3163 25.4314 50.0589C28.9858 53.8016 28.1137 53.7295 32.2696 53.7295C36.4254 53.7295 40.0172 51.0904 39.5251 46.4431Z" fill="#EABE8B"/>
<path d="M27.4144 48.1517C26.5337 47.9961 24.4932 47.3421 24.5623 46.2357C24.6371 45.0487 26.0358 44.4436 27.3194 44.1008C28.5944 43.7262 30.0996 43.5332 30.7788 44.507C31.4148 45.4175 30.0075 47.0569 29.3426 47.6302C29.1182 47.8434 28.7814 48.0105 28.413 48.1085C28.059 48.2036 27.7108 48.2122 27.4144 48.1517Z" fill="#1A1A1A"/>
<path d="M29.832 51.2691C28.9283 51.3238 28.2836 51.2691 27.9584 51.2461C27.636 51.223 27.6792 51.5082 28.1598 51.6811C28.6405 51.854 29.5873 51.8857 30.1428 51.8453C31.0465 51.7791 32.6611 51.2144 33.0179 50.9205C33.3748 50.6266 33.0841 50.6266 32.6956 50.7044C32.3071 50.7822 30.9141 51.2028 29.832 51.2691Z" fill="#1A1A1A"/>
<path opacity="0.4" d="M25.3221 45.7257C25.607 45.4923 25.9034 45.3223 26.2171 45.1639C26.5308 45.0112 26.8561 44.8844 27.1899 44.7836C27.8576 44.5876 28.5598 44.4839 29.2563 44.53C29.3858 44.5387 29.4837 44.651 29.475 44.7807C29.4664 44.893 29.3801 44.9852 29.2736 44.9997H29.2678C28.6232 45.089 27.99 45.1985 27.3741 45.3944C27.0661 45.4837 26.7611 45.5932 26.4646 45.7142C26.1682 45.8323 25.866 45.9706 25.5926 46.1089L25.5782 46.1175C25.4631 46.1752 25.3221 46.1291 25.2616 46.0138C25.2098 45.913 25.2386 45.792 25.3221 45.7257Z" fill="#DDDDDD"/>
<path d="M51.3709 159.14C51.958 159.831 52.8445 160.214 53.7251 160.45C55.1757 160.839 56.6924 160.906 58.1947 160.969C61.8728 161.125 68.0059 162.188 71.2868 159.632C73.7101 157.748 71.8451 153.057 68.7916 153.057C69.0247 146.454 68.4433 139.787 69.7298 133.307C74.916 107.198 73.0194 98.0734 73.0194 90.9829C73.0194 90.0984 75.2671 63.8481 74.6483 61.8976C74.1447 56.1209 73.2899 52.5569 74.5102 49.2118C75.7305 45.8668 78.6862 37.8543 75.6585 31.3573C72.6308 24.8603 66.0661 23.6329 61.1619 23.1979C56.2578 22.7628 52.6919 23.3477 48.3433 28.1419C43.7499 33.2099 41.6173 41.2512 39.9596 44.1381C39.8531 44.3254 39.738 44.5127 39.62 44.7028C33.982 53.1677 16.0865 68.9852 14.7683 77.3464C13.361 86.2664 20.3833 88.1565 20.4064 88.1622C20.3373 88.1421 17.2319 113.358 17.1513 115.092C16.5441 128.328 18.8753 141.279 21.241 154.224C21.4885 155.578 21.8108 157.059 22.9016 157.898C24.968 159.485 29.4261 159.834 31.8637 159.848C35.0957 159.868 39.7754 159.347 42.8347 158.22C45.6696 157.177 46.1157 154.429 43.3125 152.668C40.1006 150.655 40.8691 147.454 41.9166 144.359C42.3224 143.158 43.5773 137.591 44.6018 137.168C46.5359 136.37 47.9518 141.181 48.2598 142.377C49.4081 146.805 50.1535 151.288 50.4356 155.852C50.5046 156.961 50.5996 158.146 51.2788 159.027C51.3105 159.068 51.3393 159.102 51.3709 159.14Z" fill="#996D35"/>
<mask id="mask1" mask-type="alpha" maskUnits="userSpaceOnUse" x="14" y="23" width="63" height="139">
<path d="M51.3709 159.14C51.958 159.831 52.8445 160.214 53.7251 160.45C55.1757 160.839 56.6924 160.906 58.1947 160.969C61.8728 161.125 68.0059 162.188 71.2868 159.632C73.7101 157.748 71.8451 153.057 68.7916 153.057C69.0247 146.454 68.4433 139.787 69.7298 133.307C74.916 107.198 73.0194 98.0734 73.0194 90.9829C73.0194 90.0984 75.2671 63.8481 74.6483 61.8976C74.1447 56.1209 73.2899 52.5569 74.5102 49.2118C75.7305 45.8668 78.6862 37.8543 75.6585 31.3573C72.6308 24.8603 66.0661 23.6329 61.1619 23.1979C56.2578 22.7628 52.6919 23.3477 48.3433 28.1419C43.7499 33.2099 41.6173 41.2512 39.9596 44.1381C39.8531 44.3254 39.738 44.5127 39.62 44.7028C33.982 53.1677 16.0865 68.9852 14.7683 77.3464C13.361 86.2664 20.3833 88.1565 20.4064 88.1622C20.3373 88.1421 17.2319 113.358 17.1513 115.092C16.5441 128.328 18.8753 141.279 21.241 154.224C21.4885 155.578 21.8108 157.059 22.9016 157.898C24.968 159.485 29.4261 159.834 31.8637 159.848C35.0957 159.868 39.7754 159.347 42.8347 158.22C45.6696 157.177 46.1157 154.429 43.3125 152.668C40.1006 150.655 40.8691 147.454 41.9166 144.359C42.3224 143.158 43.5773 137.591 44.6018 137.168C46.5359 136.37 47.9518 141.181 48.2598 142.377C49.4081 146.805 50.1535 151.288 50.4356 155.852C50.5046 156.961 50.5996 158.146 51.2788 159.027C51.3105 159.068 51.3393 159.102 51.3709 159.14Z" fill="#996D35"/>
</mask>
<g mask="url(#mask1)">
<path d="M35.5216 67.0607C35.3029 66.8705 35.0669 66.6947 34.8338 66.5219C33.3257 65.3982 31.7457 64.3437 30.4419 62.9752C29.8001 62.301 29.072 61.6326 28.6748 60.774C28.2633 59.8837 28.3582 58.7082 28.6086 57.7833C28.7986 57.0861 28.6518 56.5127 28.5856 55.7953C28.5597 55.5216 28.3151 50.8138 28.4676 50.7389C28.1021 50.9233 27.7395 51.1278 27.3797 51.3411C27.515 52.4791 27.6733 57.6825 27.5409 58.227C27.2358 59.2268 27.2186 60.1804 27.6675 60.9843C29.1152 63.5716 31.9845 65.7929 34.4453 67.2422C36.4512 68.4234 36.7649 72.385 36.4196 74.399C36.008 76.7961 33.8092 79.0088 30.8132 79.8501C34.3791 79.3085 36.5462 77.064 37.0096 74.3759C37.4182 72.0047 37.5996 69.1783 35.8037 67.3344C35.7145 67.2335 35.6195 67.1442 35.5216 67.0607Z" fill="#805A30"/>
<path d="M18.9098 87.5054C19.4825 88.0816 20.8467 88.1652 21.6583 88.1738C21.9979 88.1767 22.3375 88.1738 22.6771 88.1623C22.9476 88.1536 23.2412 88.047 23.4973 88.1507C23.3534 88.4389 22.3836 88.5138 22.0526 88.5916C21.1431 88.8077 20.2337 89.4473 20.0725 90.4211C20.1876 89.7267 20.2768 89.6173 20.3488 88.9171C20.3747 88.6665 20.3862 88.3812 20.2107 88.1997C20.1214 88.1075 19.9977 88.0614 19.8797 88.0067C19.612 87.8828 19.1084 87.7272 18.9098 87.5054Z" fill="#805A30"/>
<path d="M73.0193 90.9829C70.0492 90.6343 68.734 90.3779 67.0733 89.8535C65.4127 89.3291 69.4333 91.078 71.0076 91.8645C72.5819 92.6511 73.4338 100.079 73.3503 98.0734C73.2668 96.0682 73.0711 93.1784 73.051 92.4782C73.028 91.7752 73.0193 90.9829 73.0193 90.9829Z" fill="#805A30"/>
</g>
<path d="M50.9478 26.7562C49.9348 27.3238 49.5031 25.644 49.2786 23.5149C49.0685 21.4952 49.7247 19.2047 51.6616 18.833C54.0532 18.3749 57.0953 21.2877 57.8608 22.4488C58.2638 23.0568 57.9385 23.6359 56.8967 23.9557C55.0317 24.5262 52.2401 26.033 50.9478 26.7562Z" fill="#805A30"/>
<path d="M71.7071 26.8771C71.048 27.1825 72.3114 29.3578 73.1374 30.7062C73.9634 32.0574 74.7894 34.0944 75.3938 34.6447C75.9982 35.195 77.348 34.4027 78.1941 33.5614C79.1611 32.5962 80.1972 30.4469 79.99 28.6116C79.8202 27.1047 77.984 26.4363 76.4299 26.2865C74.8585 26.1367 72.7806 26.3816 71.7071 26.8771Z" fill="#805A30"/>
<path fill-rule="evenodd" clip-rule="evenodd" d="M25.8342 39.6925C25.7105 39.9777 25.037 39.704 25.3392 39.1018C25.6529 38.4824 26.4933 37.8831 27.2819 37.9839C28.0302 38.079 28.4072 38.6697 28.6979 39.2833C28.9799 39.8769 28.4043 39.9402 28.2374 39.5743C27.987 39.0212 27.4574 38.8051 27.0919 38.808C26.7235 38.808 26.1451 38.9693 25.8342 39.6925Z" fill="#996D35"/>
<path d="M27.02 41.1359C27.6971 41.1359 28.246 40.5864 28.246 39.9085C28.246 39.2307 27.6971 38.6812 27.02 38.6812C26.3429 38.6812 25.7939 39.2307 25.7939 39.9085C25.7939 40.5864 26.3429 41.1359 27.02 41.1359Z" fill="#1A1A1A"/>
<path d="M27.5265 40.361C27.7204 40.361 27.8777 40.2036 27.8777 40.0095C27.8777 39.8153 27.7204 39.658 27.5265 39.658C27.3326 39.658 27.1754 39.8153 27.1754 40.0095C27.1754 40.2036 27.3326 40.361 27.5265 40.361Z" fill="#CBCBCA"/>
<path fill-rule="evenodd" clip-rule="evenodd" d="M38.9004 37.8889C39.0443 38.1972 39.7351 38.0272 39.4645 37.3357C39.1854 36.627 38.345 36.0738 37.5161 36.0478C36.6872 36.0219 36.1404 36.4627 35.7605 37.1657C35.418 37.8025 36.0512 38.1021 36.2527 37.7103C36.5577 37.1081 37.1391 36.892 37.5391 36.9179C38.1982 36.9612 38.6098 37.2694 38.9004 37.8889Z" fill="#996D35"/>
<path d="M37.5879 39.5167C38.3382 39.5167 38.9463 38.9078 38.9463 38.1568C38.9463 37.4057 38.3382 36.7969 37.5879 36.7969C36.8377 36.7969 36.2295 37.4057 36.2295 38.1568C36.2295 38.9078 36.8377 39.5167 37.5879 39.5167Z" fill="#1A1A1A"/>
<path d="M38.1405 38.8195C38.3345 38.8195 38.4917 38.6621 38.4917 38.468C38.4917 38.2738 38.3345 38.1165 38.1405 38.1165C37.9466 38.1165 37.7894 38.2738 37.7894 38.468C37.7894 38.6621 37.9466 38.8195 38.1405 38.8195Z" fill="#CBCBCA"/>
<path d="M52.3437 86.2637C52.2603 86.2983 52.2257 86.3069 52.171 86.3214C52.1192 86.3358 52.0761 86.3473 52.0271 86.3588C51.9322 86.3819 51.8401 86.402 51.7508 86.4164C51.5695 86.451 51.3911 86.4712 51.2127 86.4885C50.8587 86.523 50.5104 86.5259 50.1679 86.5173C49.8254 86.5057 49.4887 86.4741 49.1549 86.4251C48.821 86.379 48.4958 86.3127 48.1735 86.2407C48.0555 86.2148 47.9835 86.0995 48.0094 85.9814C48.0296 85.8863 48.1102 85.82 48.2023 85.8114H48.208C48.5246 85.7855 48.8412 85.7538 49.1491 85.7019C49.4571 85.6529 49.7621 85.5867 50.0586 85.5089C50.3521 85.4282 50.6399 85.3331 50.9105 85.2179C51.0457 85.1602 51.1781 85.0997 51.3019 85.0335C51.5666 84.8721 52.761 86.0793 52.3437 86.2637Z" fill="#1A1A1A"/>
<path d="M49.155 79.2798C48.9708 79.2913 48.7923 79.2913 48.6139 79.2884C48.2599 79.2798 47.9145 79.2423 47.5749 79.1905C47.2353 79.1357 46.9044 79.0637 46.582 78.9772C46.2568 78.8908 45.9402 78.7871 45.6294 78.6747C45.5172 78.6344 45.4567 78.5105 45.497 78.3981C45.5287 78.3059 45.6179 78.2512 45.71 78.2541H45.7157C46.0352 78.2685 46.3518 78.2742 46.6626 78.2598C46.9763 78.2483 47.2843 78.2195 47.5864 78.1763C47.8886 78.1302 48.1851 78.0697 48.4671 77.9919C48.6081 77.9516 48.7463 77.9083 48.8758 77.8565C48.942 77.8334 49.0053 77.8046 49.0658 77.7787C49.0945 77.7643 49.1262 77.7528 49.1492 77.7383C49.1722 77.7268 49.2097 77.7067 49.201 77.7038C49.6183 77.5453 49.6155 79.3143 49.155 79.2798Z" fill="#1A1A1A"/>
<path d="M50.7522 84.8663C50.5133 84.9211 50.332 84.9441 50.1277 84.9701C49.9291 84.9931 49.7305 85.0075 49.5348 85.019C49.1405 85.0392 48.7462 85.0306 48.3577 84.996C47.9692 84.9643 47.5835 84.9038 47.2065 84.8116C46.8295 84.728 46.464 84.5926 46.1128 84.4515C46.0006 84.4054 45.9488 84.2786 45.992 84.1662C46.0294 84.074 46.1243 84.0193 46.2193 84.0308L46.2337 84.0337C46.5877 84.0769 46.9331 84.1086 47.2842 84.0913C47.6324 84.0827 47.9778 84.0452 48.3145 83.9818C48.6541 83.9184 48.9851 83.8378 49.3103 83.7312C49.4715 83.6764 49.6298 83.6217 49.7852 83.5583C49.9348 83.4978 50.1046 83.4229 50.2111 83.3624C50.5997 83.1376 51.4055 84.5437 51.0199 84.7684C50.9508 84.8087 50.876 84.8375 50.8011 84.8548L50.7522 84.8663Z" fill="#1A1A1A"/>
<path d="M49.9809 83.1751C49.7421 83.2298 49.5607 83.2528 49.3564 83.2788C49.1578 83.3018 48.9592 83.3191 48.7635 83.3278C48.3692 83.3479 47.975 83.3393 47.5864 83.3076C47.1979 83.2788 46.8122 83.2154 46.4352 83.1261C46.0582 83.0425 45.6927 82.91 45.3416 82.7659C45.2293 82.7198 45.1746 82.5931 45.2207 82.4807C45.2581 82.3885 45.3531 82.3338 45.4481 82.3453L45.4624 82.3482C45.8164 82.3914 46.1618 82.4231 46.5129 82.4029C46.8612 82.3914 47.2036 82.3539 47.5432 82.2905C47.8829 82.2272 48.2138 82.1436 48.539 82.037C48.7002 81.9823 48.8585 81.9275 49.0139 81.8641C49.1636 81.8036 49.3334 81.7287 49.4399 81.6682C49.8255 81.4435 50.6371 82.8466 50.2515 83.0713C50.1824 83.1117 50.1076 83.1405 50.0356 83.1578L49.9809 83.1751Z" fill="#1A1A1A"/>
<path d="M49.5434 81.2706C49.3016 81.3167 49.1203 81.3311 48.916 81.3484C48.7174 81.3628 48.5188 81.3715 48.3202 81.3715C47.9259 81.3743 47.5317 81.3484 47.146 81.2994C46.7575 81.2533 46.3747 81.1755 46.0034 81.0689C45.6293 80.971 45.2724 80.8212 44.9271 80.6627C44.8177 80.6137 44.7688 80.4841 44.8177 80.3717C44.8609 80.2795 44.9558 80.2305 45.0508 80.2478L45.0652 80.2507C45.4163 80.3083 45.7617 80.3544 46.1128 80.3515C46.461 80.3573 46.8064 80.3342 47.1489 80.2853C47.4885 80.2363 47.8252 80.17 48.1533 80.0778C48.3174 80.0317 48.4785 79.9799 48.6368 79.9251C48.7893 79.8704 48.962 79.8041 49.0714 79.7465C49.4686 79.539 50.2168 80.9767 49.8197 81.1842C49.7477 81.2216 49.6729 81.2476 49.5981 81.262L49.5434 81.2706Z" fill="#1A1A1A"/>
<path d="M36.247 79.418H36.2413C35.9276 79.3546 35.6196 79.2884 35.3174 79.2019C35.0152 79.1155 34.7217 79.0175 34.4367 78.9023C34.1547 78.787 33.8784 78.6603 33.6223 78.5162C33.4956 78.4442 33.369 78.3693 33.2568 78.2886C33.015 78.0956 31.6911 79.1558 32.0854 79.3863C32.1631 79.4295 32.1976 79.4411 32.2494 79.4641C32.2984 79.4843 32.3415 79.5016 32.3876 79.5189C32.4768 79.5505 32.566 79.5822 32.6552 79.6082C32.8308 79.6629 33.0064 79.7061 33.179 79.7436C33.5273 79.8185 33.8698 79.8617 34.2123 79.8934C34.5547 79.9193 34.8943 79.928 35.2282 79.9193C35.5649 79.9107 35.8959 79.8848 36.224 79.8502C36.342 79.8387 36.4283 79.7321 36.4168 79.611C36.4111 79.5131 36.3391 79.4382 36.247 79.418ZM36.0599 72.8173C36.2413 72.849 36.4197 72.872 36.5981 72.8864C36.9521 72.9181 37.3004 72.921 37.6429 72.9095C37.9853 72.8951 38.3221 72.8605 38.6559 72.8144C38.9869 72.7654 39.315 72.6992 39.6373 72.6242C39.7553 72.5983 39.8273 72.4802 39.8014 72.3649C39.7783 72.2699 39.6978 72.2036 39.6057 72.1978H39.5999C39.2804 72.1748 38.9667 72.1431 38.6588 72.0941C38.348 72.0451 38.0458 71.9817 37.7493 71.904C37.4529 71.8233 37.168 71.7311 36.8946 71.6187C36.7593 71.5611 36.6269 71.5035 36.5032 71.4372C36.4398 71.4055 36.3823 71.3709 36.3247 71.3364C36.2988 71.3191 36.2672 71.3018 36.2441 71.2845C36.224 71.2701 36.1866 71.247 36.1981 71.2442C35.8009 71.0425 35.6023 72.7971 36.0599 72.8173ZM38.4257 77.8795H38.4113C38.0573 77.8795 37.7062 77.8737 37.3608 77.8161C37.0154 77.7671 36.6787 77.6893 36.3506 77.5856C36.0225 77.4848 35.7002 77.3637 35.3922 77.2226C35.2368 77.1505 35.0872 77.0756 34.9404 76.995C34.7994 76.9172 34.6382 76.825 34.5403 76.7501C34.1806 76.4821 33.2165 77.7844 33.5762 78.0523C33.6395 78.1013 33.7115 78.1359 33.7834 78.1647L33.8324 78.182C34.0626 78.2656 34.241 78.3088 34.4396 78.3577C34.6353 78.4038 34.8282 78.4413 35.0239 78.4759C35.4124 78.5421 35.8038 78.5796 36.1952 78.5911C36.5837 78.6055 36.9752 78.5882 37.3608 78.5421C37.7465 78.5047 38.1235 78.4125 38.489 78.3088C38.6041 78.2771 38.6732 78.1561 38.6415 78.0408C38.6099 77.9429 38.5235 77.8795 38.4257 77.8795ZM39.3869 76.2977H39.3725C39.0185 76.2977 38.6674 76.2891 38.3221 76.2315C37.9767 76.1796 37.64 76.1047 37.3119 76.001C36.9838 75.9001 36.6614 75.7791 36.3535 75.6351C36.1981 75.563 36.0484 75.4881 35.9017 75.4074C35.7606 75.3296 35.5995 75.2375 35.5016 75.1625C35.1419 74.8946 34.1748 76.194 34.5346 76.4619C34.5979 76.5109 34.6699 76.5484 34.7389 76.5743L34.7879 76.5916C35.0181 76.6752 35.1965 76.7184 35.3951 76.7673C35.5908 76.8134 35.7837 76.8509 35.9794 76.8855C36.3679 76.9517 36.7593 76.9892 37.1507 77.0036C37.5392 77.018 37.9307 77.0036 38.3163 76.9575C38.702 76.9201 39.079 76.8279 39.4445 76.727C39.5596 76.6953 39.6287 76.5743 39.597 76.4591C39.5711 76.3611 39.4848 76.2977 39.3869 76.2977ZM40.2417 74.4077C40.21 74.3126 40.1208 74.2521 40.023 74.255H40.0086C39.6546 74.2723 39.3035 74.278 38.9581 74.2348C38.6127 74.2002 38.2703 74.1368 37.9393 74.0475C37.6054 73.9611 37.2802 73.8545 36.9665 73.7248C36.8082 73.6586 36.6557 73.5923 36.506 73.5174C36.3621 73.4454 36.1981 73.3589 36.0945 73.2898C35.7232 73.0391 34.8138 74.3789 35.185 74.6295C35.2512 74.6756 35.3232 74.7102 35.3951 74.7333L35.4469 74.7477C35.68 74.8197 35.8585 74.8571 36.0628 74.8975C36.2585 74.9349 36.4571 74.9666 36.6528 74.9897C37.0442 75.0387 37.4385 75.0588 37.827 75.0559C38.2185 75.0559 38.607 75.0214 38.9869 74.958C39.3697 74.9032 39.7438 74.7966 40.1036 74.6785C40.2158 74.6468 40.2791 74.5229 40.2417 74.4077Z" fill="#1A1A1A"/>
<path d="M80.2088 68.1383C80.8966 72.0423 81.7255 77.1506 77.0516 81.8296C72.3777 86.5086 65.1481 87.177 62.5349 87.177C59.9217 87.177 80.2088 68.1383 80.2088 68.1383Z" fill="#805A30"/>
<path d="M73.8943 52.6636C73.8943 52.6636 72.9129 57.9678 70.6364 62.4422C65.3667 72.8 57.3313 74.2953 64.5609 69.4982C71.7905 64.7011 73.1748 62.2838 73.9259 60.2122C74.6771 58.1378 73.8943 52.6636 73.8943 52.6636Z" fill="#805A30"/>
<path d="M28.1309 58.1983C27.8259 59.198 27.8086 60.1517 28.2576 60.9555C29.7052 63.5428 32.6638 65.623 35.0353 67.2134C37.9795 69.1841 37.355 72.3563 37.0096 74.3702C36.1491 79.3719 27.5237 83.5986 20.0552 76.122C15.9051 71.9673 15.1799 66.6746 16.9527 60.9037C18.1903 56.8787 22.9044 53.3954 27.6848 52.6636C27.682 52.6636 28.2892 57.5471 28.1309 58.1983Z" fill="#B37F3E"/>
<path d="M52.5624 87.1828C56.8622 89.5453 64.4371 87.687 67.5886 86.7304C73.6698 84.8836 79.1006 80.2392 80.6749 73.9035C82.7154 65.6807 78.3725 57.3686 73.9144 52.9056C73.9144 52.9056 73.3906 57.9794 71.8164 62.0216C70.2421 66.061 64.5407 70.4317 58.1832 72.3621C54.6749 73.4281 49.7161 75.2116 48.3893 79.0781C46.9992 83.129 49.5751 85.5434 52.5624 87.1828Z" fill="#B37F3E"/>
</g>
</svg>
