<svg width="100" height="100" viewBox="0 0 100 100" fill="none" xmlns="http://www.w3.org/2000/svg">
<mask id="mask0" mask-type="alpha" maskUnits="userSpaceOnUse" x="0" y="0" width="100" height="100">
<circle cx="50" cy="50" r="50" fill="white"/>
</mask>
<g mask="url(#mask0)">
<circle cx="50" cy="50" r="50" fill="#EDEDED"/>
<path fill-rule="evenodd" clip-rule="evenodd" d="M71.0448 43.3853C71.431 43.2252 74.3134 38.9487 77.1111 38.4871C79.9087 38.0161 82.3955 40.0413 82.3955 42.2173C82.3955 44.3932 80.1442 50.0733 80.1442 50.0733L71.0448 43.3853Z" fill="#996D35"/>
<path fill-rule="evenodd" clip-rule="evenodd" d="M55.3892 42.2738C55.003 42.1136 52.1205 37.8371 49.3229 37.3755C46.5252 36.9045 44.0385 38.9298 44.0385 41.1057C44.0385 43.2817 46.2898 48.9617 46.2898 48.9617L55.3892 42.2738Z" fill="#996D35"/>
<path fill-rule="evenodd" clip-rule="evenodd" d="M29.5 79C28.266 82.1462 23.1217 90.6033 22.5 96.5C21.9725 101.511 24.7376 102.626 27.5258 104.933C31.5104 108.23 53.3546 113.025 57.5087 116.586C61.0976 122.426 65.7321 129.886 69.6883 131.017C73.4845 132.1 79.3341 130.696 80.1254 128.549C80.9072 126.392 81.1615 122.011 79.6732 117.631C78.1378 113.11 71.0825 105.96 71.0825 105.96L80.5116 103.407C80.5116 103.407 77.3371 110.595 80.6905 113.779C82.7534 115.738 84.2606 117.396 88.7255 116.849C93.1999 116.294 93.247 111.546 97.0619 108.965C100.491 106.648 103.571 104.105 104.042 99.2817C104.042 94.7131 105.634 93.432 100.971 89.0425C96.7605 85.0768 93.5484 82.9856 91.3254 81.2147C89.9312 80.1032 86.4931 75.497 86.964 75.5158C87.435 75.5346 86.0221 72.3414 85.6547 64.6737C85.2968 57.2133 82.4049 52.155 79.4566 47.8031C76.5082 43.4512 66.2878 40.0884 62.8873 40.7854C60.8244 40.7383 57.5652 40.126 54.9842 40.4746C52.4032 40.8137 48.56 42.999 47.2507 44.2236C45.9319 45.4482 42.0981 48.7356 40.1011 54.9903C37.9252 61.8102 37.2564 65.1447 36.776 66.1715C36.305 67.1794 30.7716 75.7879 29.5 79Z" fill="#B37F3E"/>
<path fill-rule="evenodd" clip-rule="evenodd" d="M9.76973 47.3605L1 45.7686L1.91371 68.7808L10.6834 70.3728L9.76973 47.3605Z" fill="#C3C3C3"/>
<path d="M75.0388 78.9258C75.0388 78.9258 73.5128 80.48 71.2521 79.8301C69.0385 79.1989 68.3979 78.4265 68.3979 78.4265" stroke="#C1272D" stroke-width="0.706476" stroke-miterlimit="10"/>
<path d="M68.153 78.6526C68.153 78.6526 70.2064 79.3967 70.5456 81.7234C70.8847 84.003 70.4608 84.8978 70.4608 84.8978" stroke="#C1272D" stroke-width="0.706476" stroke-miterlimit="10"/>
<path d="M68.4637 78.5961C68.4637 78.5961 69.7542 79.783 71.3933 81.4691C73.1547 83.2871 73.7764 84.5776 73.7764 84.5776" stroke="#B3B3B3" stroke-width="0.706476" stroke-miterlimit="10"/>
<path fill-rule="evenodd" clip-rule="evenodd" d="M37.5106 30.7629L4.95622 58.8807L4.88086 54.9621L33.253 30.5557L37.7744 30.0282L37.5106 30.7629Z" fill="#B5B5B5"/>
<path fill-rule="evenodd" clip-rule="evenodd" d="M33.6015 30.5086L4.88086 54.9527L4.9939 59.2293L9.32695 60.1524L41.0242 30.7159L37.4259 30.0659L33.6015 30.5086Z" fill="#B5B5B5"/>
<path fill-rule="evenodd" clip-rule="evenodd" d="M83.5823 97.6051C83.5823 97.6051 81.8114 97.8971 80.276 101.382C79.5601 103.012 79.2493 104.067 79.2493 104.067L80.2666 104.481C80.2666 104.481 80.5869 103.389 81.1426 101.966C81.623 100.685 82.4237 98.9615 83.5823 97.6051Z" fill="#8F6F3C"/>
<path fill-rule="evenodd" clip-rule="evenodd" d="M62.5222 56.0021C63.9 56.0451 65.011 56.751 64.9999 57.5775C64.9888 58.4039 63.8555 59.041 62.4778 58.9979C61.1 58.9549 59.989 58.249 60.0001 57.4225C60.0112 56.5961 61.1445 55.959 62.5222 56.0021Z" fill="#996D35"/>
<path fill-rule="evenodd" clip-rule="evenodd" d="M50 55C51.168 55.0471 52.2484 55.8218 52.239 56.7261C52.2296 57.6303 51.2688 58.3274 50.1007 58.2803C48.9327 58.2332 46.9906 57.4044 47 56.5001C47.0095 55.5958 48.832 54.9529 50 55Z" fill="#996D35"/>
<path fill-rule="evenodd" clip-rule="evenodd" d="M62.6137 57.0022C63.4971 57.0472 64.2003 57.7864 64.1913 58.6518C64.1822 59.5172 63.4611 60.1843 62.5776 60.1392C61.6942 60.0942 60.9911 59.355 61.0001 58.4896C61.0091 57.6242 61.7303 56.9571 62.6137 57.0022Z" fill="#181818"/>
<path fill-rule="evenodd" clip-rule="evenodd" d="M49.478 55.9664C50.3164 56.0115 50.9835 56.7056 50.9745 57.5349C50.9654 58.3553 50.2803 58.9953 49.451 58.9502C48.6126 58.9051 47.9455 58.211 47.9546 57.3817C47.9636 56.5523 48.6487 55.9213 49.478 55.9664Z" fill="#181818"/>
<path fill-rule="evenodd" clip-rule="evenodd" d="M55.3594 56.5163C52.2133 56.1678 50.2634 59.4647 48.9446 61.1037C46.844 63.713 45.855 66.3034 47.1926 69.5061C48.2287 71.974 49.7924 72.2095 51.7988 72.2566C52.4582 74.3195 52.656 75.4028 52.2792 77.6164C51.7234 80.9039 51.4974 82.1755 54.6247 82.1944C57.7991 82.2132 59.1933 81.1205 59.2309 78.9352C59.3063 75.2332 62.1039 76.4013 62.1887 70.7024C62.2075 69.4778 62.1039 66.0679 61.5388 63.3644C60.983 60.661 60.0128 57.0344 55.3594 56.5163Z" fill="#DDBC8B"/>
<path fill-rule="evenodd" clip-rule="evenodd" d="M49.8656 56.4533C50.1 56.4623 50.2983 56.6787 50.2893 56.9311C50.2893 57.1835 50.091 57.3728 49.8566 57.3638C49.6222 57.3548 49.4239 57.1384 49.4329 56.886C49.4329 56.6336 49.6222 56.4443 49.8656 56.4533Z" fill="white"/>
<path fill-rule="evenodd" clip-rule="evenodd" d="M63.3168 57.552C63.5512 57.5611 63.7495 57.7774 63.7405 58.0298C63.7405 58.2822 63.5422 58.4715 63.3078 58.4625C63.0734 58.4535 62.8751 58.2372 62.8841 57.9847C62.8841 57.7323 63.0824 57.534 63.3168 57.552Z" fill="white"/>
<path fill-rule="evenodd" clip-rule="evenodd" d="M49.9244 64.7116C52.0061 64.7869 53.9372 64.9094 53.9183 66.2093C53.8995 67.5186 51.7235 68.4229 50.3765 68.4417C49.1896 68.4606 46.8347 67.2643 46.8441 65.9644C46.863 64.6645 47.8426 64.6362 49.9244 64.7116Z" fill="black"/>
<path fill-rule="evenodd" clip-rule="evenodd" d="M59.815 71.8609C59.4853 71.3334 57.3753 72.8217 55.7928 72.8594C54.4081 72.8971 53.7676 72.8217 52.2416 72.7558C53.2777 75.0448 53.6828 74.555 53.1647 78.0308C52.7502 80.7908 53.1835 80.4799 55.4254 80.3575C57.3753 80.2539 58.5433 79.5568 58.6093 77.9178C58.7506 74.263 61.1526 73.9898 59.815 71.8609Z" fill="black"/>
<path fill-rule="evenodd" clip-rule="evenodd" d="M57.7333 75.4217C57.7333 75.4217 55.8965 76.0057 55.4066 76.8912C54.9168 77.7766 54.5494 79.1048 54.5494 79.1048L57.5732 78.9541C57.5166 79.0012 57.9311 78.0216 58.534 76.9666C59.3064 75.629 58.826 74.9696 57.7333 75.4217Z" fill="#3D1F25"/>
<path d="M23.042 26.5524C23.042 26.5524 14.1498 37.4509 18.4452 44.9019C22.75 52.3529 28.7315 53.634 28.788 59.8039C28.8446 65.9832 32.1791 79.962 46.0261 77.0042C57.7912 74.4891 62.0113 74.037 69.0101 79.2932" stroke="#333333" stroke-width="1.88394" stroke-miterlimit="10"/>
<path fill-rule="evenodd" clip-rule="evenodd" d="M57.0738 72.5393C57.0738 72.5393 56.8478 74.979 56.4333 75.092C55.9152 75.2333 55.6703 73.6131 55.6703 73.6131C55.6703 73.6131 52.8256 73.1139 52.2321 73.3777C51.6387 73.6508 52.2604 74.7812 51.7423 74.9602C51.2242 75.1391 50.9416 74.216 50.7815 73.5661C50.6308 72.9444 50.6119 72.3698 50.6119 72.3698C50.6119 72.3698 52.1002 72.6429 53.5697 72.7183C55.237 72.8031 57.0738 72.5393 57.0738 72.5393Z" fill="white"/>
<path fill-rule="evenodd" clip-rule="evenodd" d="M50.2257 72.0871C50.2257 72.0871 50.1975 73.0102 52.1473 72.8783C53.8241 72.7653 55.5008 73.208 56.4804 72.9537C57.4506 72.6994 58.9389 71.9081 58.6563 71.9929C58.3078 72.0965 56.2072 72.3414 54.2479 72.3791C52.2792 72.4262 50.2257 72.0871 50.2257 72.0871Z" fill="#3D1F25"/>
<path fill-rule="evenodd" clip-rule="evenodd" d="M53.1552 79.5946C52.9762 79.5098 52.7501 79.3402 52.703 79.1519C52.5806 78.6432 52.4016 77.6824 52.6842 77.607C53.1646 77.4846 53.4755 78.9069 53.4755 78.9069C53.4755 78.9069 55.755 79.1801 56.3108 78.9258C56.8665 78.6714 56.3108 77.3904 56.81 77.494C57.0549 77.5411 57.4411 78.0215 57.5542 78.6809C57.6672 79.3026 57.281 79.5663 57.281 79.5663C57.281 79.5663 56.1506 79.9431 54.9449 79.9054C53.9559 79.8772 53.466 79.7359 53.1552 79.5946Z" fill="white"/>
<path fill-rule="evenodd" clip-rule="evenodd" d="M85.7677 72.5205C85.7677 72.5205 90.0913 75.8457 88.9233 75.4595C88.1603 75.2145 87.8306 75.7703 87.8306 75.7703C87.8306 75.7703 90.2515 78.1817 89.2907 77.8144C88.2827 77.4282 88.3204 77.918 88.0755 77.918C87.8306 77.918 89.9124 80.1222 89.4508 80.0563C88.49 79.9244 88.3675 80.4425 87.8306 79.736C87.5009 79.3027 85.551 76.0152 85.0895 74.1878C84.7504 72.8314 85.7677 72.5205 85.7677 72.5205Z" fill="#B37F3E"/>
</g>
<path fill-rule="evenodd" clip-rule="evenodd" d="M79.4001 28.2479L79.1741 30.0565C79.1741 30.0565 35.7116 35.8307 34.8733 36.0285C34.0444 36.2264 22.8632 31.6013 21.6198 31.0079C20.3764 30.4144 19.5098 29.8586 19.5004 28.7377C19.4909 27.6168 19.5757 22.3041 19.5757 22.3041L64.4982 15.3335L79.4001 28.2479Z" fill="#B5B5B5"/>
<path fill-rule="evenodd" clip-rule="evenodd" d="M19.6038 23.1613L18.8879 20.1658L64.677 13.3931L63.1134 16.6523L19.6038 23.1613Z" fill="#B5B5B5"/>
<path fill-rule="evenodd" clip-rule="evenodd" d="M69.0196 10.9722L64.338 13.8169L19.3025 20.5049L20.9886 18.3855L69.0196 10.9722Z" fill="#B5B5B5"/>
<path fill-rule="evenodd" clip-rule="evenodd" d="M73.3714 5.08484C73.3714 5.08484 72.1468 8.73026 71.1766 9.56861C70.2064 10.407 69.0195 10.9721 69.0195 10.9721L20.9885 18.3854C20.9885 18.3854 22.0153 14.627 22.4203 13.9864C22.8442 13.3553 73.3714 5.08484 73.3714 5.08484Z" fill="#B5B5B5"/>
<path fill-rule="evenodd" clip-rule="evenodd" d="M81.5571 23.3873C81.5571 23.3873 83.7708 21.541 83.9215 20.4201C84.0722 19.3086 84.4301 18.0557 84.4301 18.0557L86.0315 15.1827C86.0315 15.1827 85.617 9.92656 85.4004 9.48384C85.1837 9.04111 75.7263 4.98123 74.125 5.00007C72.5331 5.0189 72.8533 5.63118 72.6932 5.93261C72.5237 6.23404 71.5157 9.14473 71.5157 9.14473L79.9181 12.0272C79.9181 12.0272 80.4739 15.5407 80.3797 16.2095C80.2949 16.8689 80.6528 18.263 81.0956 19.2049C81.5383 20.1469 81.5571 23.3873 81.5571 23.3873Z" fill="#A67C52"/>
<path fill-rule="evenodd" clip-rule="evenodd" d="M62.859 23.3026L20.1879 30.1319C20.1879 30.1319 24.9542 32.9295 28.1287 34.107C30.6155 35.0207 34.5435 36.4525 34.5435 36.4525C34.5435 36.4525 78.4674 30.2638 79.1739 30.0565C79.8804 29.8493 74.822 28.5682 72.015 27.5509C68.7652 26.3734 64.7995 24.9134 64.7995 24.9134C64.7995 24.9134 62.9061 24.3953 62.859 23.3026Z" fill="#8B8B8B"/>
<path fill-rule="evenodd" clip-rule="evenodd" d="M81.5571 23.3873C81.5571 23.3873 83.7708 21.541 83.9215 20.4201C84.0722 19.3086 84.4301 18.0557 84.4301 18.0557L86.0315 15.1827C86.0315 15.1827 85.617 9.92656 85.4004 9.48384C85.1837 9.04111 75.7263 4.98123 74.125 5.00007C72.5331 5.0189 72.8533 5.63118 72.6932 5.93261C72.5237 6.23404 71.5157 9.14473 71.5157 9.14473L79.9181 12.0272C79.9181 12.0272 80.4739 15.5407 80.3797 16.2095C80.2949 16.8689 80.6528 18.263 81.0956 19.2049C81.5383 20.1469 81.5571 23.3873 81.5571 23.3873Z" fill="#696969"/>
<path fill-rule="evenodd" clip-rule="evenodd" d="M80.8413 27.3153C80.8413 27.8428 80.1536 30.1129 79.0327 30.0753C77.9211 30.0376 65.685 25.5444 64.1402 24.706C62.5953 23.8677 62.7931 23.1047 62.8591 21.0135C62.925 18.9224 63.5844 10.4446 63.5844 10.4446L70.2535 8.14624L80.6811 11.9518L81.8586 22.5866C81.8492 22.5772 80.8413 26.7878 80.8413 27.3153Z" fill="#D7D7D7"/>
<path fill-rule="evenodd" clip-rule="evenodd" d="M78.345 15.2864L76.9509 23.5192C76.9509 23.5192 77.1393 24.772 76.3198 24.7438C75.4908 24.7249 68.3036 21.8143 68.3036 21.8143C68.3036 21.8143 66.9095 21.3621 67.0414 20.8063C67.1733 20.2506 68.4355 12.5735 68.4355 12.5735C68.4355 12.5735 68.6522 11.0005 69.4057 10.9251C70.1593 10.8403 77.4219 13.8546 77.4219 13.8546C77.4219 13.8546 78.2508 14.335 78.345 15.2864Z" fill="black"/>
<path fill-rule="evenodd" clip-rule="evenodd" d="M74.3981 16.7748C73.7859 14.9756 71.9208 13.9865 70.2158 14.5706C68.5203 15.1546 67.6348 17.0762 68.2377 18.8754C68.85 20.6745 70.7151 21.6636 72.42 21.0796C73.6917 20.6463 74.5018 19.4594 74.5771 18.1406C74.6148 17.6885 74.5583 17.2269 74.3981 16.7748Z" fill="#CCCCCC"/>
<path fill-rule="evenodd" clip-rule="evenodd" d="M73.1077 17.0384C72.7592 16.0399 71.6665 15.4936 70.668 15.8233C69.6695 16.153 69.1515 17.2362 69.5 18.2347C69.8485 19.2332 70.9412 19.7795 71.9397 19.4498C72.9382 19.1202 73.4562 18.0369 73.1077 17.0384Z" fill="black"/>
<path fill-rule="evenodd" clip-rule="evenodd" d="M73.3714 5.08484C73.3714 5.08484 72.1468 8.73026 71.1766 9.56861C70.2064 10.407 69.0195 10.9721 69.0195 10.9721L20.9885 18.3854C20.9885 18.3854 22.0153 14.627 22.4203 13.9864C22.8442 13.3553 73.3714 5.08484 73.3714 5.08484Z" fill="#B5B5B5"/>
<path fill-rule="evenodd" clip-rule="evenodd" d="M69.0196 10.9722L64.6771 13.393L18.7938 20.1564L20.9886 18.3855L69.0196 10.9722Z" fill="#B5B5B5"/>
<path fill-rule="evenodd" clip-rule="evenodd" d="M19.6133 23.2649L18.7938 20.1564L64.6771 13.3931L63.1134 16.6523L19.6133 23.2649Z" fill="#999999"/>
</svg>
