<svg width="100" height="100" viewBox="0 0 100 100" fill="none" xmlns="http://www.w3.org/2000/svg">
<path fill-rule="evenodd" clip-rule="evenodd" d="M74.4121 92.1123L71.2359 91.4135C70.6805 91.2916 70.1149 91.571 69.8737 92.086L68.4963 95.0315C68.2222 95.6173 67.5369 95.8861 66.9378 95.6424L63.9251 94.417C63.3984 94.2028 62.7936 94.3824 62.4693 94.8491L60.6136 97.5196C60.2443 98.0513 59.5235 98.2001 58.9738 97.8584L56.2119 96.1422C55.7291 95.8416 55.1027 95.9166 54.7037 96.3225L52.4238 98.6408C51.9701 99.1018 51.2344 99.1269 50.7506 98.6975L48.3183 96.539C47.8928 96.1616 47.2628 96.1295 46.8018 96.4618L44.1621 98.3615C43.6371 98.7394 42.9081 98.6402 42.5034 98.135L40.4715 95.5968C40.1157 95.1532 39.5003 95.0149 38.9893 95.2646L36.0668 96.691C35.4856 96.9748 34.7838 96.754 34.4704 96.1877L32.8966 93.3425C32.6216 92.8446 32.0381 92.605 31.4925 92.7641L28.3706 93.6771C27.7491 93.858 27.095 93.5215 26.8821 92.9106L25.8121 89.8402C25.6249 89.3035 25.0906 88.9686 24.5258 89.0333L21.2948 89.4054C20.6518 89.4797 20.0636 89.0369 19.957 88.3994L19.4217 85.1924C19.3281 84.6318 18.858 84.2111 18.29 84.1797L15.0426 84.0002C14.3966 83.9646 13.8919 83.4289 13.8947 82.7821L13.9093 79.531C13.9111 78.9626 13.5195 78.4683 12.9647 78.3415L9.79503 77.6162C9.16373 77.4718 8.75693 76.8586 8.86927 76.2215L9.4328 73.0195C9.53132 72.46 9.22864 71.9066 8.70372 71.6879L5.70148 70.4374C5.10413 70.1887 4.80675 69.5155 5.02497 68.9063L6.12194 65.8454C6.31355 65.3101 6.10847 64.7136 5.62829 64.4099L2.88075 62.67C2.33444 62.324 2.15472 61.6106 2.473 61.0471L4.07136 58.2154C4.3509 57.7201 4.24957 57.0974 3.82773 56.7168L1.414 54.5376C0.933638 54.1039 0.877839 53.3707 1.28631 52.869L3.34069 50.3479C3.69966 49.9073 3.70533 49.2769 3.35375 48.83L1.34306 46.2742C0.942632 45.7662 1.01172 45.0337 1.49913 44.6079L3.94995 42.4704C4.37836 42.0968 4.49043 41.4762 4.21932 40.976L2.66972 38.118C2.36168 37.5493 2.55311 36.8391 3.10579 36.5017L5.88242 34.8088C6.36796 34.5133 6.58317 33.92 6.40054 33.382L5.35644 30.3027C5.14898 29.6898 5.45781 29.0218 6.05909 28.7832L9.08247 27.5842C9.61109 27.3742 9.92309 26.8261 9.83424 26.2652L9.32607 23.0535C9.2245 22.4145 9.64201 21.8082 10.2751 21.6749L13.4575 21.0033C14.0135 20.8857 14.4145 20.3985 14.4216 19.8302L14.4632 16.5791C14.4718 15.9324 14.9852 15.4053 15.6322 15.3806L18.8821 15.2567C19.4502 15.2347 19.9272 14.8219 20.0306 14.2631L20.6214 11.0657C20.7387 10.4294 21.3344 9.99725 21.9757 10.0818L25.2002 10.5089C25.7636 10.5834 26.304 10.2572 26.5002 9.72371L27.6231 6.67197C27.8465 6.065 28.5064 5.73936 29.1244 5.9311L32.2297 6.89657C32.7728 7.06556 33.3602 6.83515 33.6439 6.34279L35.2663 3.52429C35.5887 2.96328 36.2946 2.75426 36.8707 3.04744L39.769 4.52397C40.2755 4.78187 40.8932 4.65446 41.2563 4.21627L43.3318 1.71317C43.7447 1.21548 44.4757 1.1278 44.9938 1.51472L47.6008 3.45904C48.0562 3.79888 48.6868 3.77753 49.1185 3.40758L51.5871 1.29017C52.0786 0.869514 52.8131 0.906989 53.259 1.37587L55.4994 3.73257C55.8908 4.14446 56.5159 4.22977 57.0037 3.93818L59.7951 2.26857C60.3503 1.93655 61.0686 2.09791 61.4286 2.63477L63.2383 5.33642C63.5541 5.80867 64.156 5.99902 64.6865 5.79345L67.7196 4.61971C68.3229 4.3865 69.0035 4.66654 69.2672 5.25684L70.5942 8.2254C70.8257 8.74422 71.3867 9.03266 71.9442 8.9201L75.1325 8.276C75.7664 8.14732 76.39 8.53888 76.5502 9.16541L77.3561 12.3151C77.4971 12.8658 78.0007 13.2452 78.5691 13.228L81.8203 13.1319C82.4665 13.112 83.0152 13.6035 83.0675 14.248L83.3292 17.4889C83.375 18.0548 83.8075 18.5138 84.3703 18.5937L87.5911 19.0479C88.2317 19.1373 88.6892 19.7141 88.6315 20.3584L88.3419 23.5967C88.2906 24.1633 88.6396 24.6884 89.1814 24.8618L92.2786 25.8535C92.8948 26.0503 93.2482 26.6962 93.0825 27.3215L92.249 30.4644C92.1032 31.0138 92.3582 31.5909 92.8622 31.8529L95.7479 33.3538C96.3217 33.6517 96.5613 34.3477 96.2917 34.9358L94.9397 37.8932C94.7025 38.4101 94.8564 39.0219 95.3097 39.3653L97.8996 41.3322C98.4142 41.7234 98.5327 42.4493 98.1681 42.9839L96.3348 45.6705C96.0147 46.1396 96.0632 46.7684 96.451 47.1836L98.6715 49.5592C99.1127 50.032 99.1061 50.7683 98.6568 51.2328L96.3962 53.5709C96.001 53.9798 95.942 54.6075 96.2541 55.0825L98.041 57.7993C98.3964 58.3396 98.2656 59.0639 97.7441 59.4465L95.1205 61.3683C94.6623 61.7048 94.4979 62.3136 94.7251 62.8347L96.027 65.814C96.2859 66.4068 96.0346 67.0985 95.4554 67.3872L92.5453 68.8388C92.036 69.0925 91.7715 69.6644 91.9075 70.2165L92.6867 73.3736C92.8419 74.0015 92.4772 74.6408 91.8577 74.8272L88.7442 75.7667C88.1995 75.9304 87.8418 76.4501 87.8826 77.0173L88.1171 80.2599C88.1631 80.905 87.6961 81.4735 87.0541 81.5529L83.8263 81.9524C83.2618 82.0218 82.8218 82.4736 82.7661 83.0393L82.4486 86.2756C82.3856 86.9193 81.8292 87.4006 81.1826 87.3703L77.9338 87.2187C77.366 87.1919 76.8552 87.5626 76.7049 88.1107L75.8454 91.2471C75.6742 91.8707 75.044 92.2514 74.4121 92.1123Z" fill="#FFC233"/>
<path fill-rule="evenodd" clip-rule="evenodd" d="M89.5387 43.0753C93.3601 64.9033 78.7572 85.6977 56.9215 89.5205C35.0858 93.3432 14.2865 78.7473 10.4652 56.9193C6.64362 35.0903 21.2471 14.2963 43.0823 10.4736C64.9179 6.65038 85.7173 21.2469 89.5387 43.0753Z" stroke="#D49B1C" stroke-width="3.23466"/>
<path fill-rule="evenodd" clip-rule="evenodd" d="M86.4925 43.6083C90.0195 63.7548 76.5413 82.9468 56.3882 86.475C36.2355 90.0031 17.0392 76.5318 13.5116 56.3854C9.98465 36.2389 23.4628 17.047 43.616 13.5188C63.7692 9.9906 82.9655 23.4619 86.4925 43.6083Z" fill="#BD8404"/>
<path fill-rule="evenodd" clip-rule="evenodd" d="M73.9587 45.8029C76.2739 59.0292 67.4258 71.6292 54.1946 73.9458C40.964 76.2623 28.3611 67.4178 26.0452 54.1911C23.73 40.9648 32.5781 28.3643 45.8094 26.0487C59.04 23.7322 71.6428 32.5762 73.9587 45.8029Z" stroke="#FFC921" stroke-width="1.03612" stroke-linecap="round" stroke-dasharray="1.04 3.11"/>
<path fill-rule="evenodd" clip-rule="evenodd" d="M25.0809 36.7852L21.0235 34.5122L21.6408 33.4109L25.6986 35.6833L25.0809 36.7852Z" fill="#FFBD21"/>
<path fill-rule="evenodd" clip-rule="evenodd" d="M28.743 31.343L27.7556 32.6629L24.1135 32.0621L24.0965 32.0852C24.5336 32.3606 24.861 32.5803 25.0784 32.7433L26.7576 33.9978L26.0907 34.8896L22.365 32.1056L23.348 30.7908L26.9509 31.37L26.9619 31.3548C26.5689 31.0986 26.2589 30.8847 26.0312 30.7146L24.3465 29.4558L25.0167 28.5587L28.743 31.343Z" fill="#FFBD21"/>
<path fill-rule="evenodd" clip-rule="evenodd" d="M29.6025 27.2063C29.3104 26.8958 29.0321 26.7234 28.7687 26.6895C28.5042 26.6558 28.2475 26.7561 27.9973 26.992L27.7307 27.2425L29.5173 29.1391L29.7212 28.9467C29.9992 28.6853 30.1272 28.4127 30.1052 28.1291C30.0828 27.8461 29.9148 27.5381 29.6025 27.2063ZM30.521 26.2801C31.0535 26.8447 31.3078 27.4266 31.2849 28.0252C31.2619 28.6233 30.9677 29.1883 30.4046 29.7188L29.3088 30.7507L26.1195 27.3659L27.2919 26.2618C27.8355 25.7501 28.3857 25.494 28.9433 25.4935C29.5004 25.493 30.0267 25.7553 30.521 26.2801Z" fill="#FFBD21"/>
<path fill-rule="evenodd" clip-rule="evenodd" d="M35.0096 26.0665L32.7504 27.6534L30.0759 23.8486L32.3361 22.261L32.9162 23.0862L31.6842 23.9513L32.1048 24.5499L33.2449 23.7485L33.825 24.5737L32.6849 25.3751L33.1894 26.0931L34.421 25.2285L35.0096 26.0665Z" fill="#FFBD21"/>
<path fill-rule="evenodd" clip-rule="evenodd" d="M35.5108 22.8548L35.7137 22.7493C35.8813 22.6621 35.9897 22.5453 36.0396 22.3996C36.0896 22.2544 36.0712 22.0991 35.9849 21.9336C35.8396 21.6554 35.613 21.5965 35.3051 21.757L35.0169 21.9066L35.5108 22.8548ZM37.1107 21.3398C37.3511 21.8005 37.4004 22.2273 37.2593 22.62C37.1181 23.0127 36.7972 23.3393 36.2971 23.6003L35.9838 23.7633L36.6966 25.1311L35.5825 25.7118L33.4333 21.5876L34.8607 20.8445C35.3822 20.5728 35.8325 20.4823 36.2123 20.5739C36.5932 20.6653 36.892 20.9207 37.1107 21.3398Z" fill="#FFBD21"/>
<path fill-rule="evenodd" clip-rule="evenodd" d="M41.7472 22.9979L39.1504 23.9388L37.566 19.5671L40.1622 18.6258L40.5058 19.5735L39.0907 20.0862L39.3405 20.7746L40.6508 20.2994L40.9945 21.2476L39.6842 21.7223L39.9831 22.5479L41.3982 22.0352L41.7472 22.9979Z" fill="#FFBD21"/>
<path fill-rule="evenodd" clip-rule="evenodd" d="M46.707 21.9128L45.0895 22.2318L42.7887 19.3467L42.7605 19.3517C42.9001 19.8497 42.9959 20.2313 43.0488 20.4978L43.4542 22.5545L42.3614 22.7699L41.4617 18.2072L43.0721 17.89L45.3586 20.7327L45.3769 20.7289C45.2579 20.2753 45.17 19.9087 45.115 19.6299L44.7084 17.5671L45.8074 17.3506L46.707 21.9128Z" fill="#FFBD21"/>
<path fill-rule="evenodd" clip-rule="evenodd" d="M50.1286 19.4134C50.1195 18.9869 50.0281 18.6727 49.8551 18.4712C49.6826 18.2691 49.4244 18.172 49.0805 18.1792L48.7139 18.1873L48.7708 20.7916L49.0505 20.7856C49.4329 20.7774 49.7099 20.6609 49.8832 20.4353C50.057 20.2097 50.1386 19.8692 50.1286 19.4134ZM51.4319 19.3405C51.4487 20.1165 51.2478 20.719 50.8297 21.1479C50.4115 21.5767 49.8149 21.7998 49.0414 21.8173L47.5367 21.8495L47.4359 17.2004L49.0458 17.1654C49.792 17.149 50.3727 17.3273 50.7869 17.7003C51.2015 18.0727 51.4163 18.6198 51.4319 19.3405Z" fill="#FFBD21"/>
<path fill-rule="evenodd" clip-rule="evenodd" d="M54.9103 22.189L52.1688 21.8533L52.7357 17.2375L55.4763 17.5734L55.354 18.5743L53.8601 18.3916L53.7714 19.1176L55.1546 19.2869L55.0312 20.2874L53.6481 20.118L53.5411 20.9893L55.0351 21.1724L54.9103 22.189Z" fill="#FFBD21"/>
<path fill-rule="evenodd" clip-rule="evenodd" d="M59.8314 23.4765L58.2458 23.0257L57.5087 19.4094L57.4814 19.4015C57.3789 19.9084 57.2906 20.2923 57.2161 20.5533L56.6423 22.5697L55.5708 22.2645L56.8445 17.792L58.4234 18.2408L59.1668 21.8122L59.1857 21.8178C59.2851 21.359 59.3738 20.9925 59.452 20.7192L60.0274 18.6968L61.1049 19.0035L59.8314 23.4765Z" fill="#FFBD21"/>
<path fill-rule="evenodd" clip-rule="evenodd" d="M62.4562 24.6946L61.317 24.164L62.8472 20.8798L61.8174 20.4003L62.2511 19.4693L65.4469 20.9568L65.0132 21.8883L63.9864 21.4104L62.4562 24.6946Z" fill="#FFBD21"/>
<path fill-rule="evenodd" clip-rule="evenodd" d="M63.9375 25.4485L66.432 21.5228L67.4924 22.1967L65.5425 25.2654L67.0546 26.2258L66.5104 27.0823L63.9375 25.4485Z" fill="#FFBD21"/>
<path fill-rule="evenodd" clip-rule="evenodd" d="M70.1556 26.2817L71.8831 25.4861L72.9212 26.3669L69.9198 27.5377L68.7435 28.9225L67.7786 28.1034L68.9295 26.7484L69.6222 23.5685L70.6653 24.4531L70.1556 26.2817Z" fill="#FFBD21"/>
<path fill-rule="evenodd" clip-rule="evenodd" d="M8.39508 71.3361L96.3839 55.9312L91.6098 28.6578L3.61991 44.0629L8.39508 71.3361Z" fill="#FFC233"/>
<path fill-rule="evenodd" clip-rule="evenodd" d="M33.5219 76.033L33.8145 75.1771C33.8769 74.9854 33.9621 74.7399 34.0684 74.4406C34.1757 74.1405 34.2557 73.9288 34.3098 73.804C34.2227 73.8944 34.0741 74.0411 33.8633 74.2426C33.652 74.4442 33.2229 74.8322 32.5767 75.4065L33.5219 76.033ZM32.7844 78.1607L33.1179 77.1829L31.6736 76.2263L30.8974 76.9091L29.5782 76.0351L33.9875 72.5354L35.5889 73.5975L34.0972 79.0311L32.7844 78.1607Z" fill="#FFBD21"/>
<path fill-rule="evenodd" clip-rule="evenodd" d="M40.9804 76.2677L39.679 79.2008C39.3961 79.8389 38.9959 80.2524 38.4795 80.4418C37.9632 80.6321 37.3655 80.5758 36.6848 80.2741C36.0201 79.9797 35.5851 79.5839 35.3793 79.0854C35.1731 78.5875 35.212 78.0199 35.4949 77.3818L36.8094 74.4184L38.1335 75.0051L36.8642 77.8649C36.7115 78.21 36.6648 78.4883 36.725 78.7007C36.7848 78.9137 36.9402 79.0755 37.1914 79.1871C37.4603 79.3056 37.6893 79.3154 37.8793 79.2148C38.0692 79.1137 38.2419 78.8877 38.3974 78.5374L39.6637 75.6839L40.9804 76.2677Z" fill="#FFBD21"/>
<path fill-rule="evenodd" clip-rule="evenodd" d="M43.5483 79.6148C43.6678 79.1414 43.6631 78.767 43.533 78.4908C43.4035 78.2151 43.1475 78.0287 42.7659 77.9327L42.3587 77.8301L41.6286 80.726L41.9394 80.8038C42.3642 80.9107 42.7058 80.8663 42.9662 80.6698C43.2266 80.4738 43.4204 80.122 43.5483 79.6148ZM45.0112 79.9313C44.7937 80.7936 44.3881 81.3988 43.7953 81.7454C43.2025 82.092 42.476 82.1572 41.6157 81.9405L39.9422 81.5185L41.2475 76.3503L43.0366 76.8011C43.8666 77.0109 44.4536 77.3841 44.7975 77.9222C45.1424 78.4602 45.2135 79.1299 45.0112 79.9313Z" fill="#FFBD21"/>
<path fill-rule="evenodd" clip-rule="evenodd" d="M45.1946 82.6884L45.8704 77.4013L47.3063 77.5846L46.631 82.8716L45.1946 82.6884Z" fill="#FFBD21"/>
<path fill-rule="evenodd" clip-rule="evenodd" d="M49.9627 83.0522L48.5226 83.016L48.6285 78.8647L47.3265 78.8316L47.3561 77.6537L51.3967 77.7561L51.3664 78.9336L50.0682 78.9015L49.9627 83.0522Z" fill="#FFBD21"/>
<path fill-rule="evenodd" clip-rule="evenodd" d="M55.0981 82.7051L51.9487 83.0242L51.4111 77.7211L54.561 77.4014L54.6776 78.5514L52.9616 78.7251L53.0458 79.5595L54.6351 79.3987L54.7517 80.5487L53.1624 80.7095L53.2639 81.711L54.9799 81.5369L55.0981 82.7051Z" fill="#FFBD21"/>
<path fill-rule="evenodd" clip-rule="evenodd" d="M58.2904 79.2057C58.1735 78.7311 57.9925 78.4031 57.7483 78.2205C57.5036 78.038 57.1903 77.9944 56.8084 78.0892L56.4007 78.1902L57.1195 81.0884L57.4305 81.0114C57.8554 80.9058 58.1362 80.7057 58.2733 80.4099C58.411 80.1145 58.4164 79.713 58.2904 79.2057ZM59.7297 78.796C59.9439 79.6598 59.8712 80.3839 59.5113 80.969C59.1512 81.5536 58.5408 81.9529 57.6797 82.1666L56.0052 82.5818L54.7228 77.4075L56.5139 76.9638C57.3446 76.7581 58.0386 76.8117 58.5959 77.1241C59.1533 77.4369 59.5308 77.9945 59.7297 78.796Z" fill="#FFBD21"/>
<path fill-rule="evenodd" clip-rule="evenodd" d="M63.1199 75.7319C62.811 75.8809 62.6311 76.123 62.5794 76.4592C62.5282 76.7954 62.6093 77.1864 62.824 77.6305C63.2688 78.5551 63.8427 78.8476 64.5458 78.5091C64.7583 78.4071 64.9508 78.2786 65.1212 78.1233C65.2921 77.9685 65.4582 77.8012 65.6193 77.6206L66.148 78.7181C65.8327 79.0886 65.4216 79.3952 64.9153 79.6388C64.1896 79.9877 63.5325 80.0444 62.944 79.8099C62.3545 79.5761 61.8689 79.0614 61.486 78.266C61.2471 77.7685 61.1304 77.2865 61.1364 76.8199C61.1424 76.3532 61.2725 75.9339 61.5261 75.5616C61.7805 75.1901 62.1456 74.8895 62.6208 74.6615C63.1404 74.4118 63.6906 74.2857 64.2728 74.2835L64.3667 75.4967C64.1488 75.4987 63.9383 75.5136 63.733 75.5424C63.5281 75.5706 63.3241 75.634 63.1199 75.7319Z" fill="#FFBD21"/>
<path fill-rule="evenodd" clip-rule="evenodd" d="M66.7464 75.449C67.3406 76.2918 67.9309 76.5064 68.5167 76.0929C68.8147 75.8823 68.9637 75.624 68.9636 75.3175C68.9631 75.0117 68.8102 74.6423 68.5049 74.2094C68.1982 73.7741 67.8984 73.504 67.6058 73.4003C67.3139 73.2948 67.0219 73.3452 66.7318 73.5496C66.1418 73.966 66.1466 74.5988 66.7464 75.449ZM69.7445 73.3349C70.2613 74.0682 70.4748 74.7514 70.3844 75.3867C70.2934 76.0221 69.9018 76.5837 69.2083 77.0728C68.5252 77.5547 67.8656 77.7323 67.2307 77.6064C66.5957 77.4801 66.0193 77.0506 65.5021 76.3179C64.9905 75.5932 64.7815 74.9113 64.8745 74.2729C64.9672 73.6351 65.3591 73.0724 66.0507 72.5847C66.7443 72.0957 67.4033 71.9145 68.0288 72.0415C68.654 72.169 69.2264 72.6003 69.7445 73.3349Z" fill="#FFBD21"/>
<path fill-rule="evenodd" clip-rule="evenodd" d="M72.2519 70.749C71.9046 70.4044 71.5795 70.2181 71.2757 70.1892C70.9725 70.1608 70.6816 70.286 70.4042 70.5654L70.1089 70.8632L72.229 72.9663L72.4548 72.7389C72.7637 72.4281 72.8991 72.1109 72.8632 71.787C72.8266 71.4626 72.6224 71.117 72.2519 70.749ZM73.2688 69.6518C73.9001 70.2787 74.2141 70.9352 74.211 71.6222C74.2078 72.3088 73.893 72.9667 73.2682 73.5969L72.0524 74.8207L68.2682 71.0662L69.5683 69.7568C70.1711 69.149 70.7919 68.835 71.4302 68.8123C72.0695 68.7894 72.682 69.0698 73.2688 69.6518Z" fill="#FFBD21"/>
<path fill-rule="evenodd" clip-rule="evenodd" d="M77.6902 68.314L75.8041 70.8567L71.5214 67.6811L73.4077 65.1389L74.3363 65.8276L73.3086 67.2127L73.9819 67.7123L74.9341 66.4293L75.8622 67.1181L74.9105 68.4004L75.7194 69.0003L76.747 67.6147L77.6902 68.314Z" fill="#FFBD21"/>
<path fill-rule="evenodd" clip-rule="evenodd" d="M21.3058 56.1848L20.3646 54.1327C20.1491 53.6782 19.8811 53.0876 19.5602 52.362C19.2388 51.6366 19.0199 51.1145 18.9025 50.7964C18.9023 51.1104 18.8836 51.6305 18.8478 52.3571C18.8121 53.0843 18.7015 54.5227 18.5176 56.6727L21.3058 56.1848ZM23.6242 61.3017L22.5488 58.9594L18.2914 59.7048L18.0575 62.2759L14.1674 62.9576L16.1401 49.0539L20.8637 48.2274L27.4965 60.6237L23.6242 61.3017Z" fill="#946704"/>
<path fill-rule="evenodd" clip-rule="evenodd" d="M36.6601 45.5167L38.0406 53.4028C38.3413 55.1175 38.0875 56.5294 37.2817 57.6407C36.4747 58.7512 35.1577 59.4669 33.329 59.7873C31.5424 60.1002 30.089 59.8835 28.9699 59.1375C27.8509 58.3915 27.1411 57.1606 26.8411 55.4468L25.4464 47.4803L29.0048 46.8571L30.3509 54.5452C30.5132 55.4715 30.804 56.1136 31.2238 56.4708C31.6437 56.828 32.1914 56.9481 32.8667 56.8296C33.5893 56.7032 34.0773 56.4037 34.3308 55.9319C34.5837 55.4593 34.6275 54.7513 34.4622 53.8076L33.1191 46.1369L36.6601 45.5167Z" fill="#946704"/>
<path fill-rule="evenodd" clip-rule="evenodd" d="M46.88 50.3222C46.6693 49.1211 46.2766 48.2729 45.7 47.7764C45.1234 47.2798 44.3509 47.1169 43.3827 47.286L42.3519 47.4667L43.6369 54.8052L44.4256 54.6672C45.5011 54.4792 46.2358 54.0288 46.6282 53.3165C47.0208 52.6046 47.1049 51.6063 46.88 50.3222ZM50.5331 49.5533C50.9159 51.7392 50.6088 53.5294 49.6118 54.9233C48.6146 56.3167 47.0251 57.2047 44.8445 57.5861L40.6041 58.329L38.3104 45.2278L42.8463 44.4338C44.9499 44.0656 46.6682 44.3185 48.0009 45.1939C49.3331 46.0693 50.1777 47.5222 50.5331 49.5533Z" fill="#946704"/>
<path fill-rule="evenodd" clip-rule="evenodd" d="M52.9755 56.1629L50.6818 43.0617L54.2408 42.439L56.534 55.5402L52.9755 56.1629Z" fill="#946704"/>
<path fill-rule="evenodd" clip-rule="evenodd" d="M64.0471 54.2246L60.5065 54.8442L58.7196 44.6379L55.5192 45.1985L55.013 42.304L64.9447 40.565L65.4514 43.4599L62.2601 44.0184L64.0471 54.2246Z" fill="#946704"/>
<path fill-rule="evenodd" clip-rule="evenodd" d="M75.7907 52.1684L68.0103 53.5308L65.7162 40.4302L73.4971 39.0677L73.9943 41.9083L69.7543 42.6507L70.1151 44.712L74.0417 44.0244L74.5389 46.865L70.6127 47.552L71.0457 50.0255L75.2857 49.2832L75.7907 52.1684Z" fill="#946704"/>
<path fill-rule="evenodd" clip-rule="evenodd" d="M83.2593 43.953C83.0491 42.7518 82.6558 41.9037 82.0793 41.4072C81.5027 40.9106 80.7307 40.7476 79.7625 40.9173L78.7312 41.0975L80.0162 48.436L80.8049 48.298C81.8808 48.1099 82.6151 47.6601 83.0076 46.9478C83.4 46.2354 83.4842 45.2376 83.2593 43.953ZM86.9127 43.184C87.2961 45.3704 86.9884 47.1601 85.9914 48.5541C84.9943 49.948 83.4052 50.8354 81.2242 51.2173L76.9842 51.9597L74.6906 38.859L79.226 38.0651C81.3301 37.6968 83.0479 37.9498 84.381 38.8245C85.7132 39.7 86.5572 41.1529 86.9127 43.184Z" fill="#946704"/>
</svg>
