<svg width="165" height="49" viewBox="0 0 165 49" fill="none" xmlns="http://www.w3.org/2000/svg">
<path fill-rule="evenodd" clip-rule="evenodd" d="M89.304 25.5673C89.304 27.2202 89.2954 28.8732 89.3084 30.5262C89.317 31.8676 89.356 33.209 89.3863 34.5504C89.3906 34.7408 89.3646 34.9615 89.6243 35.0091C90.758 35.2038 91.8181 35.113 92.6879 34.2345C93.298 33.6158 93.7177 32.8845 94.0293 32.0882C94.8514 30.0026 95.0635 27.8217 94.9423 25.6062C94.8774 24.3513 94.6437 23.1138 94.1028 21.9628C93.7696 21.2488 93.3456 20.5998 92.6835 20.1454C91.6926 19.4617 90.6368 19.5439 89.5593 19.8988C89.3646 19.9637 89.304 20.0545 89.304 20.2536C89.3084 22.0191 89.304 23.7932 89.304 25.5673ZM89.4079 10.3271V18.6785C89.5464 18.6179 89.6026 18.6569 89.7108 18.6006C91.0652 17.8996 92.5191 17.5751 94.0206 17.7136C96.102 17.9083 97.6727 19.042 98.8108 20.7598C99.6762 22.0623 100.122 23.5119 100.26 25.0653C100.438 27.0645 100.247 29.0117 99.4771 30.8724C98.2785 33.7802 96.0717 35.4808 93.021 36.1125C91.433 36.4414 89.832 36.4111 88.2352 36.2034C87.028 36.0476 85.8337 35.801 84.6307 35.6279C84.25 35.5716 84.1634 35.4115 84.1677 35.0437C84.2283 30.5738 84.2802 26.1038 84.3105 21.6296C84.3235 19.7257 84.2802 17.8174 84.2326 15.9134C84.2153 15.3207 84.1418 14.7192 84.0206 14.1393C83.7999 13.0835 83.2807 12.6464 82.2032 12.5123C81.7965 12.4604 81.7056 12.3393 81.7662 11.9368C81.7835 11.833 81.909 11.6772 82.0085 11.6599C84.3408 11.2142 86.6515 10.7858 88.9882 10.3531C89.0877 10.3358 89.2997 10.3358 89.4079 10.3271Z" fill="#C1C1C1"/>
<path fill-rule="evenodd" clip-rule="evenodd" d="M52.8177 10.8248C52.8177 11.6469 52.809 12.3999 52.8177 13.1528C52.835 14.5894 52.8566 16.0303 52.8955 17.4669C52.9042 17.7482 52.8047 17.8564 52.5407 17.9343C51.7791 18.1463 51.7835 18.1593 51.5065 17.4107C51.0955 16.2943 50.6065 15.2168 49.819 14.3038C48.8886 13.222 47.7203 12.6119 46.2837 12.5902C44.9033 12.5686 43.5273 12.5816 42.1469 12.5773C42.0647 12.5773 41.9825 12.5902 41.8743 12.5989C41.8527 12.733 41.8181 12.8629 41.8181 12.9883C41.7618 15.3596 41.7056 17.7352 41.6493 20.1065C41.632 20.8594 41.6623 21.6166 41.632 22.3696C41.619 22.7201 41.671 22.7244 41.9955 22.6984C42.7225 22.6378 43.2936 22.6119 44.0249 22.6205C45.336 22.6422 46.3486 21.9974 46.8203 20.8551C47.0063 20.405 47.1318 19.9291 47.24 19.4531C47.2876 19.241 47.3611 19.1372 47.5645 19.1458C47.7895 19.1545 48.0621 19.1502 48.3088 19.1502V27.6227C48.0318 27.6227 47.7203 27.6443 47.465 27.6097C47.3828 27.6011 47.2789 27.4496 47.2573 27.35C47.0626 26.4933 46.8289 25.6539 46.2404 24.9701C45.8077 24.4639 45.2538 24.1956 44.5788 24.1653C43.7307 24.1307 42.8782 24.0874 42.0301 24.0312C41.7272 24.0095 41.619 24.1004 41.632 24.4336C41.7056 26.3592 41.7402 28.2761 41.7965 30.2017C41.8267 31.2099 41.909 32.2051 42.2421 33.1658C42.5667 34.1091 43.2374 34.5677 44.2499 34.6543C44.6048 34.6845 44.9336 34.7798 45.2884 34.8404C45.7601 34.9225 45.4962 35.3639 45.5394 35.6063C45.5827 35.8616 45.375 35.8442 45.2062 35.8442H32.9388C32.7787 35.8442 32.5494 35.8875 32.5926 35.6192C32.6273 35.3726 32.3373 34.9788 32.7874 34.875C33.1725 34.7884 33.51 34.7105 33.8994 34.65C34.7043 34.5245 35.2971 34.0571 35.5913 33.3388C35.9548 32.4518 36.076 31.5085 36.089 30.5651C36.1539 26.7919 36.2318 23.0143 36.2188 19.2367C36.2145 17.614 36.0154 15.9914 35.8769 14.373C35.8466 14.0225 35.7125 13.6764 35.5784 13.3475C35.2106 12.4474 34.4923 12.0191 33.5489 11.9368C33.298 11.9152 33.047 11.9022 32.8003 11.8546C32.7181 11.8373 32.61 11.7205 32.5926 11.6383C32.5624 11.4522 32.5277 11.119 32.5624 10.9373C32.5797 10.8464 32.6965 10.7469 32.7917 10.7036C32.8826 10.6647 33.034 10.8248 33.1422 10.8248H52.2465H52.8177Z" fill="#C1C1C1"/>
<path fill-rule="evenodd" clip-rule="evenodd" d="M55.825 26.74C55.7947 26.7443 55.7947 26.7962 55.7644 26.7962C55.8943 28.116 55.8856 29.3406 56.0717 30.6517C56.2534 31.9109 56.6169 33.1268 57.3871 34.1783C58.2223 35.325 59.7541 35.524 60.7926 34.6197C61.2729 34.1999 61.5758 33.659 61.7965 33.0706C62.4109 31.4565 62.4931 29.756 62.5667 28.0641C62.6359 26.4717 62.5624 24.8793 62.2854 23.3042C62.0691 22.0623 61.7445 20.8507 61.0003 19.8036C59.8795 18.2198 57.9194 18.2804 56.9328 19.9464C56.6861 20.3618 56.4957 20.8291 56.3573 21.2921C55.8423 23.0532 55.8293 24.9182 55.825 26.74ZM50.4075 27.3241C50.3945 24.7668 50.9051 22.7201 52.2119 20.92C53.6268 18.9728 55.5654 17.8953 57.9367 17.5967C59.4858 17.402 61.0219 17.4669 62.5061 17.9818C64.6394 18.7175 66.1842 20.1368 67.0236 22.2224C68.2958 25.3812 68.3521 28.5747 66.8549 31.6815C65.5308 34.4336 63.2504 35.9135 60.23 36.2683C58.7415 36.4414 57.266 36.3592 55.838 35.8702C53.4494 35.0567 51.9133 33.3908 51.0608 31.0498C50.5849 29.7343 50.3988 28.367 50.4075 27.3241Z" fill="#C1C1C1"/>
<path fill-rule="evenodd" clip-rule="evenodd" d="M112.571 24.6067C112.484 23.6287 112.45 22.7244 112.337 21.794C112.238 20.9719 112.03 20.1757 111.567 19.466C110.996 18.579 110.04 18.4016 109.183 19.0247C108.629 19.4228 108.296 19.9896 108.023 20.5954C107.482 21.7984 107.24 23.0229 107.128 24.3341C107.097 24.6888 107.175 24.7278 107.508 24.7192C108.884 24.6802 110.217 24.6802 111.597 24.6499C111.879 24.637 112.195 24.637 112.571 24.6067ZM117.11 32.4647C117.184 32.5123 117.21 32.521 117.223 32.5383C117.638 32.9969 117.647 33.0056 117.24 33.4729C116.011 34.8923 114.414 35.7663 112.593 36.1428C110.503 36.5755 108.465 36.3808 106.552 35.3985C104.15 34.1653 102.718 32.1575 102.147 29.5483C101.532 26.7486 101.835 24.0441 103.307 21.5474C104.67 19.2324 106.725 17.9213 109.395 17.5967C110.702 17.4366 112 17.4626 113.255 17.9213C115.314 18.6742 116.526 20.2146 117.218 22.2268C117.603 23.3474 117.716 24.5115 117.798 25.6798C117.82 25.9827 117.707 26.0649 117.413 26.0606C114.15 26.0519 110.892 26.0563 107.629 26.0563C107.076 26.0563 107.067 26.0563 107.084 26.6144C107.153 28.4102 107.482 30.0935 108.607 31.569C109.594 32.8628 110.927 33.5162 112.536 33.6763C114.22 33.8407 115.773 33.5335 117.11 32.4647Z" fill="#C1C1C1"/>
<path fill-rule="evenodd" clip-rule="evenodd" d="M130.823 23.2999C130.615 22.785 130.438 22.2787 130.213 21.7941C129.732 20.7469 129.148 19.7733 128.084 19.2064C127.353 18.8213 126.578 18.6655 125.76 18.8516C124.778 19.0723 124.068 19.9118 123.917 20.9157C123.748 22.0364 124.15 22.7893 125.042 23.434C126.033 24.1523 127.153 24.6024 128.27 25.0654C129.382 25.5284 130.468 26.052 131.32 26.939C132.108 27.7568 132.446 28.7521 132.489 29.8685C132.549 31.396 132.182 32.8672 131.165 34.0442C130.178 35.1909 128.889 35.8096 127.439 36.1169C125.803 36.4674 124.15 36.4154 122.515 36.1298C121.459 35.9481 120.425 35.6452 119.382 35.3986C119.174 35.351 119.066 35.2428 119.066 34.9961C119.049 33.4513 119.014 31.8849 118.967 30.3401C118.949 29.8598 119.321 29.8858 119.572 29.8079C119.633 29.7906 119.841 29.9983 119.892 30.1195C120.334 31.2532 120.81 32.3133 121.649 33.2134C122.766 34.4163 124.124 34.9356 125.73 34.5202C126.768 34.2519 127.413 33.5639 127.638 32.5124C127.876 31.4133 127.552 30.4786 126.617 29.8815C125.838 29.3838 124.977 28.9944 124.12 28.6353C123.129 28.2155 122.108 27.865 121.23 27.216C119.758 26.1342 119.226 24.6413 119.339 22.8802C119.486 20.5911 120.961 18.6396 123.22 17.8867C124.696 17.3934 126.201 17.3847 127.725 17.5102C128.863 17.6054 130.048 17.8174 131.126 18.2025C131.394 18.2977 131.489 18.4319 131.489 18.7218C131.494 19.9204 131.524 21.2056 131.545 22.3999C131.563 23.1182 131.558 23.1182 130.823 23.2999Z" fill="#C1C1C1"/>
<path fill-rule="evenodd" clip-rule="evenodd" d="M75.7125 17.5058V21.4348C75.7298 21.4435 75.7731 21.3872 75.7904 21.3959C75.9029 21.1795 75.9938 21.0238 76.1106 20.8117C76.8722 19.4184 77.8761 18.2717 79.4122 17.7092C80.4767 17.3197 81.5412 17.3197 82.5883 17.7914C82.7787 17.8779 82.9086 17.9558 82.8047 18.2198C82.2378 19.691 81.6926 21.1709 81.1388 22.6464C81.1214 22.6897 81.0955 22.7243 81.0652 22.7806C80.745 22.6205 80.4464 22.4474 80.1262 22.3219C78.9016 21.8373 77.6727 21.7464 76.4308 22.2786C75.9116 22.4993 75.6346 22.8109 75.639 23.4383C75.6606 25.4504 75.6217 27.4539 75.652 29.466C75.6736 30.7295 75.7039 31.9368 75.8597 33.1917C75.9938 34.2994 76.565 34.7364 77.6727 34.7927C78.0059 34.81 78.3608 34.8663 78.7502 34.9009C78.7502 35.1475 78.7935 35.4807 78.7719 35.7144C78.7675 35.7749 78.642 35.8096 78.5728 35.8355C78.4863 35.8658 78.3824 35.8485 78.2872 35.8485C75.0635 35.8485 71.8354 35.8485 68.6117 35.8442C68.4603 35.8442 68.1444 35.7966 68.1271 35.7274C68.0708 35.5023 68.1098 35.2081 68.1271 34.9744C68.1314 34.9398 68.2699 34.9485 68.3348 34.9355C68.5555 34.8879 68.7199 34.8013 68.9449 34.7711C69.6459 34.6802 70.1089 34.2691 70.2517 33.6114C70.4118 32.8455 70.5676 32.0926 70.5893 31.3137C70.6455 29.1328 70.6714 26.9519 70.6585 24.7711C70.6542 23.7196 70.5762 22.6637 70.4551 21.6209C70.3036 20.3357 69.8449 19.9247 68.5295 19.7949C68.1833 19.7602 68.0925 19.6174 68.1012 19.3145C68.1054 19.0982 68.205 19.0203 68.391 18.9814C69.7368 18.7131 71.1085 18.4405 72.4499 18.1722C73.4668 17.9688 74.4836 17.7568 75.5005 17.5534C75.5654 17.5361 75.6346 17.5101 75.7125 17.5058Z" fill="#C1C1C1"/>
</svg>
