<svg width="239" height="256" viewBox="0 0 239 256" fill="none" xmlns="http://www.w3.org/2000/svg">
<g clip-path="url(#clip0)">
<path d="M33.7558 171.67L33.7344 282.989H203.443L203.379 171.67H33.7558Z" fill="#F5BE38"/>
<path fill-rule="evenodd" clip-rule="evenodd" d="M33.7367 191.795C47.9691 196.708 79.8342 200.704 117.486 201.673C156.173 202.668 189.268 200.194 203.441 195.816V169.603H33.7324L33.7367 191.795Z" fill="#D9A123"/>
<path fill-rule="evenodd" clip-rule="evenodd" d="M118.811 171.318C67.6535 171.297 26.2896 176.103 26.3497 183.357C26.3968 190.594 67.7349 196.477 118.76 196.503C169.802 196.52 211.23 190.68 211.312 183.443C211.393 176.189 169.987 171.344 118.811 171.318Z" fill="#F5BE38"/>
<path fill-rule="evenodd" clip-rule="evenodd" d="M26.3496 150.893V183.366L211.316 183.447V150.97L26.3496 150.893Z" fill="#F5BE38"/>
<path fill-rule="evenodd" clip-rule="evenodd" d="M118.854 137.246C170.004 137.267 211.398 143.42 211.316 150.987C211.222 158.533 169.811 164.625 118.803 164.6C67.8035 164.578 26.4097 158.451 26.3496 150.901C26.3068 143.338 67.722 137.224 118.854 137.246Z" fill="#FFDB65"/>
<path fill-rule="evenodd" clip-rule="evenodd" d="M118.7 140.757C159.506 140.779 192.538 145.019 192.491 150.228C192.448 155.429 159.391 159.63 118.662 159.609C77.9324 159.596 44.892 155.364 44.8662 150.159C44.8448 144.955 77.8981 140.74 118.7 140.757Z" fill="#3B2812"/>
<path fill-rule="evenodd" clip-rule="evenodd" d="M139.974 21.112C138.34 21.4978 137.675 23.2085 138.018 23.9331C138.49 24.9278 140.274 27.2044 142.825 30.0298C144.991 32.4222 146.985 34.8275 147.701 35.5006C148.207 35.9765 148.876 35.7664 149.485 35.4406C154.567 32.7352 157.272 27.5946 154.597 23.4315C151.346 18.368 143.246 20.3402 139.974 21.112Z" fill="#996D35"/>
<path fill-rule="evenodd" clip-rule="evenodd" d="M154.035 62.6057C156.106 65.1567 159.953 70.396 160.51 71.4678C159.781 71.0005 159.022 70.7733 158.654 70.9062C160.335 72.5911 160.909 74.5376 161.098 74.9278C159.507 73.7102 157.461 73.2085 157.461 73.2085L154.601 67.4934L154.035 62.6057Z" fill="#B37F3E"/>
<path fill-rule="evenodd" clip-rule="evenodd" d="M56.1572 125.082C57.8768 127.882 61.5346 133.254 62.3579 134.137C62.1607 133.297 62.1993 132.504 62.4437 132.199C63.4772 134.343 65.1152 135.535 65.4197 135.844C64.7979 133.94 65.008 131.844 65.008 131.844L60.5698 127.243L56.1572 125.082Z" fill="#B37F3E"/>
<path fill-rule="evenodd" clip-rule="evenodd" d="M93.8459 67.5535C91.2687 68.4924 84.2704 71.515 83.4127 72.0381C84.1332 72.0167 84.7764 72.1839 84.9822 72.4326C83.0568 72.917 81.809 74.0618 81.5088 74.2633C83.1683 74.0746 84.8493 74.5977 84.8493 74.5977L90.6898 72.797L93.8459 67.5535Z" fill="#B37F3E"/>
<path d="M169.095 160.467C168.859 157.448 169.121 158.198 169.001 154.991C168.482 140.761 169.781 130.609 166.685 119.714C161.539 101.591 163.01 94.6844 159.318 79.1339C157.603 71.901 158.923 65.9543 155.373 54.8798C152.174 44.903 150.733 30.673 145.094 22.8827C139.112 14.6122 124.717 8.89707 117.727 9.63451C105.823 10.8864 100.6 12.3442 98.0827 17.3004C94.2791 24.7906 92.4437 31.1917 90.6599 44.2856C88.8888 57.2636 87.3022 60.7665 85.1024 70.5761C82.9025 80.3858 81.0629 99.0962 78.3228 109.343C75.7927 118.806 74.7807 134.39 74.339 142.631C74.1804 145.611 73.8073 152.861 73.5586 160.621L121.325 162.902L169.095 160.467Z" fill="#B37F3E"/>
<path fill-rule="evenodd" clip-rule="evenodd" d="M123.275 16.4644C123.344 16.8888 124.609 16.8288 124.407 15.9284C124.197 14.9895 123.404 14.1063 122.088 13.8233C120.775 13.536 119.154 13.5146 118.931 14.5136C118.708 15.5125 118.859 15.5726 119.33 15.1481C120.029 14.5179 121.037 14.5007 121.65 14.6936C122.246 14.8866 123.1 15.3839 123.275 16.4644Z" fill="#996D35"/>
<path fill-rule="evenodd" clip-rule="evenodd" d="M121.307 14.6292C122.494 14.8479 123.331 15.8083 123.223 16.7772C123.112 17.7462 122.147 18.2264 120.959 18.0892C119.72 17.9434 118.785 17.0087 118.897 15.9626C119.004 14.9079 120.067 14.402 121.307 14.6292Z" fill="black"/>
<path fill-rule="evenodd" clip-rule="evenodd" d="M121.667 15.4911C121.556 15.6712 121.659 15.9284 121.89 16.0613C122.122 16.1942 122.392 16.1556 122.503 15.9756C122.611 15.7955 122.516 15.5425 122.289 15.4096C122.057 15.2724 121.779 15.311 121.667 15.4911Z" fill="#CBCBCA"/>
<path d="M117.14 19.5212C119.048 22.9169 117.959 31.7747 113.928 41.6873C111.466 47.7369 109.584 50.215 105.797 49.9406C100.879 49.5848 99.2408 48.4915 101.681 38.1802C102.333 33.6526 104.215 21.7421 109.262 22.3209C114.52 22.9255 116.702 13.6003 117.14 19.5212Z" fill="#996D35"/>
<path d="M99.2225 41.4043C99.081 42.8106 99.4798 45.01 101.414 45.4388C103.176 45.8289 105.646 46.6864 107.722 44.9972C110.012 43.1279 112.73 42.2146 115.239 38.1802C117.717 34.1928 118.837 29.7253 118.901 26.8742C119.004 21.9865 118.742 17.2232 117.353 14.4706C116.028 11.8424 111.152 6.9076 108.618 6.58605C106.084 6.26449 103.528 5.93436 102.533 6.29879C101.542 6.66751 100.775 6.50887 99.5784 7.94516C98.4635 9.28713 98.322 10.7491 97.8674 12.1769C97.2628 14.0805 96.5124 17.0174 97.0141 18.8052C97.7388 21.3691 99.3254 23.3885 100.445 25.3993C101.765 27.7788 102.554 30.0555 102.198 31.8948C101.367 36.2465 99.6942 36.7782 99.2225 41.4043Z" fill="#EABE8B"/>
<path d="M100.21 15.6626C103.632 14.8866 105.982 14.1234 108.692 16.6144C110.879 18.6252 115.956 25.871 114.657 31.8734C113.91 35.3248 113.319 37.4471 110.188 40.6884C106.11 44.9072 103.82 44.4871 101.826 43.9726C99.9481 43.4924 99.5321 41.5287 100.763 38.2317C101.856 35.3034 102.525 34 102.881 31.419C103.156 29.4424 101.878 26.5527 100.746 24.3876C99.828 22.6297 98.6445 21.5707 98.2885 20.3745C97.5939 18.0336 97.8168 16.2028 100.21 15.6626Z" fill="black"/>
<path d="M99.8701 17.8534C100.389 17.3904 101.512 16.9445 103.189 16.9016C106.307 16.8201 109.664 17.7634 109.887 19.3326C110.132 21.0433 108.712 23.5643 108.039 23.4099C107.229 23.2213 107.683 19.6327 106.675 19.1054C105.668 18.578 104.883 18.4794 103.043 18.5308C101.517 18.5737 101.062 19.0282 101.019 19.324C100.861 20.4044 100.445 21.4806 100.329 21.8836C100.157 22.4967 99.72 22.8869 99.2869 20.4902C98.9267 18.7881 99.2912 18.3379 99.8701 17.8534Z" fill="#F2F2F2"/>
<path d="M103.361 5.6557C99.4888 6.21736 99.3387 7.98807 99.7032 8.75981C100.038 9.47581 101.028 10.2947 101.603 10.5562C102.285 10.8692 102.859 10.7363 103.618 10.5477C105.848 9.9903 106.791 8.76409 108.876 7.47358C110.153 6.68469 107.289 5.08547 103.361 5.6557Z" fill="black"/>
<path d="M110.051 31.8306C110.051 31.8306 108.13 31.1146 106.32 32.5381C105.003 33.5713 104.416 35.7494 105.582 36.1738C107.006 36.6969 107.787 35.4321 109.326 34.9219C110.501 34.536 112.636 34.2788 113.172 33.3784C113.764 32.3794 111.8 31.1747 110.051 31.8306Z" fill="#630716"/>
<path d="M101.594 40.4484C102.027 40.8128 103.125 41.3401 104.45 41.4559C106.719 41.6574 109.227 41.3016 109.446 39.6552C109.656 37.6315 109.193 36.4439 108.653 36.5382C108.087 36.6325 107.778 39.0978 107.229 39.4365C106.929 39.6252 105.741 40.0368 104.484 39.8481C103.451 39.6938 102.752 39.2136 102.675 39.0335C102.349 38.266 102.392 37.4514 102.302 37.1384C102.169 36.6625 101.89 36.0065 101.547 37.7044C101.2 39.4108 101.157 40.0839 101.594 40.4484Z" fill="#F2F2F2"/>
<path d="M153.101 124.139C153.101 124.139 153.993 147.862 159.82 152.436C166.694 157.834 169.095 156.775 169.095 156.775L168.8 139.595L153.101 124.139Z" fill="#996D35"/>
<path d="M87.362 72.3813C87.362 72.3813 70.2736 84.3175 68.7384 82.9455C67.2033 81.5735 49.4845 66.5975 46.3155 62.7645C43.8026 59.729 36.5427 54.7556 30.6079 57.8511C24.6731 60.9467 19.6344 70.5677 26.8429 79.0997C33.035 86.4398 36.963 87.3873 38.6311 90.8001C40.2863 94.1872 51.68 123.903 60.5137 130.51C66.813 135.222 83.4855 134.193 88.3612 133.962C95.1365 133.64 102.049 119.191 101.221 102.29C100.394 85.3894 95.6725 71.348 87.362 72.3813Z" fill="#B37F3E"/>
<path d="M155.342 72.7669C157.027 71.082 166.985 83.5756 169.759 82.8853C172.533 82.1907 179.502 74.0832 178.949 71.0348C178.395 67.9865 174.909 63.4804 175.025 56.136C175.081 52.6289 181.264 48.2342 186.53 49.8978C191.796 51.5613 199.279 56.7877 200.664 62.6057C202.049 68.4281 201.14 84.4116 201.14 91.6188C201.14 98.826 199.729 118.209 194.626 125.94C187.757 136.345 170.728 144.14 167.542 145.388C164.356 146.635 154.789 147.188 152.435 137.349C150.076 127.513 146.195 81.9163 155.342 72.7669Z" fill="#B37F3E"/>
<path d="M44.6136 67.6607C45.8228 69.6843 41.8948 74.6664 39.8537 76.1112C37.8125 77.5561 35.2439 79.9828 32.8596 78.9409C30.4754 77.8991 26.303 77.4575 27.255 71.8881C27.9368 67.905 28.9188 66.8503 32.6024 64.668C36.2859 62.4857 41.2688 62.0698 44.6136 67.6607Z" fill="#996D35"/>
<path d="M40.0075 58.6055C40.0075 58.6055 38.0392 54.198 35.908 53.2719C34.51 52.6631 33.5237 52.8432 33.8968 53.3105C34.2699 53.7778 35.3805 53.7864 36.2725 56.2388C36.5598 57.032 36.444 58.8842 37.3874 59.5959C38.3265 60.3119 40.4492 60.3891 40.0075 58.6055Z" fill="#030304"/>
<path d="M34.7885 58.2154C34.7885 58.2154 33.2833 54.8026 31.1521 53.8722C29.7542 53.2634 28.7679 53.4435 29.141 53.9108C29.514 54.3782 30.6247 54.3867 31.5166 56.8392C31.8039 57.6323 31.9626 60.0076 32.9017 60.7193C33.8408 61.431 35.2302 59.9947 34.7885 58.2154Z" fill="#030304"/>
<path d="M31.2897 60.6037C31.2897 60.6037 28.7511 56.6078 26.4998 56.0161C25.0247 55.6302 24.0813 55.9604 24.5187 56.3634C24.9561 56.7664 26.0582 56.6078 27.3146 58.893C27.722 59.6304 28.2408 61.9542 29.2786 62.5159C30.3206 63.0732 32.0016 62.2929 31.2897 60.6037Z" fill="#030304"/>
<path d="M26.6076 62.7986C26.6076 62.7986 24.4978 60.1575 22.2079 59.7502C20.7071 59.4844 19.7894 59.8874 20.2611 60.2518C20.7328 60.6206 21.8134 60.3719 23.2542 62.5456C23.7174 63.2488 24.3692 65.1352 25.4498 65.6111C26.5304 66.0871 27.4481 64.4278 26.6076 62.7986Z" fill="#030304"/>
<path d="M24.8016 67.8235C24.8016 67.8235 22.8162 65.2082 20.5092 64.9038C18.9954 64.7066 18.0992 65.1482 18.5881 65.4955C19.0726 65.8427 20.1447 65.5426 21.6798 67.652C22.1773 68.3337 23.0949 70.3488 24.197 70.7733C25.2991 71.1978 25.7193 69.4142 24.8016 67.8235Z" fill="#030304"/>
<path d="M194.069 71.1764C192.152 72.1968 186.556 70.8806 185.206 69.8645C183.855 68.8483 180.78 65.8386 180.094 64.5995C179.408 63.3604 176.406 59.1845 179.742 57.7825C182.658 56.5563 186.02 56.2347 188.713 58.9229C191.411 61.6111 193.349 62.996 194.588 64.921C195.75 66.7089 196.106 70.0917 194.069 71.1764Z" fill="#996D35"/>
<path d="M180.449 52.7961C181.11 52.3802 181.629 51.6171 181.071 49.8849C180.518 48.1528 178.37 46.455 176.912 46.3864C175.458 46.3178 175.788 46.9609 176.98 47.6683C177.915 48.2214 178.58 48.6244 178.125 50.3351C177.709 51.8957 177.362 52.6932 178.473 52.9676C179.583 53.2463 179.793 53.212 180.449 52.7961Z" fill="#030304"/>
<path d="M185.523 52.779C186.218 52.4274 186.625 51.7286 186.239 49.9493C185.854 48.17 185.026 46.3822 183.812 45.7219C182.53 45.0273 182.775 45.7905 183.431 46.9352C183.975 47.8785 184.065 48.4487 183.448 50.1079C182.886 51.6214 182.462 52.3803 183.542 52.7619C184.623 53.1434 184.829 53.1263 185.523 52.779Z" fill="#030304"/>
<path d="M189.944 54.1467C190.639 53.7951 191.046 53.0963 190.66 51.317C190.274 49.5377 189.447 47.7498 188.233 47.0896C186.951 46.395 187.195 47.1582 187.852 48.3029C188.396 49.2462 188.486 49.8164 187.869 51.4756C187.307 52.9891 186.882 53.748 187.963 54.1295C189.044 54.5111 189.245 54.4983 189.944 54.1467Z" fill="#030304"/>
<path d="M194.004 57.6925C194.866 57.4738 195.471 56.8221 195.381 54.8328C195.291 52.8477 194.703 50.7425 193.451 49.765C192.126 48.7317 192.25 49.6021 192.773 50.9741C193.206 52.1059 193.198 52.7362 192.164 54.3654C191.221 55.8532 190.591 56.5692 191.744 57.2209C192.898 57.8725 193.142 57.9068 194.004 57.6925Z" fill="#030304"/>
<path d="M197.324 64.0079C198.263 64.0036 198.997 63.0132 199.318 61.0067C199.64 59.0001 198.838 55.3815 197.74 54.0953C196.587 52.7362 196.981 54.9657 197.238 56.4663C197.453 57.701 197.521 58.8587 196.111 60.2349C194.824 61.4911 195.034 61.504 195.334 62.4601C195.737 63.7335 196.385 64.0122 197.324 64.0079Z" fill="#030304"/>
<path fill-rule="evenodd" clip-rule="evenodd" d="M192.256 150.979C189.228 155.828 157.419 159.631 118.666 159.609C79.9139 159.596 48.1256 155.763 45.1067 150.91L26.3545 150.901C26.4145 158.452 67.8084 164.578 118.808 164.6C169.811 164.621 211.227 158.533 211.321 150.987L192.256 150.979Z" fill="#FFDB65"/>
</g>
<defs>
<clipPath id="clip0">
<rect width="192.861" height="298.954" fill="white" transform="translate(18.4551 5.53564)"/>
</clipPath>
</defs>
</svg>
