<svg width="598" height="567" viewBox="0 0 598 567" fill="none" xmlns="http://www.w3.org/2000/svg">
<path fill-rule="evenodd" clip-rule="evenodd" d="M167.865 475.235C233.053 475.252 285.839 495.806 285.769 521.147C285.696 546.489 232.794 567.017 167.605 567C102.418 566.984 49.6323 546.429 49.704 521.088C49.7745 495.747 102.678 475.218 167.865 475.235" fill="#F2F2F2"/>
<mask id="mask0" mask-type="alpha" maskUnits="userSpaceOnUse" x="179" y="398" width="419" height="131">
<path fill-rule="evenodd" clip-rule="evenodd" d="M179.673 398.445H597.333V528.774H179.673V398.445Z" fill="white"/>
</mask>
<g mask="url(#mask0)">
<path fill-rule="evenodd" clip-rule="evenodd" d="M439.076 398.446C526.575 398.467 597.429 426.058 597.334 460.07C597.238 494.087 525.335 509.155 438.73 521.619C265.274 546.581 179.576 500.868 179.673 466.853C179.768 432.84 351.577 398.423 439.076 398.446" fill="#F2F2F2"/>
</g>
<path fill-rule="evenodd" clip-rule="evenodd" d="M101.531 439.919C157.543 439.931 202.901 455.299 202.839 474.245C202.777 493.192 157.32 508.541 101.308 508.528C45.2952 508.516 -0.0611783 493.148 0.000505347 474.2C0.0609301 455.255 45.518 439.906 101.531 439.919" fill="#F2F2F2"/>
<path fill-rule="evenodd" clip-rule="evenodd" d="M125.162 448.073C125.135 449.202 126.619 450.105 128.479 450.088C130.337 450.071 131.866 449.142 131.893 448.011C131.919 446.882 130.434 445.979 128.576 445.997C126.716 446.013 125.188 446.944 125.162 448.073" fill="#ABABAB"/>
<path fill-rule="evenodd" clip-rule="evenodd" d="M125.096 425.916C125.147 426.971 126.691 427.737 128.544 427.625C130.398 427.515 131.861 426.568 131.809 425.514C131.759 424.459 130.214 423.692 128.361 423.804C126.507 423.915 125.045 424.861 125.096 425.916" fill="#ABABAB"/>
<path fill-rule="evenodd" clip-rule="evenodd" d="M131.893 448.011L131.494 439.306L124.762 439.368L125.162 448.073L131.893 448.011Z" fill="#ABABAB"/>
<path fill-rule="evenodd" clip-rule="evenodd" d="M187.113 484.051C187.166 485.249 188.804 486.118 190.771 485.988C192.742 485.86 194.294 484.782 194.242 483.584C194.191 482.385 192.552 481.518 190.584 481.647C188.615 481.775 187.062 482.852 187.113 484.051" fill="#ABABAB"/>
<path fill-rule="evenodd" clip-rule="evenodd" d="M194.242 483.584L193.2 474.383L186.072 474.851L187.113 484.051L194.242 483.584Z" fill="#ABABAB"/>
<path fill-rule="evenodd" clip-rule="evenodd" d="M54.8541 462.282C54.8478 463.455 53.1761 464.505 51.1229 464.627C49.0697 464.751 47.4105 463.9 47.4168 462.727C47.4244 461.555 49.0936 460.504 51.1481 460.381C53.2025 460.259 54.8604 461.108 54.8541 462.282" fill="#ABABAB"/>
<path fill-rule="evenodd" clip-rule="evenodd" d="M55.5763 453.2C55.57 454.372 53.8983 455.424 51.8451 455.546C49.7919 455.67 48.1327 454.819 48.139 453.646C48.1466 452.474 49.8171 451.423 51.8703 451.3C53.9247 451.177 55.5826 452.027 55.5763 453.2" fill="#ABABAB"/>
<path fill-rule="evenodd" clip-rule="evenodd" d="M104.762 504.283C104.829 505.679 102.895 506.931 100.443 507.078C97.9905 507.225 95.9474 506.212 95.8807 504.817C95.8139 503.42 97.7475 502.17 100.2 502.022C102.652 501.875 104.695 502.889 104.762 504.283" fill="#ABABAB"/>
<path fill-rule="evenodd" clip-rule="evenodd" d="M47.4172 462.728L48.1398 453.647L55.5758 453.201L54.8545 462.282L47.4172 462.728Z" fill="#ABABAB"/>
<path fill-rule="evenodd" clip-rule="evenodd" d="M105.045 493.474C105.112 494.869 103.178 496.121 100.725 496.267C98.2726 496.414 96.2307 495.402 96.1628 494.006C96.0961 492.61 98.0296 491.359 100.483 491.212C102.935 491.066 104.978 492.078 105.045 493.474" fill="#ABABAB"/>
<path fill-rule="evenodd" clip-rule="evenodd" d="M95.8804 504.817L96.1637 494.006L105.045 493.474L104.762 504.283L95.8804 504.817Z" fill="#ABABAB"/>
<path fill-rule="evenodd" clip-rule="evenodd" d="M119.867 319.667L124.764 443.919L131.692 443.466L136.108 317.698L119.867 319.667Z" fill="#BDBDBD"/>
<path fill-rule="evenodd" clip-rule="evenodd" d="M109.113 425.335L180.875 409.94L180.674 405.742L108.919 421.299L109.113 425.335Z" fill="#CFCFCF"/>
<path fill-rule="evenodd" clip-rule="evenodd" d="M55.4842 400.878L127.336 386.564L127.597 383.953L55.3432 397.943L55.4842 400.878Z" fill="#BDBDBD"/>
<path fill-rule="evenodd" clip-rule="evenodd" d="M101.014 425.173L53.3599 401.67L55.1814 398.306L102.709 421.336L101.014 425.173Z" fill="#CFCFCF"/>
<path fill-rule="evenodd" clip-rule="evenodd" d="M123.018 334.856L105.914 498.117L94.6067 498.022L93.6047 324.627L123.018 334.856Z" fill="#D9D9D9"/>
<path fill-rule="evenodd" clip-rule="evenodd" d="M179.098 406.748L127.363 386.252L127.625 383.64L180.857 404.257L179.098 406.748Z" fill="#BDBDBD"/>
<path fill-rule="evenodd" clip-rule="evenodd" d="M65.3859 318.295L55.5518 457.161L50.5667 458.829L47.2648 457.596L50.1362 310.981L65.3859 318.295Z" fill="#D9D9D9"/>
<path fill-rule="evenodd" clip-rule="evenodd" d="M169.312 324.218L185.038 481.336L194.34 478.58L191.951 319.136L169.312 324.218Z" fill="#D9D9D9"/>
<path fill-rule="evenodd" clip-rule="evenodd" d="M185.647 323.935L118.151 336.668C112.009 338.148 103.941 337.149 100.222 334.446L52.0172 313.736C48.2973 311.033 50.2787 307.61 56.4194 306.13L124.371 293.396C130.513 291.916 138.579 292.916 142.299 295.62L190.05 316.329C193.769 319.03 191.789 322.453 185.647 323.935" fill="#D4D4D4"/>
<path fill-rule="evenodd" clip-rule="evenodd" d="M50.1358 310.981C50.1358 310.981 50.1623 302.048 50.1081 300.908C50.054 299.767 50.2655 295.427 56.7599 292.952C63.2543 290.477 66.3284 304.785 66.3284 304.785L50.1358 310.981Z" fill="#D4D4D4"/>
<path fill-rule="evenodd" clip-rule="evenodd" d="M191.951 319.135C191.951 319.135 191.683 311.589 191.534 310.442C190.911 305.658 188.639 301.991 181.858 300.285C175.08 298.582 175.863 312.383 175.863 312.383L191.951 319.135Z" fill="#D4D4D4"/>
<path fill-rule="evenodd" clip-rule="evenodd" d="M181.927 309.009L117.793 320.932C112.39 321.899 105.005 320.734 100.745 318.82L54.575 299.589C51.0389 297.02 52.9222 293.765 58.7632 292.356L123.351 280.433C129.191 279.026 136.864 279.978 140.4 282.547L186.113 301.777C189.651 304.347 187.766 307.602 181.927 309.009" fill="#E8E8E8"/>
<path fill-rule="evenodd" clip-rule="evenodd" d="M160.934 442.311C162.433 442.91 166.75 445.678 172.335 445.133C177.922 444.588 179.81 443.288 180.904 440.74C181.308 439.801 181.303 435.516 181.303 435.516L180.553 434.717L142.649 406.995L138.705 401.95L137.663 402.02L136.977 405.69L142.654 414.272L144.103 415.773C144.103 415.773 146.433 424.985 147.371 426.749C148.309 428.513 151.653 434.857 153.542 436.733C155.736 438.914 158.802 441.459 160.934 442.311" fill="#C4C4C4"/>
<path fill-rule="evenodd" clip-rule="evenodd" d="M171.726 404.408C171.726 404.408 172.177 409.998 172.911 411.486C173.646 412.974 175.095 417.567 176.228 419.416C177.359 421.266 180.324 425.692 180.65 428.626C180.977 431.559 181.13 433.835 180.201 436.351C179.272 438.866 176.598 440.155 171.459 440.109C166.322 440.062 161.29 437.765 157.618 433.905C155.019 431.173 151.129 428.31 149.207 421.742C147.284 415.173 144.471 411.406 142.224 408.086C139.977 404.767 137.615 402.022 138.01 400.293C138.404 398.562 139.705 392.772 139.705 392.772L171.726 404.408Z" fill="#363636"/>
<path fill-rule="evenodd" clip-rule="evenodd" d="M165.42 425.16C166.443 425.016 171.174 423.578 172.945 423.432C174.715 423.285 175.874 423.779 176.495 423.351C177.115 422.922 176.506 422.07 175.149 421.931C173.792 421.792 170.994 421.978 169.236 422.408C167.479 422.84 166.15 423.272 165.451 423.559C164.965 423.758 164.396 425.305 165.42 425.16" fill="#737373"/>
<path fill-rule="evenodd" clip-rule="evenodd" d="M163.902 421.569C164.925 421.425 169.657 419.987 171.427 419.841C173.197 419.694 174.358 420.188 174.977 419.76C175.597 419.331 174.99 418.479 173.632 418.34C172.275 418.201 169.476 418.387 167.719 418.818C165.963 419.249 164.632 419.681 163.933 419.968C163.448 420.167 162.879 421.714 163.902 421.569" fill="#737373"/>
<path fill-rule="evenodd" clip-rule="evenodd" d="M162.369 418.405C163.392 418.26 168.124 416.824 169.894 416.677C171.664 416.531 172.825 417.025 173.444 416.596C174.064 416.168 173.457 415.315 172.099 415.177C170.742 415.038 167.943 415.223 166.186 415.654C164.428 416.086 163.099 416.517 162.4 416.804C161.915 417.004 161.346 418.55 162.369 418.405" fill="#737373"/>
<path fill-rule="evenodd" clip-rule="evenodd" d="M161.115 415.134C162.138 414.989 166.87 413.553 168.64 413.405C170.41 413.259 171.571 413.754 172.19 413.325C172.81 412.897 172.195 412.124 170.845 411.906C169.719 411.722 167.04 411.885 164.932 412.383C163.171 412.8 161.845 413.246 161.146 413.533C160.661 413.733 160.092 415.279 161.115 415.134" fill="#737373"/>
<path fill-rule="evenodd" clip-rule="evenodd" d="M160.094 412.289C161.118 412.144 165.85 410.708 167.619 410.561C169.389 410.415 170.55 410.909 171.169 410.48C171.79 410.052 171.182 409.2 169.824 409.061C168.467 408.922 165.668 409.108 163.911 409.538C162.155 409.97 160.824 410.401 160.127 410.688C159.64 410.888 159.071 412.434 160.094 412.289" fill="#737373"/>
<path fill-rule="evenodd" clip-rule="evenodd" d="M64.3237 153.416C65.0312 152.56 71.1907 140.394 74.2535 137.188C77.3175 133.982 87.7194 121.47 89.8859 118.231C92.0511 114.993 96.3841 106.945 96.5981 106.711C96.8108 106.477 128.893 81.3757 128.893 81.3757C128.893 81.3757 134.507 86.4199 135.476 92.8011C136.446 99.1809 139.282 113.434 138.401 120.199C137.52 126.965 136.893 140.394 133.925 145.688C130.958 150.981 118.209 158.532 112.793 159.382C107.379 160.231 78.453 156.793 72.3249 159.992C66.1981 163.191 64.3237 153.416 64.3237 153.416" fill="#30251F"/>
<path fill-rule="evenodd" clip-rule="evenodd" d="M149.196 261.522C149.196 261.522 147.426 253.435 145.771 252.117C144.115 250.799 109.632 254.792 95.0352 253.678C80.4376 252.564 67.6729 247.976 65.957 249.65C64.2425 251.323 63.423 255.149 62.0634 260.192C60.7039 265.236 60.1021 295.151 77.7462 297.519C95.389 299.887 135.342 289.263 140.507 284.64C145.672 280.016 152.621 270.927 149.196 261.522" fill="#7BB8C7"/>
<path fill-rule="evenodd" clip-rule="evenodd" d="M138.772 445.837C140.271 446.437 144.586 449.205 150.173 448.659C155.759 448.115 157.648 446.814 158.742 444.267C159.146 443.327 159.141 439.041 159.141 439.041L158.391 438.245L120.487 410.522L116.392 403.775L115.501 405.547L114.815 409.217L120.492 417.798L121.941 419.3C121.941 419.3 124.271 428.512 125.209 430.276C126.147 432.038 129.491 438.383 131.378 440.26C133.573 442.442 136.639 444.984 138.772 445.837" fill="#CCCCCC"/>
<path fill-rule="evenodd" clip-rule="evenodd" d="M149.564 407.935C149.564 407.935 150.014 413.525 150.749 415.013C151.484 416.501 152.934 421.093 154.066 422.943C155.198 424.793 158.162 429.219 158.488 432.152C158.815 435.086 158.968 437.362 158.039 439.877C157.11 442.393 154.436 443.682 149.297 443.636C144.16 443.589 139.128 441.292 135.456 437.432C132.857 434.699 128.967 431.836 127.045 425.269C125.122 418.7 122.309 414.933 120.062 411.613C117.815 408.292 115.452 405.549 115.847 403.818C116.242 402.089 117.543 396.299 117.543 396.299L149.564 407.935Z" fill="#454545"/>
<path fill-rule="evenodd" clip-rule="evenodd" d="M140.206 421.932C141.23 421.787 145.962 420.351 147.732 420.204C149.502 420.056 150.662 420.551 151.282 420.123C151.902 419.695 151.294 418.842 149.936 418.703C148.579 418.563 145.781 418.75 144.023 419.18C142.267 419.613 140.937 420.044 140.239 420.331C139.752 420.531 139.183 422.077 140.206 421.932" fill="#737373"/>
<path fill-rule="evenodd" clip-rule="evenodd" d="M143.257 428.686C144.28 428.541 149.012 427.105 150.782 426.958C152.552 426.812 153.713 427.306 154.332 426.877C154.953 426.449 154.345 425.597 152.987 425.458C151.63 425.319 148.831 425.505 147.074 425.935C145.318 426.367 143.987 426.798 143.29 427.085C142.803 427.285 142.234 428.831 143.257 428.686" fill="#737373"/>
<path fill-rule="evenodd" clip-rule="evenodd" d="M141.739 425.095C142.763 424.95 147.495 423.514 149.265 423.367C151.035 423.221 152.195 423.716 152.815 423.286C153.435 422.858 152.827 422.006 151.469 421.868C150.113 421.728 147.313 421.914 145.557 422.345C143.8 422.776 142.469 423.207 141.772 423.494C141.285 423.694 140.716 425.24 141.739 425.095" fill="#737373"/>
<path fill-rule="evenodd" clip-rule="evenodd" d="M138.953 418.661C139.977 418.516 144.707 417.08 146.478 416.932C148.248 416.785 149.409 417.28 150.028 416.852C150.649 416.424 150.032 415.651 148.683 415.432C147.556 415.249 144.878 415.412 142.77 415.909C141.009 416.327 139.683 416.772 138.985 417.059C138.499 417.26 137.93 418.805 138.953 418.661" fill="#737373"/>
<path fill-rule="evenodd" clip-rule="evenodd" d="M137.932 415.816C138.955 415.671 143.687 414.235 145.457 414.088C147.227 413.94 148.388 414.435 149.007 414.007C149.628 413.579 149.019 412.726 147.662 412.587C146.305 412.447 143.506 412.634 141.749 413.064C139.993 413.497 138.662 413.928 137.963 414.215C137.478 414.415 136.909 415.961 137.932 415.816" fill="#737373"/>
<path fill-rule="evenodd" clip-rule="evenodd" d="M147.627 309.215C146.388 308.275 117.038 294.098 115.59 292.97C114.143 291.842 115.479 282.017 118.195 276.113C120.908 270.209 143.462 258.202 148.47 258.766C153.478 259.33 153.879 263.695 159.705 269.003C165.531 274.31 180.571 293.537 181.676 295.876C182.781 298.216 184.394 302.923 184.677 304.703C184.958 306.483 185.305 309.655 184.232 312.295C183.16 314.935 184.264 317.274 184.195 320.067C184.126 322.861 178.349 348.632 177.295 351.671C176.24 354.708 179.085 377.97 179.253 381.549C179.419 385.128 179.23 398.865 178.356 401.496C177.483 404.127 168.846 405.659 164.473 405.863C160.098 406.067 151.752 402.27 148.47 400.231C148.47 400.231 145.083 365.918 145.24 360.731C145.397 355.543 147.627 309.215 147.627 309.215" fill="#78B2C2"/>
<mask id="mask1" mask-type="alpha" maskUnits="userSpaceOnUse" x="114" y="258" width="71" height="148">
<path fill-rule="evenodd" clip-rule="evenodd" d="M118.195 276.113C115.479 282.017 114.142 291.844 115.591 292.97V292.97C117.038 294.098 146.388 308.275 147.627 309.215V309.215C147.627 309.215 145.397 355.543 145.24 360.73V360.73C145.081 365.918 148.47 400.231 148.47 400.231V400.231C151.753 402.27 160.098 406.067 164.472 405.864V405.864C168.846 405.66 177.483 404.127 178.356 401.496V401.496C179.23 398.865 179.419 385.128 179.253 381.549V381.549C179.085 377.972 176.24 354.708 177.295 351.67V351.67C178.349 348.632 184.126 322.86 184.195 320.067V320.067C184.265 317.275 183.16 314.935 184.231 312.295V312.295C185.304 309.654 184.958 306.483 184.677 304.703V304.703C184.394 302.923 182.781 298.216 181.676 295.877V295.877C180.571 293.537 165.531 274.312 159.705 269.002V269.002C153.879 263.695 153.478 259.33 148.47 258.766V258.766C148.355 258.754 148.233 258.747 148.101 258.747V258.747C142.441 258.748 120.846 270.344 118.195 276.113V276.113Z" fill="white"/>
</mask>
<g mask="url(#mask1)">
<path fill-rule="evenodd" clip-rule="evenodd" d="M156.207 408.147C156.207 408.147 157.675 374.347 156.836 362.839C155.997 351.33 157.782 330.887 160.229 324.696C162.676 318.503 164.686 302.913 151.105 298.378C102.316 282.087 134.307 316.176 134.307 316.176L139.924 404.346L156.207 408.147Z" fill="#5F8F9C"/>
</g>
<path fill-rule="evenodd" clip-rule="evenodd" d="M119.004 318.558C119.458 319.308 119.881 319.359 119.657 320.651C119.342 322.459 118.818 322.463 119.451 323.23C120.085 323.997 119.852 324.652 119.357 326.867C119.059 328.203 118.92 341.947 119.124 353.977C119.259 361.886 119.795 369.042 119.638 371.485C119.234 377.78 116.293 392.759 116.071 396.556C115.85 400.353 121.734 411.225 129.552 412.258C137.371 413.289 142.292 412.523 146.601 410.927C150.91 409.332 152.215 407.403 152.909 405.18C153.603 402.956 154.125 389.009 154.153 381.038C154.18 373.067 151.889 349.464 152.499 345.449C153.109 341.437 156.444 331.718 157.428 322.906C158.414 314.092 159.606 305.471 153.717 298.77C152.476 297.359 150.658 295.805 148.535 294.2C131.269 288.948 118.157 302.481 119.004 318.558" fill="#79B5C4"/>
<path fill-rule="evenodd" clip-rule="evenodd" d="M102.756 265.473C89.7862 265.081 81.6729 257.686 81.6729 257.686L62.9739 258.357C62.9739 258.357 55.5065 273.448 57.5873 283.91C59.667 294.374 64.1938 301.736 77.1033 305.119C90.0115 308.506 97.4047 308.959 100.831 309.795C104.257 310.632 115.57 317.77 117.115 318.185C117.499 318.288 118.485 318.54 119.004 318.558C121.323 303.789 132.15 291.846 148.535 294.2C140.581 288.19 128.289 281.463 125.49 278.763C121.943 275.341 115.725 265.866 102.756 265.473" fill="#79B5C4"/>
<path fill-rule="evenodd" clip-rule="evenodd" d="M158.89 210.079C157.544 204.691 152.572 172.801 151.529 170.258C150.406 167.521 148.286 154.071 146.259 151.176C144.231 148.282 139.897 142.905 138.593 144.858C137.289 146.812 136.487 157.409 134.27 159.006C132.304 160.424 138.119 213.514 138.576 215.163C139.033 216.815 143.417 221.244 144.849 222.621C146.138 212.762 153.023 208.446 158.89 210.079" fill="#A67940"/>
<path fill-rule="evenodd" clip-rule="evenodd" d="M97.4589 120.419C97.4589 120.419 96.443 127.49 95.4158 131.124C94.3898 134.759 89.7258 139.458 89.7258 139.458C89.7258 139.458 89.0837 149.201 102.309 150.828C115.535 152.454 123.469 149.546 125.155 147.226C126.84 144.906 123.677 145.451 123.677 145.451C123.677 145.451 122.442 134.949 122.572 133.449C122.701 131.948 122.805 128.805 122.805 128.805C122.805 128.805 113.674 126.341 106.752 121.033C99.8305 115.726 98.2318 109.175 98.2318 109.175L97.4589 120.419Z" fill="#A67940"/>
<mask id="mask2" mask-type="alpha" maskUnits="userSpaceOnUse" x="89" y="109" width="37" height="43">
<path fill-rule="evenodd" clip-rule="evenodd" d="M97.4589 120.419C97.4589 120.419 96.443 127.491 95.4158 131.124V131.124C94.3898 134.758 89.7258 139.459 89.7258 139.459V139.459C89.7258 139.459 89.0837 149.202 102.309 150.829V150.829C115.535 152.455 123.469 149.546 125.155 147.226V147.226C126.84 144.907 123.677 145.452 123.677 145.452V145.452C123.677 145.452 122.442 134.949 122.57 133.449V133.449C122.701 131.948 122.805 128.806 122.805 128.806V128.806C122.805 128.806 113.674 126.34 106.753 121.034V121.034C99.8305 115.727 98.2318 109.176 98.2318 109.176V109.176L97.4589 120.419Z" fill="white"/>
</mask>
<g mask="url(#mask2)">
<path fill-rule="evenodd" clip-rule="evenodd" d="M123.486 132.909C123.272 133.016 120.339 133.838 117.37 133.302C114.403 132.766 113.187 131.229 110.827 129.62C108.467 128.01 104.497 123.11 104.497 123.11L119.731 129.797L124.022 129.941L123.486 132.909Z" fill="#825B32"/>
</g>
<path fill-rule="evenodd" clip-rule="evenodd" d="M57.4241 186.088C51.1135 183.194 48.0519 179.502 48.5932 178.281C49.1345 177.06 57.7866 156.383 59.3123 154.918C60.8381 153.453 67.865 144.957 71.7586 142.983C75.6522 141.009 89.2037 136.793 90.3971 136.738C91.5905 136.682 91.9833 140.848 94.2819 142.086C96.5806 143.324 105.639 148.848 113.23 148.196C120.821 147.545 121.384 146.662 122.465 144.221C123.548 141.781 122.78 137.922 122.78 137.922L122.669 135.537C122.669 135.537 133.804 140.398 135.606 140.614C137.41 140.829 146.165 145.95 147.618 148.274C149.071 150.597 155.909 173.161 155.787 173.765C155.666 174.368 152.951 177.036 151.935 177.679C150.919 178.325 150.342 178.8 150.342 178.8C150.342 178.8 151.782 183.198 151.188 186.512C150.597 189.828 147.877 195.633 147.506 197.293C147.135 198.955 146.091 211.854 145.712 213.366C145.335 214.878 144.457 218.506 143.888 219.129C143.319 219.754 143.641 221.31 143.22 222.435C142.808 223.533 143.342 225.283 143.402 226.382C143.474 227.655 142.529 228.457 142.578 229.501C142.626 230.545 144.029 233.135 144.261 234.918C144.494 236.699 142.993 238.449 143.062 239.939C143.132 241.431 144.181 247.957 144.685 249.129C145.187 250.301 148.152 253.002 148.642 253.877C149.13 254.751 149.958 256.506 149.234 256.987C148.509 257.469 129.391 260.898 123.747 261.608C118.101 262.319 94.2467 266.59 90.3959 267.163C84.3672 268.063 71.3809 267.118 67.33 265.602C64.5026 264.545 60.5976 260.843 60.9753 259.331C61.3542 257.817 61.1075 255.737 61.6349 254.218C62.1624 252.699 64.9067 243.124 66.8352 239.597C68.7625 236.071 69.3252 235.298 69.5669 234.091C69.8099 232.883 68.6215 229.802 70.2203 228.83C71.819 227.859 73.4731 228.081 73.3611 225.695C73.2503 223.309 70.6709 219.245 72.3351 216.478C73.9993 213.71 73.6532 212.681 72.7694 209.733C71.8845 206.785 69.9672 200.897 70.1347 198.051C70.3008 195.204 68.4642 192.034 69.5808 190.337C70.6974 188.641 70.7603 187.927 70.7603 187.927C70.7603 187.927 66.3896 188.212 63.5282 187.747C60.6681 187.283 57.4241 186.088 57.4241 186.088" fill="#83B84D"/>
<mask id="mask3" mask-type="alpha" maskUnits="userSpaceOnUse" x="48" y="135" width="108" height="133">
<path fill-rule="evenodd" clip-rule="evenodd" d="M122.779 137.923C122.779 137.923 123.547 141.781 122.466 144.221V144.221C121.383 146.662 120.821 147.544 113.23 148.196V148.196C105.639 148.848 96.5802 143.323 94.2815 142.087V142.087C91.9829 140.847 91.5901 136.683 90.3967 136.738V136.738C89.2033 136.792 75.6531 141.01 71.7582 142.983V142.983C67.8658 144.956 60.8389 153.452 59.3132 154.919V154.919C57.7862 156.384 49.1342 177.06 48.5929 178.28V178.28C48.0528 179.501 51.1143 183.194 57.4249 186.089V186.089C57.4249 186.089 60.6677 187.282 63.5291 187.747V187.747C66.3892 188.213 70.7599 187.928 70.7599 187.928V187.928C70.7599 187.928 70.697 188.642 69.5804 190.338V190.338C68.4638 192.033 70.3005 195.203 70.1343 198.051V198.051C69.9669 200.897 71.8841 206.786 72.7691 209.734V209.734C73.6528 212.682 74.0002 213.711 72.3348 216.478V216.478C70.6706 219.245 73.2512 223.309 73.362 225.695V225.695C73.4728 228.082 71.8186 227.859 70.2199 228.829V228.829C68.6211 229.803 69.8095 232.884 69.5678 234.09V234.09C69.3248 235.297 68.7634 236.07 66.8348 239.596V239.596C64.9063 243.124 62.162 252.7 61.6358 254.218V254.218C61.1071 255.736 61.3538 257.818 60.9762 259.33V259.33C60.5972 260.843 64.5035 264.545 67.3296 265.603V265.603C71.3818 267.119 84.3668 268.063 90.3955 267.164V267.164C94.2463 266.59 118.101 262.319 123.746 261.609V261.609C129.391 260.897 148.509 257.47 149.234 256.987V256.987C149.959 256.505 149.13 254.75 148.641 253.877V253.877C148.153 253.003 145.187 250.3 144.686 249.13V249.13C144.182 247.958 143.132 241.43 143.062 239.94V239.94C142.994 238.448 144.493 236.7 144.262 234.918V234.918C144.029 233.135 142.625 230.545 142.577 229.502V229.502C142.528 228.458 143.474 227.655 143.403 226.381V226.381C143.341 225.282 142.808 223.533 143.219 222.436V222.436C143.642 221.309 143.32 219.753 143.889 219.13V219.13C144.457 218.507 145.334 214.879 145.713 213.366V213.366C146.091 211.855 147.134 198.954 147.506 197.294V197.294C147.877 195.632 150.596 189.828 151.189 186.512V186.512C151.782 183.199 150.342 178.799 150.342 178.799V178.799C150.342 178.799 150.917 178.324 151.934 177.68V177.68C152.95 177.035 155.666 174.369 155.788 173.766V173.766C155.909 173.162 149.07 150.597 147.619 148.274V148.274C146.166 145.951 137.41 140.83 135.607 140.614V140.614C133.803 140.399 122.669 135.536 122.669 135.536V135.536" fill="white"/>
</mask>
<g mask="url(#mask3)">
<path fill-rule="evenodd" clip-rule="evenodd" d="M152.588 184.456C152.588 184.456 150.548 187.738 148.011 188.852C145.471 189.967 133.464 193.114 126.487 193.04C119.51 192.967 110.147 193.003 106.36 192.979C102.574 192.957 99.6644 194.685 98.9619 196.711C98.2595 198.736 94.0285 206.304 92.9195 208.149C91.8092 209.994 95.6197 206.231 99.5121 204.256C103.406 202.282 106.198 202.352 106.481 204.132C106.762 205.912 104.608 210.994 101.828 215.505C99.0501 220.018 107.931 209.644 109.846 207.961C111.761 206.278 114.821 203.545 118.618 203.768C122.413 203.989 122.533 206.574 120.124 210.471C117.715 214.37 109.78 223.704 111.967 223.602C114.155 223.501 128.377 203.712 130.726 202.806C133.076 201.898 138.739 199.444 139.41 201.007C140.08 202.571 138.424 209.819 139.969 208.753C141.514 207.684 142.069 202.477 144.408 201.372C146.748 200.268 149.767 200.924 151.491 199.45C153.216 197.975 152.588 184.456 152.588 184.456" fill="#7DB04A"/>
</g>
<mask id="mask4" mask-type="alpha" maskUnits="userSpaceOnUse" x="48" y="135" width="108" height="133">
<path fill-rule="evenodd" clip-rule="evenodd" d="M122.779 137.923C122.779 137.923 123.547 141.781 122.466 144.221V144.221C121.383 146.662 120.821 147.544 113.23 148.196V148.196C105.639 148.848 96.5802 143.323 94.2815 142.087V142.087C91.9829 140.847 91.5901 136.683 90.3967 136.738V136.738C89.2033 136.792 75.6531 141.01 71.7582 142.983V142.983C67.8658 144.956 60.8389 153.452 59.3132 154.919V154.919C57.7862 156.384 49.1342 177.06 48.5929 178.28V178.28C48.0528 179.501 51.1143 183.194 57.4249 186.089V186.089C57.4249 186.089 60.6677 187.282 63.5291 187.747V187.747C66.3892 188.213 70.7599 187.928 70.7599 187.928V187.928C70.7599 187.928 70.697 188.642 69.5804 190.338V190.338C68.4638 192.033 70.3005 195.203 70.1343 198.051V198.051C69.9669 200.897 71.8841 206.786 72.7691 209.734V209.734C73.6528 212.682 74.0002 213.711 72.3348 216.478V216.478C70.6706 219.245 73.2512 223.309 73.362 225.695V225.695C73.4728 228.082 71.8186 227.859 70.2199 228.829V228.829C68.6211 229.803 69.8095 232.884 69.5678 234.09V234.09C69.3248 235.297 68.7634 236.07 66.8348 239.596V239.596C64.9063 243.124 62.162 252.7 61.6358 254.218V254.218C61.1071 255.736 61.3538 257.818 60.9762 259.33V259.33C60.5972 260.843 64.5035 264.545 67.3296 265.603V265.603C71.3818 267.119 84.3668 268.063 90.3955 267.164V267.164C94.2463 266.59 118.101 262.319 123.746 261.609V261.609C129.391 260.897 148.509 257.47 149.234 256.987V256.987C149.959 256.505 149.13 254.75 148.641 253.877V253.877C148.153 253.003 145.187 250.3 144.686 249.13V249.13C144.182 247.958 143.132 241.43 143.062 239.94V239.94C142.994 238.448 144.493 236.7 144.262 234.918V234.918C144.029 233.135 142.625 230.545 142.577 229.502V229.502C142.528 228.458 143.474 227.655 143.403 226.381V226.381C143.341 225.282 142.808 223.533 143.219 222.436V222.436C143.642 221.309 143.32 219.753 143.889 219.13V219.13C144.457 218.507 145.334 214.879 145.713 213.366V213.366C146.091 211.855 147.134 198.954 147.506 197.294V197.294C147.877 195.632 150.596 189.828 151.189 186.512V186.512C151.782 183.199 150.342 178.799 150.342 178.799V178.799C150.342 178.799 150.917 178.324 151.934 177.68V177.68C152.95 177.035 155.666 174.369 155.788 173.766V173.766C155.909 173.162 149.07 150.597 147.619 148.274V148.274C146.166 145.951 137.41 140.83 135.607 140.614V140.614C133.803 140.399 122.669 135.536 122.669 135.536V135.536" fill="white"/>
</mask>
<g mask="url(#mask4)">
<path fill-rule="evenodd" clip-rule="evenodd" d="M67.6221 234.032C67.6221 234.032 73.1057 236.267 76.0413 235.134C78.9782 234.003 86.2783 230.325 91.1966 226.81C93.3983 225.235 97.3713 222.487 96.6676 224.512C95.9651 226.538 88.4196 235.655 86.1159 237.555C83.8135 239.456 83.3741 242.864 86.3387 242.327C89.302 241.791 98.2726 237.588 100.025 236.709C101.777 235.832 103.793 236.335 102.475 237.991C101.158 239.646 95.3181 246.891 94.6056 248.717C93.8931 250.543 93.4172 253.155 96.5241 251.418C99.6309 249.679 109.935 244.169 114.201 239.487C117.561 235.8 125.88 227.139 126.92 228.087C127.961 229.035 123.408 233.979 121.531 236.457C119.654 238.936 114.129 245.468 112.595 246.736C112.092 247.15 104.527 257.984 113.101 257.62C149.491 256.079 158.736 249.223 158.736 249.223C158.736 249.223 156.405 263.625 128.153 269.622C95.478 276.559 50.2223 267.24 50.4212 266.909C50.7913 266.295 67.6221 234.032 67.6221 234.032" fill="#7DB04A"/>
</g>
<mask id="mask5" mask-type="alpha" maskUnits="userSpaceOnUse" x="48" y="135" width="108" height="133">
<path fill-rule="evenodd" clip-rule="evenodd" d="M122.779 137.923C122.779 137.923 123.547 141.781 122.466 144.221V144.221C121.383 146.662 120.821 147.544 113.23 148.196V148.196C105.639 148.848 96.5802 143.323 94.2815 142.087V142.087C91.9829 140.847 91.5901 136.683 90.3967 136.738V136.738C89.2033 136.792 75.6531 141.01 71.7582 142.983V142.983C67.8658 144.956 60.8389 153.452 59.3132 154.919V154.919C57.7862 156.384 49.1342 177.06 48.5929 178.28V178.28C48.0528 179.501 51.1143 183.194 57.4249 186.089V186.089C57.4249 186.089 60.6677 187.282 63.5291 187.747V187.747C66.3892 188.213 70.7599 187.928 70.7599 187.928V187.928C70.7599 187.928 70.697 188.642 69.5804 190.338V190.338C68.4638 192.033 70.3005 195.203 70.1343 198.051V198.051C69.9669 200.897 71.8841 206.786 72.7691 209.734V209.734C73.6528 212.682 74.0002 213.711 72.3348 216.478V216.478C70.6706 219.245 73.2512 223.309 73.362 225.695V225.695C73.4728 228.082 71.8186 227.859 70.2199 228.829V228.829C68.6211 229.803 69.8095 232.884 69.5678 234.09V234.09C69.3248 235.297 68.7634 236.07 66.8348 239.596V239.596C64.9063 243.124 62.162 252.7 61.6358 254.218V254.218C61.1071 255.736 61.3538 257.818 60.9762 259.33V259.33C60.5972 260.843 64.5035 264.545 67.3296 265.603V265.603C71.3818 267.119 84.3668 268.063 90.3955 267.164V267.164C94.2463 266.59 118.101 262.319 123.746 261.609V261.609C129.391 260.897 148.509 257.47 149.234 256.987V256.987C149.959 256.505 149.13 254.75 148.641 253.877V253.877C148.153 253.003 145.187 250.3 144.686 249.13V249.13C144.182 247.958 143.132 241.43 143.062 239.94V239.94C142.994 238.448 144.493 236.7 144.262 234.918V234.918C144.029 233.135 142.625 230.545 142.577 229.502V229.502C142.528 228.458 143.474 227.655 143.403 226.381V226.381C143.341 225.282 142.808 223.533 143.219 222.436V222.436C143.642 221.309 143.32 219.753 143.889 219.13V219.13C144.457 218.507 145.334 214.879 145.713 213.366V213.366C146.091 211.855 147.134 198.954 147.506 197.294V197.294C147.877 195.632 150.596 189.828 151.189 186.512V186.512C151.782 183.199 150.342 178.799 150.342 178.799V178.799C150.342 178.799 150.917 178.324 151.934 177.68V177.68C152.95 177.035 155.666 174.369 155.788 173.766V173.766C155.909 173.162 149.07 150.597 147.619 148.274V148.274C146.166 145.951 137.41 140.83 135.607 140.614V140.614C133.803 140.399 122.669 135.536 122.669 135.536V135.536L122.779 137.923Z" fill="white"/>
</mask>
<g mask="url(#mask5)">
<path fill-rule="evenodd" clip-rule="evenodd" d="M68.0117 203.828C68.0117 203.828 71.2054 192.172 75.1066 189.302C79.0078 186.43 79.9557 177.869 81.0862 176.472C82.2166 175.073 78.999 176.568 77.3814 180.379C75.7663 184.19 68.3969 189.613 68.3969 189.613L68.0117 203.828Z" fill="#7DB04A"/>
</g>
<path fill-rule="evenodd" clip-rule="evenodd" d="M55.4921 215.792C56.017 214.864 59.2687 209.314 62.3453 204.091C65.7391 198.329 72.9473 184.62 72.9473 184.62C72.9473 184.62 80.0573 175.249 79.1471 173.348C78.237 171.447 74.8419 147.695 62.8853 153.557C56.6918 156.593 49.1576 179.698 47.8761 182.149C46.5958 184.6 34.3082 217.1 34.2113 219.295C34.1898 219.786 34.1345 220.403 34.0828 221.075C34.4555 220.715 34.8507 220.355 35.2901 219.992C41.9683 215.079 48.5961 216.036 55.4921 215.792" fill="#A67940"/>
<path fill-rule="evenodd" clip-rule="evenodd" d="M75.7253 151.167C79.0777 157.362 82.5773 166.763 81.0654 172.811C79.5535 178.858 75.8386 182.543 75.0141 184.076C74.1883 185.608 69.7521 191.162 69.7521 191.162C69.7521 191.162 61.7647 191.375 56.7306 189.143C51.6952 186.913 47.1495 182.342 47.0122 181.002C47.0122 181.002 54.7957 162.226 55.5724 159.65C56.3491 157.073 64.7066 148.845 65.7225 148.202C66.7384 147.556 72.8287 145.812 75.7253 151.167" fill="#83B84D"/>
<path fill-rule="evenodd" clip-rule="evenodd" d="M133.123 115.619C132.249 119.325 129.887 123.141 128.587 125.193C127.289 127.245 126.391 130.098 123.843 131.013C121.295 131.929 117.54 131.848 116.012 131.12C114.484 130.395 109.909 127.861 106.915 125.609C103.922 123.357 98.7569 118.865 97.6655 116.823C96.574 114.783 96.1939 113.554 94.6304 109.941C93.0681 106.327 90.9533 97.2607 92.2436 90.7261C93.5339 84.1901 97.7523 74.2301 108.348 72.8416C118.943 71.4531 123.447 74.0325 126.156 76.5967C128.865 79.161 133.102 86.7342 133.281 92.7037C133.345 94.8853 133.234 97.0505 133.383 99.0521C133.641 102.521 134.173 105.495 134.127 107.202C134.053 109.896 133.623 113.502 133.123 115.619" fill="#A67940"/>
<path fill-rule="evenodd" clip-rule="evenodd" d="M71.6512 140.671C72.2202 140.048 72.6797 133.72 76.0307 128.633C79.3805 123.546 81.4237 113.543 82.6032 106.764C83.7815 99.9853 85.3525 85.5614 87.8992 82.4546C90.4446 79.3465 92.1881 75.0815 95.3793 72.9905C98.5692 70.8996 104.17 68.684 106.462 69.7742C106.462 69.7742 108.026 68.0571 110.419 68.0961C112.812 68.1339 123.302 68.5531 128.458 73.3946C133.614 78.2349 134.741 89.8453 134.776 90.5918C134.776 90.5918 130.514 85.7087 125.895 82.7856C121.276 79.8613 114.115 79.1752 112.779 79.3867C111.445 79.5982 108.914 77.1347 108.914 77.1347L109.526 78.7158C109.78 79.3754 109.456 80.1106 108.802 80.3775C107.109 81.0736 104.033 82.6132 102.319 85.151C99.8734 88.7765 98.4634 95.4169 98.1412 98.1222C97.8189 100.827 97.7245 102.027 96.837 102.217C95.9495 102.407 95.1489 101.25 94.0663 100.478C92.9849 99.7071 94.1997 104.955 94.1997 104.955C94.1997 104.955 96.3196 113.598 94.8228 118.375C93.1297 123.783 90.787 127.977 84.5708 130.881C74.4496 135.609 71.6512 140.671 71.6512 140.671" fill="#46352D"/>
<path fill-rule="evenodd" clip-rule="evenodd" d="M96.6352 103.771C96.6352 103.771 93.8607 99.8147 92.9292 99.0619C91.9976 98.3078 90.1849 97.8937 89.7254 98.7119C89.2659 99.5314 88.3482 103.36 90.448 107.844C92.5502 112.329 93.9161 113.86 95.1045 113.705C96.2928 113.55 96.7573 112.83 97.0229 112.121C97.2898 111.411 96.6465 106.161 96.6352 103.771" fill="#A67940"/>
<path fill-rule="evenodd" clip-rule="evenodd" d="M176.997 429.094C178.526 429.041 179.564 428.948 180.732 429.064C181.602 435.449 180.578 438.549 176.668 440.102C170.153 442.69 161.668 438.007 161.668 438.007C161.668 438.007 164.82 429.518 176.997 429.094" fill="#C4C4C4"/>
<path fill-rule="evenodd" clip-rule="evenodd" d="M185.316 489.219C223.626 489.26 254.661 502.14 254.633 517.986C254.608 533.834 223.53 546.646 185.22 546.605C146.908 546.565 115.873 533.684 115.9 517.836C115.927 501.991 147.004 489.179 185.316 489.219" fill="#D4D4D4"/>
<path fill-rule="evenodd" clip-rule="evenodd" d="M185.313 490.495C223.624 490.535 254.658 503.415 254.632 519.262C254.606 535.109 223.527 547.921 185.218 547.881C146.906 547.839 115.872 534.96 115.898 519.111C115.924 503.266 147.003 490.454 185.313 490.495" fill="#B5B5B5"/>
<path fill-rule="evenodd" clip-rule="evenodd" d="M185.316 489.219C223.626 489.26 254.661 502.14 254.633 517.986C254.608 533.834 223.53 546.646 185.22 546.605C146.908 546.565 115.873 533.684 115.9 517.836C115.927 501.991 147.004 489.179 185.316 489.219" fill="#E0E0E0"/>
<path fill-rule="evenodd" clip-rule="evenodd" d="M183.98 509.196C189.997 509.202 194.872 510.985 194.867 513.176C194.864 515.371 189.983 517.144 183.963 517.139C177.945 517.134 173.069 515.352 173.073 513.156C173.078 510.965 177.961 509.191 183.98 509.196" fill="#CCCCCC"/>
<path fill-rule="evenodd" clip-rule="evenodd" d="M173.4 282.132L195.186 282.152L194.883 513.164L173.098 513.145L173.4 282.132Z" fill="#CCCCCC"/>
<path fill-rule="evenodd" clip-rule="evenodd" d="M185.096 243.356C244.248 243.367 292.147 257.725 292.082 275.423C292.019 293.121 244.014 307.46 184.86 307.449C125.708 307.437 77.8091 293.081 77.8746 275.381C77.9388 257.683 125.944 243.345 185.096 243.356" fill="#C2C2C2"/>
<path fill-rule="evenodd" clip-rule="evenodd" d="M78.0254 270.341L292.234 270.383L292.08 276.105L77.8718 276.063L78.0254 270.341Z" fill="#C2C2C2"/>
<path fill-rule="evenodd" clip-rule="evenodd" d="M185.25 237.635C244.4 237.646 292.301 252.002 292.235 269.701C292.171 287.401 244.166 301.739 185.014 301.726C125.862 301.715 77.9628 287.359 78.0283 269.659C78.0925 251.962 126.097 237.623 185.25 237.635" fill="#EBEBEB"/>
<path fill-rule="evenodd" clip-rule="evenodd" d="M114.074 121.764C114.074 121.764 116.12 124.4 119.071 124.302C122.89 124.173 122.827 123.888 123.201 123.456C123.575 123.023 124.869 120.793 124.869 120.793L114.074 121.764Z" fill="#825B32"/>
<path fill-rule="evenodd" clip-rule="evenodd" d="M129.207 244.225C129.207 244.225 129.583 242.701 128.376 242.261C128.871 241.066 127.801 240.098 127.21 239.642C126.617 239.187 119.084 234.103 118.305 234.087C117.527 234.071 104.817 237.114 103.246 237.318C101.676 237.522 75.814 227.096 71.758 225.309C67.7007 223.521 56.473 216.169 56.473 216.169C56.473 216.169 54.7295 214.628 51.5811 213.357C48.4617 212.098 44.9092 208.797 38.0648 213.479C35.3508 215.024 34.17 217.966 33.8213 220.261C33.5708 221.906 33.5947 226.433 34.9542 227.359C38.1593 229.541 62.6514 238.735 68.1438 240.231C73.6349 241.729 92.7971 248.659 93.4555 249.258C94.1151 249.856 97.9156 251.582 100.85 252.109C103.786 252.636 112.778 251.169 115.036 250.749C117.294 250.327 127.188 250.697 128.196 250.342C129.607 249.847 129.695 249.048 129.695 249.048C129.695 249.048 130.934 249.788 132.165 249.757C133.395 249.724 134.264 248.76 134.291 247.745C134.319 246.729 129.207 244.225 129.207 244.225" fill="#A67940"/>
<path fill-rule="evenodd" clip-rule="evenodd" d="M193.282 218.566C190.54 217.645 181.448 220.218 179.927 221.171C178.408 222.123 176.358 224.154 175.468 223.932C174.578 223.706 173.796 223.186 172.619 222.556C171.444 221.925 170.26 221.492 169.494 220.476C168.726 219.458 166.532 216.109 164.784 214.566C163.036 213.024 159.947 211.879 158.89 210.079C155.416 206.539 147.39 212.572 146.357 215.827C145.601 218.21 144.026 221.142 144.5 222.269C144.974 223.397 148.282 227.635 152.213 229.44C156.145 231.244 163.534 233.944 166.009 234.413C168.484 234.882 173.336 235.816 174.012 236.533C174.689 237.249 179.514 239.079 182.104 239.053C184.694 239.029 188.24 240.324 189.235 236.867C189.845 234.75 190.423 228.76 191.347 224.166C191.931 221.261 195.714 219.383 193.282 218.566" fill="#A67940"/>
<path fill-rule="evenodd" clip-rule="evenodd" d="M174.692 224.954C174.692 224.954 176.554 222.468 177.765 221.906C178.976 221.344 181.763 219.63 182.394 218.455C183.024 217.278 184.653 217.772 184.818 218.971C184.983 220.17 185.137 221.768 184.517 222.547C184.517 222.547 182.634 223.986 182.318 224.624C182.001 225.262 181.808 228.493 181.235 229.373C180.663 230.251 178.102 232.768 176.097 233.257C174.091 233.747 171.489 230.786 172.241 228.865C172.991 226.947 174.692 224.954 174.692 224.954" fill="#BF8C4A"/>
<path fill-rule="evenodd" clip-rule="evenodd" d="M191.334 238.359C189.883 238.579 187.683 238.964 186.848 238.492C186.016 238.02 185.027 236.948 185.684 235.721C185.893 235.379 183.038 236.163 182.534 235.345C181.784 234.129 182.149 233.132 182.149 233.132C182.149 233.132 180.961 233.244 180.193 232.329C179.519 231.526 179.599 229.612 181.559 228.97C183.519 228.33 187.184 227.613 187.538 227.423C186.649 227.174 186.167 225.356 187.144 224.24C188.122 223.122 189.356 222.623 189.356 222.623C189.356 222.623 191.006 220.848 191.142 220.21C191.277 219.57 191.058 219.353 191.015 218.425C193.095 218.234 193.871 218.324 194.928 219.248C195.937 220.132 196.249 222.184 195.429 223.057C194.608 223.93 193.224 225.72 192.765 226.155C193.816 225.924 194.469 227.283 194.304 228.401C194.121 229.665 193.281 230.276 192.825 230.563C193.49 230.804 193.792 231.572 193.817 232.42C193.842 233.267 193.136 234.49 193.136 234.49C193.136 234.49 194.161 237.929 191.334 238.359" fill="#A67940"/>
<path fill-rule="evenodd" clip-rule="evenodd" d="M283.145 134.966C279.115 144.26 273.127 184.944 265.789 190.104C259.643 194.442 230.574 203.61 227.106 213.253C224.205 221.285 216.485 227.116 209.056 229.715C201.623 232.309 199.129 236.877 199.03 244.74C198.935 252.607 217.977 255.316 228.376 254.745C238.452 254.2 245.297 249.204 252.478 245.015C259.639 240.823 262.012 242.533 273.551 242.21C285.082 241.881 304.39 242.895 312.249 240.196C320.107 237.513 324.623 232.658 335.743 226.366C346.849 220.069 366.567 132.103 366.567 132.103C348.64 27.5206 287.173 125.681 283.145 134.966" fill="#996D35"/>
<path fill-rule="evenodd" clip-rule="evenodd" d="M154.954 432.586C156.484 432.531 157.521 432.44 158.688 432.555C159.559 438.939 158.536 442.04 154.626 443.592C148.11 446.18 139.624 441.497 139.624 441.497C139.624 441.497 142.776 433.009 154.954 432.586" fill="#CCCCCC"/>
<path fill-rule="evenodd" clip-rule="evenodd" d="M231.52 155.289C229.414 153.323 227.111 151.525 224.587 149.949C205.722 138.159 180.212 141.469 160.275 157.418L155.298 150.693C178.279 132.67 207.403 129.22 228.804 142.798C231.667 144.616 234.279 146.68 236.667 148.934L231.52 155.289ZM198.204 194.598C198.547 194.791 198.839 195.035 199.131 195.281L193.462 202.281L188.978 196.221C191.687 193.757 195.367 192.987 198.204 194.598ZM208.897 176.496C210.139 177.229 211.257 178.09 212.3 179.02L206.115 186.656C205.425 186.052 204.686 185.492 203.867 185.017C197.562 181.365 189.305 182.905 183.141 188.329L177.816 181.131C187.158 173.102 199.525 170.962 208.897 176.496ZM219.138 159.162C221.221 160.439 223.124 161.901 224.867 163.503L218.754 171.051C217.353 169.78 215.822 168.623 214.149 167.616C201.587 160.055 184.863 162.683 172.096 173.399L166.519 165.86C182.655 152.622 203.553 149.612 219.138 159.162Z" fill="#ACE9FA"/>
<path fill-rule="evenodd" clip-rule="evenodd" d="M119.563 252.034L176.711 240.397C177.881 240.169 179.386 240.446 180.075 241.015L211.703 258.871C212.392 259.44 212.003 260.087 210.834 260.316L154.654 272.703C153.484 272.934 151.979 272.657 151.291 272.086L118.693 253.478C118.447 253.274 118.338 253.06 118.355 252.86C118.366 252.71 118.268 251.34 118.411 251.215C118.615 251.037 119.125 252.12 119.563 252.034" fill="#ABABAB"/>
<path fill-rule="evenodd" clip-rule="evenodd" d="M119.563 250.539L176.711 238.902C177.881 238.675 179.386 238.951 180.075 239.52L211.703 257.376C212.392 257.945 212.003 258.592 210.834 258.821L154.654 271.208C153.484 271.439 151.979 271.162 151.291 270.591L118.693 251.983C118.005 251.414 118.394 250.767 119.563 250.539" fill="#CCCCCC"/>
<path fill-rule="evenodd" clip-rule="evenodd" d="M154.673 268.231L135.899 257.867C135.566 257.655 135.656 257.148 136.04 257.061L185.987 245.808L207.073 256.901L154.673 268.231Z" fill="black"/>
<path fill-rule="evenodd" clip-rule="evenodd" d="M163.857 218.572L221.451 209.455C222.421 209.363 222.984 210.141 222.711 211.194L213.146 257.14C212.859 258.245 211.803 259.287 210.786 259.467L154.195 271.949C152.933 272.172 152.201 271.343 152.568 270.098L161.059 220.915C161.405 219.736 162.66 218.687 163.857 218.572" fill="#BFBFBF"/>
<path fill-rule="evenodd" clip-rule="evenodd" d="M114.887 101.111C114.887 103.038 113.323 104.602 111.396 104.602C109.467 104.602 107.905 103.038 107.905 101.111C107.905 99.1837 109.467 97.6202 111.396 97.6202C113.323 97.6202 114.887 99.1837 114.887 101.111" fill="#F2F2F2"/>
<path fill-rule="evenodd" clip-rule="evenodd" d="M131.127 101.072C131.127 102.893 129.65 104.37 127.828 104.37C126.006 104.37 124.529 102.893 124.529 101.072C124.529 99.2501 126.006 97.7735 127.828 97.7735C129.65 97.7735 131.127 99.2501 131.127 101.072" fill="#F2F2F2"/>
<path fill-rule="evenodd" clip-rule="evenodd" d="M443.469 414.059C438.392 411.039 432.785 414.116 429.089 417.587C426.019 420.469 428.759 420.761 430.962 419.917C433.165 419.072 436.308 417.013 438.696 418.136C440.544 416.265 441.134 415.044 443.469 414.059" fill="black"/>
<path fill-rule="evenodd" clip-rule="evenodd" d="M438.516 419.644C438.994 419.504 439.242 418.977 439.063 418.513C438.027 415.829 435.887 414.774 432.673 415.091C429.629 415.391 425.649 417.852 424.336 420.514C423.023 423.178 424.974 423.712 427.156 422.503C429.336 421.293 432.126 419.828 434.852 420.93C436.066 420.362 437.272 420.011 438.516 419.644" fill="black"/>
<path fill-rule="evenodd" clip-rule="evenodd" d="M505.703 450.683C499.973 449.245 495.484 453.802 492.938 458.185C490.823 461.829 493.534 461.321 495.401 459.881C497.27 458.44 499.69 455.566 502.299 455.956C503.533 453.635 503.747 452.295 505.703 450.683" fill="black"/>
<path fill-rule="evenodd" clip-rule="evenodd" d="M507.103 176.389C512.339 186.273 517.189 307.439 517.189 307.439C513.177 348.754 498.466 337.597 498.145 358.547C497.928 374.369 496.465 411.075 495.044 417C493.684 422.663 491.365 429.018 482.071 431.432C471.647 434.137 462.01 433.492 448.841 432.07C440.272 431.151 433.726 428.966 431.793 427.752C420.229 420.472 442.382 412.614 443.334 404.574C444.288 396.408 446.743 384.913 442.67 376.269C438.302 366.958 428.206 345.746 428.773 325.121C429.484 297.314 453.235 219.654 453.235 219.654C453.235 219.654 501.868 166.511 507.103 176.389" fill="#996D35"/>
<path fill-rule="evenodd" clip-rule="evenodd" d="M497.903 233.906C492.331 243.412 475.922 291.974 472.429 316.82C468.927 341.678 496.225 391.393 501.74 400.224C507.242 409.039 516.069 418.509 516.667 425.916C517.275 433.314 515.757 440.613 510.593 445.442C505.426 450.261 494.773 454.89 497.438 460.205C498.202 461.706 503.512 471.354 513.898 472.613C527.045 474.207 542.681 472.987 555.14 470.961C567.599 468.926 571.45 460.879 573.313 456.026C575.196 451.18 577.139 431.909 575.176 419.788C573.227 407.664 575.551 384.06 578.391 363.715C581.6 340.736 597.903 322.736 585.272 254.51C572.638 186.284 512.406 154.169 512.406 154.169C512.406 154.169 503.477 224.398 497.903 233.906" fill="#B37F3E"/>
<path fill-rule="evenodd" clip-rule="evenodd" d="M347.099 19.4653C378.334 14.9309 396.681 24.658 409.811 38.8503C422.277 52.1664 428.145 89.66 472.816 107.231C517.503 124.799 556.996 156.276 568.774 186.453C586.355 231.474 585.291 271.994 574.612 299.707C562.778 330.349 539.426 330.497 534.826 349.983C530.211 369.526 477.956 355.601 453.94 342.008C429.469 328.144 409.233 306.377 389.993 291.631C351.835 262.364 319.482 216.935 297.266 181.762C275.064 146.579 273.819 142.111 273.811 129.085C273.811 117.24 275.863 91.5369 289.259 63.7075C289.259 63.7075 315.843 23.9933 347.099 19.4653" fill="#B37F3E"/>
<mask id="mask6" mask-type="alpha" maskUnits="userSpaceOnUse" x="273" y="18" width="310" height="342">
<path fill-rule="evenodd" clip-rule="evenodd" d="M347.099 19.4652C315.843 23.9932 289.258 63.7074 289.258 63.7074V63.7074C275.863 91.5368 273.811 117.24 273.811 129.085V129.085C273.82 142.111 275.065 146.579 297.266 181.762V181.762C319.482 216.935 351.835 262.364 389.994 291.631V291.631C409.233 306.377 429.468 328.144 453.94 342.008V342.008C477.957 355.601 530.211 369.526 534.826 349.982V349.982C539.426 330.498 562.778 330.349 574.612 299.706V299.706C585.291 271.994 586.355 231.474 568.773 186.454V186.454C556.996 156.276 517.503 124.798 472.816 107.231V107.231C428.145 89.6599 422.277 52.165 409.811 38.8514V38.8514C398.897 27.0522 384.378 18.341 361.845 18.341V18.341C357.273 18.341 352.368 18.6998 347.099 19.4652V19.4652Z" fill="white"/>
</mask>
<g mask="url(#mask6)">
<path fill-rule="evenodd" clip-rule="evenodd" d="M340.296 290.072C341.177 289.193 380.379 263.424 387.646 222.681C391.617 200.432 394.254 166.74 394.254 166.74C394.254 166.74 379.058 225.764 361.88 237.436C344.7 249.108 327.302 259.239 327.302 259.239L340.296 290.072Z" fill="#996D35"/>
</g>
<path fill-rule="evenodd" clip-rule="evenodd" d="M254.955 110.446C248.066 113.302 211.575 124.508 195.62 108.008C186.199 98.2649 206.16 93.8274 210.748 65.8633C234.265 74.1755 252.922 103.893 254.955 110.446" fill="#B37F3E"/>
<mask id="mask7" mask-type="alpha" maskUnits="userSpaceOnUse" x="235" y="0" width="36" height="31">
<path fill-rule="evenodd" clip-rule="evenodd" d="M235.541 0.25885H270.685V30.0058H235.541V0.25885Z" fill="white"/>
</mask>
<g mask="url(#mask7)">
<path fill-rule="evenodd" clip-rule="evenodd" d="M235.911 27.3209C233.36 11.2253 244.418 -2.432 256.263 0.71261C267.556 3.71119 271.957 19.0238 270.373 29.3414C253.718 31.6161 235.911 27.3209 235.911 27.3209" fill="#996D35"/>
</g>
<path fill-rule="evenodd" clip-rule="evenodd" d="M209.057 21.1396C214.775 16.2364 216.002 13.5034 227.513 12.8325C240.947 7.62712 245.867 8.35977 259.951 7.25828C274.034 6.15678 286.843 7.76937 299.605 17.1705C317.924 22.6968 352.018 16.9275 364.979 20.2433C391.63 55.8335 383.067 120.109 375.997 145.89C368.928 171.669 324.166 226.629 313.239 218.661C293.91 204.565 281.787 183.871 262.276 163.495C248.785 149.406 224.893 116.33 211.445 100.367C205.051 84.3918 203.575 83.3092 201.344 74.2505C196.559 54.8101 201.426 27.6819 209.057 21.1396" fill="#B37F3E"/>
<path fill-rule="evenodd" clip-rule="evenodd" d="M235.424 22.7882C235.424 22.7882 237.606 27.8286 241.217 29.7094C244.828 31.5901 246.783 33.4695 248.665 32.5682C250.545 31.6656 253.329 28.0552 251.522 26.3243C249.717 24.5947 235.424 22.7882 235.424 22.7882" fill="#996D35"/>
<path fill-rule="evenodd" clip-rule="evenodd" d="M294.337 14.849C300.987 9.38936 312.209 4.69637 320.245 14.4789C327.116 22.8427 315.3 40.0877 308.496 39.9102C303.996 39.6672 305.389 30.9598 300.851 26.2882C297.353 22.6878 288.956 20.1286 294.337 14.849" fill="#996D35"/>
<path fill-rule="evenodd" clip-rule="evenodd" d="M236.593 23.5996C238.067 27.8406 245.265 32.8999 247.909 30.0977C248.634 25.2109 242.462 20.3026 240.392 20.3731C238.321 20.4436 236.593 23.5996 236.593 23.5996" fill="black"/>
<path fill-rule="evenodd" clip-rule="evenodd" d="M229.35 23.7324C235.796 27.6361 240.754 39.2011 239.101 51.4749C237.302 64.8326 233.08 78.1348 227.38 84.7954C217.935 95.8292 208.156 102.942 200.024 105.471C187.575 109.343 180.853 103.771 183.165 97.2643C185.48 90.7586 190.811 86.6409 196.267 77.0724C199.489 71.4214 202.998 65.2958 203.83 59.1892C199.382 53.6565 194.981 49.17 190.942 43.3151C188.277 39.4529 188.517 35.7683 190.821 29.5495C194.995 18.2854 193.208 15.108 195.108 12.3046C196.248 10.6227 198.091 8.87671 200.257 8.30519C206.032 6.78073 219.586 8.16546 229.35 23.7324" fill="#ECBF8D"/>
<path fill-rule="evenodd" clip-rule="evenodd" d="M196.968 30.5675C202.422 34.0105 208.855 37.7845 217.249 46.8142C223.314 53.3388 229.401 59.7753 229.14 65.099C228.711 73.8858 224.193 82.9596 215.636 90.1514C208.333 96.2895 205.331 99.5172 197.593 101.685C188.885 104.127 186.194 102.608 184.461 100.985C182.728 99.3599 183.965 95.3555 187.642 91.2869C192.824 85.5553 193.569 84.299 199.018 75.7023C203.209 69.0896 205.491 62.0148 206.024 58.4334C200.811 51.7036 197.931 49.6592 193.165 43.5198C189.801 39.1881 193.608 31.1944 196.968 30.5675" fill="black"/>
<path fill-rule="evenodd" clip-rule="evenodd" d="M212.199 8.65565C214.372 9.89687 215.322 12.9848 214.944 15.8349C214.562 18.6862 212.518 21.0566 209.124 21.3197C205.73 21.5815 200.672 22.4854 196.914 19.2917C193.158 16.0967 193.51 12.9282 195.133 10.0152C197.111 6.46525 198.605 4.42339 201.293 4.84133C203.979 5.25927 209.614 7.17776 212.199 8.65565" fill="black"/>
<path fill-rule="evenodd" clip-rule="evenodd" d="M209.672 45.1081C210.438 41.9924 214.852 46.2423 214.187 47.8675C213.098 50.5249 211.671 53.0338 210.824 54.4639C209.975 55.8927 209.397 54.6414 209.494 53.0464C209.592 51.4502 209.309 46.581 209.672 45.1081" fill="white"/>
<path fill-rule="evenodd" clip-rule="evenodd" d="M197.483 44.0349C196.889 45.7495 196.67 46.5513 195.996 48.4925C195.411 50.1819 194.767 50.2171 194.271 48.1954C193.961 46.9227 193.723 45.2132 194.005 43.8536C194.502 41.4643 195.871 39.0813 196.826 39.4162C197.779 39.7523 198.598 40.8085 197.483 44.0349" fill="white"/>
<path fill-rule="evenodd" clip-rule="evenodd" d="M212.61 47.0616C211.268 48.2222 210.326 47.2278 208.409 46.7355C204.896 45.8317 200.159 44.2506 197.949 44.2531C195.739 44.2556 195.161 43.5998 195.257 42.852C195.413 41.6334 195.128 39.7791 196.87 39.0754C198.309 38.4951 200.062 38.5807 202.182 39.1359C203.33 39.4355 208.125 40.8127 211.818 44.0907C213.369 45.4641 213.525 46.271 212.61 47.0616" fill="white"/>
<path fill-rule="evenodd" clip-rule="evenodd" d="M228.985 63.2717C229.301 64.5381 229.119 65.9291 228.887 67.8703C226.92 70.6788 224.406 68.1359 222.471 73.5955C220.863 78.1337 217.806 85.1656 213.194 87.9401C210.159 89.7654 207.035 90.3244 204.69 88.9409C200.674 86.5717 201.227 81.6207 204.133 76.1724C207.774 69.3431 212.527 66.123 215.648 64.6967C220.686 62.3955 225.707 60.6911 228.985 63.2717" fill="#59273B"/>
<path fill-rule="evenodd" clip-rule="evenodd" d="M200.79 8.2511C203.054 8.76975 207.268 10.2728 209.364 11.3202C209.836 11.5568 210.614 11.329 210.781 10.8607C210.972 10.3206 210.518 9.91278 210.047 9.58422C208.603 8.57211 203.623 6.85126 201.131 6.46857C200.646 6.39304 200.146 6.55039 199.98 7.01491C199.815 7.4832 200.005 8.07108 200.79 8.2511" fill="#707070"/>
<path fill-rule="evenodd" clip-rule="evenodd" d="M206.382 86.5506C209.014 83.2701 209.45 84.5591 208.926 87.3551C208.404 90.1497 206.804 93.9262 203.974 94.0043C201.144 94.0811 202.519 92.0266 203.187 90.8622C203.855 89.699 205.371 87.8108 206.382 86.5506" fill="white"/>
<path fill-rule="evenodd" clip-rule="evenodd" d="M192.402 81.214C193.03 79.1432 193.632 80.1138 193.759 81.4495C193.886 82.7864 194.211 84.4455 194.469 85.9423C194.726 87.4378 193.461 90.1594 192.035 89.1536C190.61 88.1478 191.654 83.6764 192.402 81.214" fill="white"/>
<path fill-rule="evenodd" clip-rule="evenodd" d="M203.81 89.9695C204.988 89.7027 203.714 93.2337 203.106 93.6252C202.171 94.2295 198.678 94.2647 196.022 92.6975C192.951 90.8872 191.782 89.286 191.778 88.2134C191.773 87.1434 192.629 85.5976 193.739 85.7713C194.85 85.945 194.821 87.3234 198.356 88.9146C200.605 89.928 202.4 90.288 203.81 89.9695" fill="white"/>
<path fill-rule="evenodd" clip-rule="evenodd" d="M241.437 24.7072C240.97 25.3958 241.148 26.3324 241.836 26.8007C242.524 27.2677 243.462 27.089 243.929 26.4004C244.398 25.7118 244.218 24.7752 243.529 24.3082C242.84 23.8399 241.904 24.0186 241.437 24.7072" fill="white"/>
<path fill-rule="evenodd" clip-rule="evenodd" d="M234.768 23.6586C238.421 22.0586 244.841 25.6199 259.296 28.9105C271.369 28.7682 268.73 19.7712 267.133 19.0436C265.535 18.316 243.975 14.7887 243.975 14.7887L234.328 14.1819C234.328 14.1819 233.847 24.0601 234.768 23.6586" fill="#B37F3E"/>
<path fill-rule="evenodd" clip-rule="evenodd" d="M577.271 217.041C577.271 217.041 585.799 221.662 586.009 227.718C582.847 226.148 580.224 225.484 580.224 225.484C580.224 225.484 585.924 232.054 583.912 234.555C581.528 231.213 577.138 230.786 577.138 230.786L564.063 214.329L577.271 217.041Z" fill="#B37F3E"/>
<path fill-rule="evenodd" clip-rule="evenodd" d="M405.274 33.513C408.268 31.7266 411.035 33.5935 411.771 34.5981C409.86 33.8138 409.176 36.6412 409.176 36.6412C409.176 36.6412 414.117 35.9816 416.251 40.0627C413.567 40.0262 411.551 40.4316 411.551 40.4316C411.551 40.4316 415.322 43.4491 417.058 45.438C413.11 45.7313 411.177 45.0793 411.177 45.0793L396.811 38.0939L405.274 33.513Z" fill="#B37F3E"/>
<path fill-rule="evenodd" clip-rule="evenodd" d="M219.241 114.379C217.827 116.731 219.29 118.915 220.078 119.497C219.466 117.991 221.694 117.459 221.694 117.459C221.694 117.459 221.161 121.348 224.369 123.038C224.348 120.925 224.672 119.339 224.672 119.339C224.672 119.339 227.037 122.316 228.598 123.689C228.84 120.581 228.331 119.059 228.331 119.059L222.87 107.73L219.241 114.379Z" fill="#B37F3E"/>
<path fill-rule="evenodd" clip-rule="evenodd" d="M233.922 259.581C228.022 259.897 225.076 265.576 223.937 270.515C222.99 274.618 225.431 273.336 226.792 271.409C228.151 269.481 229.615 266.02 232.224 265.625C232.72 263.042 232.53 261.7 233.922 259.581" fill="black"/>
<path fill-rule="evenodd" clip-rule="evenodd" d="M314.38 158.076C310.324 167.418 304.304 208.327 296.926 213.514C290.746 217.877 261.517 227.095 258.033 236.796C255.116 244.872 247.35 250.733 239.885 253.344C232.411 255.953 229.899 260.547 229.798 268.457C229.707 276.365 248.848 279.086 259.307 278.518C269.436 277.967 276.324 272.946 283.543 268.728C290.743 264.516 293.132 266.239 304.731 265.909C316.329 265.577 335.74 266.602 343.641 263.885C351.542 261.185 356.083 256.304 367.269 249.982C378.437 243.645 398.263 155.195 398.263 155.195C380.234 50.0369 318.428 148.737 314.38 158.076" fill="#B37F3E"/>
<path fill-rule="evenodd" clip-rule="evenodd" d="M253.053 270.772C250.379 269.129 247.548 271.238 245.928 273.971C244.66 276.107 241.972 281.497 244.266 283.612C246.041 285.25 246.973 281.483 247.856 280.126C249.067 278.264 251.985 277.159 253.793 275.515C255.093 274.331 254.883 271.896 253.053 270.772" fill="black"/>
<path fill-rule="evenodd" clip-rule="evenodd" d="M244.097 274.481C245.376 273.801 247.656 273.039 246.478 270.647C245.298 268.256 242.021 267.872 239.56 270.187C237.492 272.132 234.394 277.26 235.065 280.22C235.735 283.178 237.09 282.084 238.439 280.154C239.787 278.226 241.559 275.833 244.097 274.481" fill="black"/>
<path fill-rule="evenodd" clip-rule="evenodd" d="M240.585 269.149C240.833 268.857 240.871 268.42 240.638 268.115C238.882 265.806 236.874 266.006 233.908 268.06C232.081 269.327 229.195 274.361 229.353 276.988C229.513 279.614 231.086 279.606 232.4 277.574C233.714 275.544 235.051 273.01 237.887 272.694C238.736 271.422 239.607 270.307 240.585 269.149" fill="black"/>
<path fill-rule="evenodd" clip-rule="evenodd" d="M235.581 266.506C235.909 266.131 235.833 265.552 235.432 265.258C233.113 263.556 230.741 263.821 228.207 265.821C225.805 267.717 223.781 271.934 224.111 274.886C224.441 277.837 226.373 277.234 227.556 275.04C228.74 272.845 230.3 270.107 233.19 269.565C233.906 268.432 234.73 267.485 235.581 266.506" fill="black"/>
<path fill-rule="evenodd" clip-rule="evenodd" d="M515.857 465.811C513.787 463.453 510.461 464.633 508.107 466.766C506.265 468.434 502.107 472.791 503.674 475.489C504.887 477.577 506.889 474.253 508.133 473.217C509.84 471.794 512.953 471.599 515.166 470.561C516.759 469.814 517.275 467.424 515.857 465.811" fill="black"/>
<path fill-rule="evenodd" clip-rule="evenodd" d="M507.459 467.815C508.881 467.54 511.283 467.486 510.862 464.853C510.441 462.221 507.423 460.886 504.389 462.373C501.839 463.622 497.366 467.608 497.135 470.633C496.903 473.66 498.519 473.013 500.378 471.566C502.236 470.121 504.635 468.357 507.459 467.815" fill="black"/>
<path fill-rule="evenodd" clip-rule="evenodd" d="M505.842 462.087C506.164 461.881 506.329 461.474 506.197 461.114C505.2 458.389 503.221 457.989 499.783 459.076C497.664 459.748 493.422 463.706 492.799 466.263C492.176 468.821 493.681 469.278 495.536 467.724C497.39 466.171 499.415 464.144 502.219 464.679C503.404 463.714 504.564 462.904 505.842 462.087" fill="black"/>
<path fill-rule="evenodd" clip-rule="evenodd" d="M503.914 457.293C504.337 457.03 504.436 456.456 504.14 456.057C502.425 453.747 500.081 453.3 497.07 454.464C494.216 455.566 491.038 459 490.482 461.918C489.929 464.833 491.95 464.828 493.729 463.081C495.508 461.333 497.805 459.176 500.727 459.51C501.744 458.639 502.813 457.978 503.914 457.293" fill="black"/>
<path fill-rule="evenodd" clip-rule="evenodd" d="M439.844 425.624C438.14 422.989 434.677 423.67 432.036 425.437C429.971 426.818 425.222 430.522 426.379 433.42C427.274 435.663 429.74 432.667 431.121 431.822C433.016 430.665 436.126 430.926 438.466 430.221C440.15 429.715 441.011 427.428 439.844 425.624" fill="black"/>
<path fill-rule="evenodd" clip-rule="evenodd" d="M433.615 426.731C435.062 426.668 437.447 426.966 437.416 424.298C437.383 421.632 434.591 419.872 431.373 420.899C428.668 421.763 423.663 425.055 422.992 428.014C422.32 430.972 424.014 430.57 426.062 429.41C428.112 428.251 430.744 426.857 433.615 426.731" fill="black"/>
<path fill-rule="evenodd" clip-rule="evenodd" d="M434.523 421.62C434.871 421.462 435.094 421.085 435.016 420.71C434.428 417.868 432.529 417.184 428.969 417.759C426.774 418.113 422 421.409 421.01 423.849C420.019 426.286 421.442 426.958 423.504 425.692C425.566 424.426 427.865 422.716 430.561 423.655C431.874 422.874 433.139 422.243 434.523 421.62" fill="black"/>
<path fill-rule="evenodd" clip-rule="evenodd" d="M132.568 283.098C132.568 287.84 142.901 291.682 155.647 291.682C168.394 291.682 178.727 287.84 178.727 283.098C178.727 278.356 168.394 274.514 155.647 274.514C142.901 274.514 132.568 278.356 132.568 283.098" fill="#CCCCCC"/>
<path fill-rule="evenodd" clip-rule="evenodd" d="M132.568 281.905C132.568 286.647 142.901 290.49 155.647 290.49C168.394 290.49 178.727 286.647 178.727 281.905C178.727 277.163 168.394 273.321 155.647 273.321C142.901 273.321 132.568 277.163 132.568 281.905" fill="white"/>
<path fill-rule="evenodd" clip-rule="evenodd" d="M170.187 268.834C172.337 268.664 173.016 269.213 173.299 269.678C173.824 270.54 173.525 271.829 171.657 272.124C169.792 272.42 168.32 271.998 167.982 271.154C167.642 270.31 168.037 269.003 170.187 268.834M143.204 266.852C143.374 267.315 148.182 282.855 148.521 283.108C148.861 283.361 151.236 285.174 156.384 285.174C161.532 285.174 163.229 282.855 163.569 282.138C163.908 281.422 164.758 279.415 165.668 277.596C166.373 276.185 167.818 274.288 171.205 274.064C173.4 273.919 175.163 272.714 175.561 271.365C176.296 268.876 174.261 267.232 172.337 266.81C170.414 266.388 168.094 267.105 168.094 267.105C168.094 267.105 168.207 266.43 168.207 265.797C168.207 265.165 167.585 264.659 166.623 263.898C165.661 263.141 162.211 261.578 156.214 261.537C150.218 261.495 146.937 262.675 144.844 263.518C142.752 264.363 143.034 266.388 143.204 266.852" fill="#F7F7F7"/>
<path fill-rule="evenodd" clip-rule="evenodd" d="M166.114 267.052C166.114 267.052 163.002 269.33 155.423 269.203C147.842 269.076 145.07 266.757 145.07 266.757C145.07 266.757 146.993 263.129 155.083 263.129C164.812 263.129 166.114 267.052 166.114 267.052" fill="#C5773F"/>
<path fill-rule="evenodd" clip-rule="evenodd" d="M168.037 267.842C168.037 267.842 164.36 280.408 164.219 280.768C164.077 281.127 163.738 283.003 162.268 283.783C160.797 284.563 159.552 284.859 159.552 284.859L163.908 269.805C163.908 269.805 166.397 269.761 168.037 267.842" fill="#D9D9D9"/>
<path fill-rule="evenodd" clip-rule="evenodd" d="M173.351 271.174C173.351 271.174 174.462 270.163 173.683 269.231C172.902 268.301 171.948 268.218 171.019 268.256C169.682 268.311 168.479 268.472 168.101 269.781C168.965 269.029 170.23 268.801 171.749 268.938C173.089 269.058 173.728 270.143 173.351 271.174" fill="#D9D9D9"/>
<path fill-rule="evenodd" clip-rule="evenodd" d="M112.229 98.8023C111.18 98.8023 110.33 99.6533 110.33 100.701C110.33 101.749 111.18 102.599 112.229 102.599C113.277 102.599 114.126 101.749 114.126 100.701C114.126 99.6533 113.277 98.8023 112.229 98.8023" fill="#694C28"/>
<path fill-rule="evenodd" clip-rule="evenodd" d="M113.263 100.6C113.263 101.088 112.867 101.483 112.379 101.483C111.891 101.483 111.495 101.088 111.495 100.6C111.495 100.111 111.891 99.7159 112.379 99.7159C112.867 99.7159 113.263 100.111 113.263 100.6" fill="black"/>
<path fill-rule="evenodd" clip-rule="evenodd" d="M113.412 99.9505C113.412 100.209 113.203 100.418 112.945 100.418C112.688 100.418 112.479 100.209 112.479 99.9505C112.479 99.6925 112.688 99.4847 112.945 99.4847C113.203 99.4847 113.412 99.6925 113.412 99.9505" fill="white"/>
<path fill-rule="evenodd" clip-rule="evenodd" d="M128.55 98.6891C127.526 98.6891 126.695 99.5187 126.695 100.543C126.695 101.567 127.526 102.398 128.55 102.398C129.573 102.398 130.404 101.567 130.404 100.543C130.404 99.5187 129.573 98.6891 128.55 98.6891" fill="#694C28"/>
<path fill-rule="evenodd" clip-rule="evenodd" d="M129.527 100.415C129.527 100.892 129.141 101.279 128.663 101.279C128.186 101.279 127.8 100.892 127.8 100.415C127.8 99.9381 128.186 99.5504 128.663 99.5504C129.141 99.5504 129.527 99.9381 129.527 100.415" fill="black"/>
<path fill-rule="evenodd" clip-rule="evenodd" d="M129.673 99.7809C129.673 100.031 129.469 100.235 129.218 100.235C128.966 100.235 128.762 100.031 128.762 99.7809C128.762 99.5291 128.966 99.3252 129.218 99.3252C129.469 99.3252 129.673 99.5291 129.673 99.7809" fill="white"/>
<path fill-rule="evenodd" clip-rule="evenodd" d="M107.651 101.53C107.651 101.53 108.283 102.095 111.222 102.153C113.871 102.206 115.077 101.367 115.077 101.367C115.077 101.367 114.625 105.084 111.091 104.961C109.202 104.894 107.992 103.13 107.651 101.53" fill="#A67940"/>
<path fill-rule="evenodd" clip-rule="evenodd" d="M131.303 101.174C131.303 101.174 131.363 101.681 128.426 101.785C125.489 101.891 124.309 101.471 124.309 101.471C124.309 101.471 124.813 104.789 128.085 104.671C130.423 104.586 131.11 102.566 131.303 101.174" fill="#A67940"/>
<path fill-rule="evenodd" clip-rule="evenodd" d="M107.621 101.308C107.621 101.308 109.035 100.019 110.825 99.8411C112.615 99.6636 113.831 100.283 114.342 100.578C114.855 100.872 115.077 101.367 115.077 101.367C115.077 101.367 115.511 100.619 115.018 99.6561C114.526 98.6918 113.386 97.3738 112.068 97.2366C110.659 97.088 109.413 97.511 108.606 98.2978C107.8 99.0846 107.621 101.308 107.621 101.308" fill="#A67940"/>
<path fill-rule="evenodd" clip-rule="evenodd" d="M131.212 101.052C131.212 101.052 131.388 100.192 129.643 99.7529C128.3 99.413 126.729 99.7466 126.009 100.074C125.066 100.502 124.223 101.367 124.223 101.367C124.223 101.367 123.79 100.619 124.282 99.656C124.773 98.6917 125.915 97.3737 127.231 97.2364C128.641 97.0892 129.887 97.5109 130.693 98.2977C131.5 99.0857 131.212 101.052 131.212 101.052" fill="#A67940"/>
<path fill-rule="evenodd" clip-rule="evenodd" d="M114.82 96.7787C115.764 96.7787 116.079 96.1732 116.079 96.1732C116.079 96.1732 115.131 94.7608 112.499 94.5997C110.209 94.4587 108.253 94.9522 106.874 95.8182C105.458 96.7082 104.316 98.2189 104.316 98.2189C104.316 98.2189 106.015 96.6516 107.11 96.133C108.272 95.5841 110.139 95.4255 112.066 95.8182C113.994 96.2123 113.876 96.7787 114.82 96.7787" fill="#46352D"/>
<path fill-rule="evenodd" clip-rule="evenodd" d="M124.604 97.0075C124.604 97.0075 124.986 97.2593 125.539 97.3272C126.092 97.3952 126.512 96.3353 128.396 96.2434C130.536 96.1389 132.566 97.1082 132.566 97.1082C132.566 97.1082 131.919 96.3667 131.456 96.0608C130.991 95.7537 129.564 95.1809 128.481 95.2048C127.397 95.2313 126.195 95.6014 125.518 96.0394C124.839 96.4775 124.604 97.0075 124.604 97.0075" fill="#46352D"/>
<path fill-rule="evenodd" clip-rule="evenodd" d="M121.718 100.187C121.718 100.187 121.036 103.203 121.193 106.638C121.232 107.478 121.115 110.703 121.954 110.809C122.793 110.913 123.003 110.519 122.951 109.103C122.925 108.442 122.338 106.386 122.19 104.435C122.022 102.21 121.718 100.187 121.718 100.187" fill="#B38345"/>
<path fill-rule="evenodd" clip-rule="evenodd" d="M115.543 111.852C115.543 111.852 115.438 112.639 115.753 113.031C116.068 113.425 117.007 113.321 117.321 113.242C117.636 113.164 118.51 112.751 119.05 112.892C119.237 112.941 119.611 113.332 119.81 113.446C120.176 113.654 120.481 113.692 120.481 113.692C120.481 113.692 119.791 113.818 118.847 113.687C117.903 113.556 116.854 113.609 116.46 113.583C116.068 113.556 115.807 113.463 115.623 113.148C115.439 112.834 115.332 112.612 115.543 111.852" fill="#825B32"/>
<path fill-rule="evenodd" clip-rule="evenodd" d="M125.063 111.281C125.063 111.281 125.404 112.567 124.912 112.998C124.606 113.269 124.249 113.431 123.777 113.405C123.305 113.38 123.133 112.912 122.955 113.06C122.495 113.444 122.038 113.577 121.155 113.72C121.271 113.859 122.388 113.615 122.86 113.668C123.332 113.72 124.04 113.852 124.46 113.668C124.879 113.484 125.194 112.986 125.246 112.54C125.298 112.095 125.063 111.281 125.063 111.281" fill="#825B32"/>
<path fill-rule="evenodd" clip-rule="evenodd" d="M125.734 101.727C125.734 101.727 127.679 102.112 128.804 102.014C129.93 101.914 130.233 101.865 130.482 101.786C131.319 101.519 131.124 101.159 131.124 101.159C131.124 101.159 130.983 101.353 130.567 101.465C129.797 101.673 129.108 101.747 128.321 101.776C127.534 101.805 125.734 101.727 125.734 101.727" fill="#46352D"/>
<path fill-rule="evenodd" clip-rule="evenodd" d="M113.882 101.859C113.882 101.859 111.842 102.448 110.204 102.378C108.564 102.309 107.754 101.876 107.754 101.876L107.932 101.687C107.932 101.687 108.771 102.083 110.381 102.122C111.99 102.162 113.882 101.859 113.882 101.859" fill="#46352D"/>
<path fill-rule="evenodd" clip-rule="evenodd" d="M125.245 100.5C125.245 100.5 126.519 99.4464 128.934 99.5597C131.125 99.6629 131.401 100.32 131.401 100.32L131.113 100.847C131.113 100.847 130.286 99.5307 128.241 99.6742C126.536 99.7926 125.245 100.5 125.245 100.5" fill="#46352D"/>
<path fill-rule="evenodd" clip-rule="evenodd" d="M113.967 100.399C113.967 100.399 112.696 99.4815 110.297 99.7672C108.117 100.027 107.68 100.7 107.68 100.7L107.913 101.18C107.913 101.18 109.488 99.9548 111.24 99.8805C112.949 99.8088 113.967 100.399 113.967 100.399" fill="#46352D"/>
<path fill-rule="evenodd" clip-rule="evenodd" d="M109.727 117.378C109.727 117.378 111.261 119.601 113.701 121.193C116.139 122.787 117.909 122.61 119.325 122.57C120.742 122.531 122.374 122.669 123.811 121.43C125.047 120.362 126.537 117.995 126.929 117.356C126.992 117.253 127.026 117.195 127.026 117.195L121.282 117.228L114.97 117.355L109.727 117.378Z" fill="#30132B"/>
<path fill-rule="evenodd" clip-rule="evenodd" d="M113.017 117.692L111.89 117.987L117.204 120.102C117.204 120.102 121.222 120.23 121.252 120.23C121.281 120.23 123.819 118.897 123.819 118.897L125.6 117.574L124.932 117.398L117.42 117.505L113.017 117.692Z" fill="#754F4C"/>
<path fill-rule="evenodd" clip-rule="evenodd" d="M118.539 120.879C118.539 120.879 118.892 121.117 119.306 121.075C119.721 121.034 120.084 120.805 120.084 120.805C120.084 120.805 120.659 121.01 121.091 120.99C121.524 120.97 121.802 120.679 121.802 120.679C121.802 120.679 122.372 120.649 122.55 120.531C122.727 120.413 122.898 120.139 122.898 120.139C122.898 120.139 123.271 120.076 123.349 119.998C123.428 119.918 123.838 119.317 123.838 119.317C123.838 119.317 124.345 119.081 124.482 118.865C124.621 118.65 125.022 118.103 125.022 118.103L125.046 117.97C125.046 117.97 124.724 118.086 124.584 118.17C124.42 118.266 124.22 118.296 124.122 118.375C124.023 118.453 123.845 118.516 123.651 118.613C123.514 118.682 123.15 118.755 123.032 118.874C122.915 118.992 122.689 119.089 122.689 119.089C122.689 119.089 122.337 119.13 122.154 119.239C121.963 119.352 121.686 119.385 121.686 119.385C121.686 119.385 121.064 119.307 120.826 119.312C120.565 119.317 120.099 119.449 120.099 119.449C120.099 119.449 119.596 119.322 119.321 119.302C119.045 119.281 118.826 119.406 118.637 119.424C118.496 119.436 118.054 119.284 117.838 119.265C117.621 119.245 117.275 119.286 117.275 119.286C117.275 119.286 116.726 119.112 116.53 119.052C116.423 119.02 115.875 119.031 115.582 118.954C115.334 118.889 114.618 118.743 114.501 118.724C114.245 118.685 112.962 118.386 112.962 118.386C112.962 118.386 113.032 118.696 113.13 118.774C113.228 118.853 114.251 119.829 114.428 119.888C114.605 119.947 115.256 120.183 115.433 120.242C115.602 120.299 116.193 120.752 116.389 120.792C116.585 120.831 117.166 120.742 117.166 120.742C117.166 120.742 117.203 120.871 117.538 120.97C117.872 121.068 118.539 120.879 118.539 120.879" fill="#F2F2F2"/>
<path fill-rule="evenodd" clip-rule="evenodd" d="M109.727 117.378C109.727 117.378 111.64 118.322 115.195 118.44C118.751 118.557 121.587 118.598 122.897 118.41C123.5 118.324 127.026 117.195 127.026 117.195C127.026 117.195 122.381 117.014 121.73 117.004C121.567 117.001 121.162 117.199 120.437 117.195C119.989 117.194 119.526 117.005 118.984 117.004C116.893 116.996 114.397 117.21 114.34 117.217C114.243 117.228 109.727 117.378 109.727 117.378" fill="#94684D"/>
<path fill-rule="evenodd" clip-rule="evenodd" d="M124.869 120.794C124.398 121.473 123.408 123.499 122.159 123.692C120.909 123.883 118.716 123.985 117.222 123.751C115.726 123.516 113.111 121.242 112.13 120.336C111.146 119.428 109.95 117.773 109.95 117.773C109.95 117.773 114.735 120.977 115.515 121.179C116.294 121.382 117.437 121.659 119.498 121.553C121.558 121.446 122.349 121.393 123.416 120.698C124.485 120.005 126.813 117.537 126.813 117.537C126.813 117.537 125.498 119.886 124.869 120.794" fill="#94684D"/>
<path fill-rule="evenodd" clip-rule="evenodd" d="M90.6059 101.882C90.6059 101.882 90.4989 100.072 91.0667 100.209C91.6344 100.346 93.2923 102.481 93.8135 103.817C94.3359 105.152 94.6431 107.608 94.5512 107.915C94.4593 108.221 94.3825 108.682 94.3359 108.744C94.2893 108.805 93.8601 109.082 93.6146 108.943C93.3691 108.805 93.3225 108.528 93.5844 108.253C93.845 107.977 94.4127 107.194 94.1056 105.874C93.7984 104.553 92.678 102.112 92.1254 101.436C91.5727 100.761 91.1888 100.593 91.0352 100.685C90.8816 100.776 90.6059 101.882 90.6059 101.882" fill="#825F32"/>
<path fill-rule="evenodd" clip-rule="evenodd" d="M112.796 113.247C112.796 113.247 111.026 115.213 110.121 115.922C109.215 116.631 107.406 117.22 107.406 117.22C107.406 117.22 108.98 116.159 110.121 115.332C111.261 114.506 112.796 113.247 112.796 113.247" fill="#996D3B"/>
<path fill-rule="evenodd" clip-rule="evenodd" d="M126.564 113.601C126.564 113.601 127.192 115.09 127.878 116.011C128.566 116.932 129.672 117.378 129.672 117.378C129.672 117.378 128.917 116.538 128.033 115.442C127.151 114.345 126.564 113.601 126.564 113.601" fill="#996D3B"/>
<path fill-rule="evenodd" clip-rule="evenodd" d="M112.953 105.363C112.953 106.771 110.525 107.252 108.547 107.252C106.569 107.252 104.378 106.85 104.378 105.441C104.378 104.035 106.373 103.397 108.351 103.397C110.328 103.397 112.953 103.957 112.953 105.363" fill="#AB7D42"/>
<path fill-rule="evenodd" clip-rule="evenodd" d="M133.724 104.97C133.724 106.53 132.16 107.488 130.183 107.488C128.206 107.488 126.093 106.372 126.093 104.813C126.093 103.253 128.757 103.161 130.734 103.161C132.712 103.161 133.724 103.41 133.724 104.97" fill="#AB7D42"/>
</svg>
