<svg width="164" height="49" viewBox="0 0 164 49" fill="none" xmlns="http://www.w3.org/2000/svg">
<path fill-rule="evenodd" clip-rule="evenodd" d="M20.8443 31.329C20.1485 30.9776 20.1779 30.1082 20.1597 29.4418C20.1667 27.1318 20.1611 24.8246 20.1667 22.516C21.2895 22.5132 22.4137 22.5132 23.5393 22.5132C23.5463 21.3316 23.5393 20.15 23.5421 18.967C22.4165 18.967 21.2895 18.967 20.1639 18.9642C20.1667 17.3528 20.1597 15.7414 20.1667 14.1286C18.3649 14.1244 16.5617 14.1244 14.7571 14.1286C14.7627 15.7386 14.7571 17.3514 14.7627 18.9614C13.8415 18.9698 12.9203 18.967 12.0005 18.9698C12.0005 20.15 12.0005 21.3316 12.0019 22.5132C12.9245 22.5132 13.8457 22.5076 14.7697 22.5244C14.7571 25.3594 14.7529 28.193 14.7669 31.0266C14.8299 32.5288 15.1995 34.3306 16.6807 35.067C18.8269 36.0456 21.2629 35.6564 23.5393 35.5584C23.5421 34.2074 23.5421 32.855 23.5393 31.5068C22.6475 31.511 21.6815 31.735 20.8443 31.329Z" fill="#C1C1C1"/>
<path fill-rule="evenodd" clip-rule="evenodd" d="M69.1306 18.5082C67.1174 18.497 65.0258 19.4532 63.9968 21.2396C64.0346 18.868 64.0024 16.4978 64.015 14.129C62.2118 14.1262 60.41 14.1248 58.6082 14.129C58.6306 18.9366 58.5886 23.7414 58.5662 28.5476C58.5662 28.7618 58.4864 28.9424 58.3268 29.0866C56.6566 28.8682 54.9598 29.0432 53.2784 28.99C53.0894 29.8328 52.7898 30.7372 52.0464 31.2594C50.9096 32.021 49.203 32.0042 48.2076 31.0046C47.2486 30.0834 46.9896 28.6792 46.9784 27.4024C47.012 26.2054 47.1184 24.916 47.8268 23.908C48.8628 22.4548 51.268 22.2504 52.4902 23.572C52.8822 23.9682 53.0082 24.5212 53.137 25.0448C54.9024 25.0448 56.6678 25.0532 58.4346 25.0406C58.2932 23.705 57.8536 22.3792 56.9968 21.3278C55.7438 19.729 53.76 18.875 51.7902 18.5936C50.0878 18.4088 48.3112 18.4676 46.7012 19.1116C45.1724 19.6996 43.8438 20.7888 42.9688 22.1762C41.6416 24.2426 41.3112 26.8284 41.6766 29.2238C42.0728 31.7004 43.6982 33.9362 45.9522 35.0436C49.462 36.7376 54.082 36.2042 56.8358 33.3398C56.9632 33.0962 57.0794 32.8512 57.2656 32.651C58.044 31.8376 58.0524 30.6294 58.5788 29.6802C58.6418 31.6248 58.5956 33.5694 58.6082 35.5154C60.41 35.5168 62.2132 35.5168 64.015 35.5168C64.015 32.6622 64.0122 29.809 64.015 26.9572C64.022 25.9296 64.1466 24.8236 64.8102 23.9934C65.6782 22.8608 67.4366 22.7208 68.614 23.418C69.5464 24.0382 69.5968 25.2744 69.6346 26.281C69.6528 29.3582 69.636 32.4368 69.6416 35.5126C71.442 35.5168 73.2452 35.5196 75.0484 35.5154C75.0484 31.7634 75.0456 28.0128 75.0498 24.258C75.0106 22.7054 74.627 21.0282 73.4552 19.9236C72.3198 18.8232 70.6608 18.497 69.1306 18.5082Z" fill="#C1C1C1"/>
<path fill-rule="evenodd" clip-rule="evenodd" d="M28.7317 25.4883C28.9697 24.2479 29.6571 22.9977 30.8709 22.4867C32.2037 21.9029 33.9299 22.2641 34.7839 23.4821C35.2277 24.0603 35.4139 24.7785 35.5231 25.4883C33.2593 25.5051 30.9969 25.5023 28.7317 25.4883ZM37.5293 20.0409C33.9621 17.5741 28.5987 18.0851 25.6083 21.2533C24.0837 22.8087 23.2605 25.0011 23.3067 27.1725C23.2577 29.2193 23.8191 31.3249 25.1141 32.9363C26.4483 34.6163 28.5147 35.5823 30.6133 35.8665C32.9919 36.1633 35.5455 35.9295 37.6273 34.6597C39.1617 33.7357 40.2663 32.1873 40.6989 30.4583C39.0049 30.4485 37.3123 30.4443 35.6211 30.4583C34.5655 32.5891 31.3497 32.8579 29.7523 31.2171C29.0663 30.5031 28.8241 29.4979 28.7317 28.5417C32.8183 28.5263 36.9077 28.5487 40.9943 28.5305C41.1091 25.4015 40.1879 21.9463 37.5293 20.0409Z" fill="#C1C1C1"/>
<mask id="mask0" mask-type="alpha" maskUnits="userSpaceOnUse" x="104" y="14" width="18" height="23">
<path fill-rule="evenodd" clip-rule="evenodd" d="M104.198 14.0117H121.434V36.1181H104.198V14.0117Z" fill="white"/>
</mask>
<g mask="url(#mask0)">
<path fill-rule="evenodd" clip-rule="evenodd" d="M115.29 30.8396C114.321 32.129 112.207 32.2844 111.036 31.1882C110.187 30.4434 109.851 29.301 109.708 28.2188C109.538 26.8496 109.656 25.3684 110.411 24.177C110.78 23.5708 111.382 23.12 112.07 22.9408C113.17 22.6076 114.487 22.9296 115.207 23.855C116.019 24.8924 116.209 26.2686 116.201 27.551C116.156 28.6892 115.99 29.9002 115.29 30.8396ZM116.027 20.9122C113.846 17.8588 108.851 17.9064 106.401 20.5986C104.811 22.3388 104.15 24.7692 104.2 27.0904C104.181 29.5782 104.827 32.2102 106.555 34.0792C107.924 35.5674 110.005 36.2422 111.997 36.0994C113.699 36.0784 115.29 35.132 116.257 33.7558C116.251 34.383 116.254 35.0116 116.257 35.643H121.431C121.431 28.4316 121.437 21.223 121.431 14.013C119.632 14.013 117.831 14.006 116.032 14.02C116.027 16.316 116.032 18.6134 116.027 20.9122Z" fill="#C1C1C1"/>
</g>
<path fill-rule="evenodd" clip-rule="evenodd" d="M87.5466 18.8316C86.3426 18.6356 85.0743 18.6734 83.9304 19.1382C82.6845 19.6128 81.7716 20.6726 81.2186 21.8598C81.2536 20.9358 81.2438 20.016 81.2396 19.0948C79.477 19.0906 77.7144 19.0934 75.9504 19.0934C75.9504 24.6094 75.949 30.1254 75.9532 35.6428H81.3544C81.3642 32.9352 81.3362 30.2304 81.3656 27.5228C81.3572 26.19 81.9872 24.839 83.1507 24.1432C84.4708 23.3186 86.1172 23.474 87.5536 23.8688C87.5368 22.1888 87.5508 20.5088 87.5466 18.8316Z" fill="#C1C1C1"/>
<mask id="mask1" mask-type="alpha" maskUnits="userSpaceOnUse" x="87" y="18" width="18" height="19">
<path fill-rule="evenodd" clip-rule="evenodd" d="M87.2483 18.6338H104.131V36.1289H87.2483V18.6338Z" fill="white"/>
</mask>
<g mask="url(#mask1)">
<path fill-rule="evenodd" clip-rule="evenodd" d="M97.4519 31.72C96.6175 32.7308 95.0859 32.9058 93.8945 32.539C93.0321 32.3094 92.5309 31.3434 92.7297 30.4964C92.8305 29.8412 93.3737 29.3554 93.9617 29.1146C95.3365 28.5364 96.8849 28.5588 98.2555 27.961C98.2149 29.2364 98.2527 30.6476 97.4519 31.72ZM103.466 23.4698C103.398 22.305 102.937 21.1332 102.072 20.331C100.683 19.0514 98.7077 18.7504 96.8933 18.6538C94.5609 18.5698 92.0409 18.7 90.0417 20.0384C88.6487 20.9428 87.9081 22.5878 87.8563 24.2146C89.5615 24.2132 91.2667 24.2244 92.9733 24.2076C93.1959 23.3844 93.7181 22.5682 94.5847 22.3302C95.6865 22.0334 97.0249 22.1216 97.8929 22.9336C98.5999 23.6098 98.3269 25.0238 97.3203 25.2296C94.7513 25.8974 91.9387 25.6986 89.5405 26.9628C88.4065 27.527 87.5567 28.6218 87.3509 29.8776C87.1297 31.2958 87.2179 32.8792 88.0985 34.0748C88.9273 35.2466 90.3371 35.8766 91.7301 36.0516C94.0513 36.347 96.5923 35.815 98.3199 34.1574C98.4431 34.6306 98.3395 35.2634 98.7021 35.619C100.51 35.6778 102.323 35.626 104.131 35.6372C103.78 34.7804 103.556 33.8676 103.538 32.938C103.401 29.7824 103.527 26.624 103.466 23.4698Z" fill="#C1C1C1"/>
</g>
<mask id="mask2" mask-type="alpha" maskUnits="userSpaceOnUse" x="121" y="18" width="18" height="19">
<path fill-rule="evenodd" clip-rule="evenodd" d="M121.697 18.6344H138.583V36.1289H121.697V18.6344Z" fill="white"/>
</mask>
<g mask="url(#mask2)">
<path fill-rule="evenodd" clip-rule="evenodd" d="M131.908 31.7131C131.037 32.7617 129.423 32.9325 128.201 32.4831C126.957 32.0519 126.781 30.1675 127.842 29.4437C129.29 28.4819 131.148 28.6611 132.704 27.9639C132.667 29.2337 132.7 30.6407 131.908 31.7131ZM137.915 23.4643C137.855 22.4031 137.463 21.3419 136.741 20.5509C135.422 19.1439 133.399 18.7813 131.559 18.6651C129.161 18.5601 126.561 18.6581 124.5 20.0315C123.1 20.9345 122.36 22.5823 122.305 24.2133C124.012 24.2147 125.718 24.2189 127.425 24.2105C127.643 23.3845 128.168 22.5683 129.035 22.3303C130.135 22.0349 131.474 22.1231 132.343 22.9337C133.049 23.6155 132.774 25.0323 131.761 25.2325C129.197 25.8933 126.396 25.7029 124.002 26.9559C122.864 27.5201 122.011 28.6149 121.8 29.8721C121.579 31.2917 121.667 32.8751 122.547 34.0735C123.376 35.2453 124.785 35.8767 126.178 36.0517C128.502 36.3471 131.047 35.8179 132.774 34.1505C132.843 34.6335 132.921 35.1151 133 35.5981C134.858 35.6961 136.721 35.6149 138.583 35.6429C138.229 34.7763 138.003 33.8579 137.985 32.9185C137.851 29.7685 137.977 26.6143 137.915 23.4643Z" fill="#C1C1C1"/>
</g>
<path fill-rule="evenodd" clip-rule="evenodd" d="M150.821 23.8635C150.809 22.1835 150.827 20.5049 150.813 18.8249C149.61 18.6429 148.348 18.6737 147.211 19.1357C145.961 19.6075 145.039 20.6715 144.495 21.8615C144.52 20.9389 144.513 20.0149 144.513 19.0923H139.222V35.6431H144.625C144.643 32.8543 144.587 30.0669 144.653 27.2823C144.673 25.6919 145.77 24.1743 147.312 23.7445C148.46 23.3721 149.683 23.5779 150.821 23.8635Z" fill="#C1C1C1"/>
<mask id="mask3" mask-type="alpha" maskUnits="userSpaceOnUse" x="146" y="29" width="6" height="7">
<path fill-rule="evenodd" clip-rule="evenodd" d="M146.031 29.6748H152V35.7005H146.031V29.6748Z" fill="white"/>
</mask>
<g mask="url(#mask3)">
<path fill-rule="evenodd" clip-rule="evenodd" d="M151.996 29.6748C150.007 29.6776 148.019 29.6748 146.031 29.6776C146.039 31.6838 146.025 33.69 146.035 35.6962C148.023 35.7004 150.011 35.7032 152 35.6962C151.996 33.69 152.004 31.6824 151.996 29.6748Z" fill="#C1C1C1"/>
</g>
</svg>
