<svg width="164" height="49" viewBox="0 0 164 49" fill="none" xmlns="http://www.w3.org/2000/svg">
<path fill-rule="evenodd" clip-rule="evenodd" d="M144.889 19.4969V13.7827H132.664V34.5544H144.889V28.8304H138.958V26.411H142.725V21.6901H138.958V19.4969H144.889ZM73.9977 26.4306H73.9387L73.4666 24.7193L71.9914 19.4969H74.5878L76.2991 13.7729H63.1201L70.6735 34.5446H77.44L78.2563 32.3218C78.2563 32.3218 81.8756 22.5064 83.8524 17.1562V34.5446H96.0774V28.8206H90.1567V26.4011H93.9137V21.6705H90.1567V19.4871H96.0774V13.7631H77.8137L73.9977 26.4306ZM104.123 23.1064V19.2412C105.037 19.2412 106.158 19.5166 106.493 20.5198C106.522 20.6083 106.542 20.7066 106.571 20.805C106.571 20.8148 106.571 20.8345 106.581 20.8443C106.591 20.9427 106.611 21.0607 106.611 21.1787C106.611 22.7228 105.204 23.1064 104.123 23.1064ZM112.905 20.805C112.905 16.3202 109.591 13.7729 104.89 13.7729H97.5429V34.5446H104.142V29.2238L107.919 34.5446H115.364L110.014 26.5782C111.941 25.5258 112.905 23.608 112.905 20.805ZM48.7019 34.5544H60.9269V28.8304H55.0062V26.411H58.773V21.6705H55.0062V19.4871H60.9269V13.7729H48.7019V34.5544ZM40.647 21.6705H37.5588V19.4772H39.1127V13.7729H30.9693V34.5544H37.5588V26.6962H40.647V34.5544H47.2562V13.7729H40.647V21.6705ZM19 13.7729V19.4871H22.9045V34.5544H29.5039V13.7729H19Z" fill="#C1C1C1"/>
<path fill-rule="evenodd" clip-rule="evenodd" d="M131.395 30.1975V21.7295H122.072V26.4502H125.543V28.1321C125.278 28.3681 124.707 28.496 124.117 28.496C121.698 28.496 119.908 26.588 119.908 24.2571C119.908 21.9262 121.649 19.8608 124.068 19.8608C125.533 19.8608 129.005 19.8707 129.005 19.8707V13.7139H127.422C124.471 13.7139 121.531 13.4779 118.826 14.8745C116.692 15.976 115 17.8446 114.105 20.0674C113.584 21.3754 113.318 22.7917 113.318 24.1981C113.318 30.0892 117.941 35.0559 123.93 35.0559C126.901 35.0559 129.802 33.9447 131.385 32.5579C131.395 31.1219 131.395 30.9056 131.395 30.1975Z" fill="#C1C1C1"/>
</svg>
