<svg width="164" height="49" viewBox="0 0 164 49" fill="none" xmlns="http://www.w3.org/2000/svg">
<mask id="mask0" mask-type="alpha" maskUnits="userSpaceOnUse" x="59" y="10" width="46" height="27">
<path fill-rule="evenodd" clip-rule="evenodd" d="M59 10.6116H104.99V36.6156H59V10.6116Z" fill="white"/>
</mask>
<g mask="url(#mask0)">
<path fill-rule="evenodd" clip-rule="evenodd" d="M73.5248 16.0028L75.5718 16.0018L71.5918 30.6718L67.8108 15.9408H69.9198V10.6378L58.9998 10.6248V15.8998H60.5788L67.2218 36.6158H75.3818L81.8078 15.8648H83.4188L83.4238 10.6108H73.5248V16.0028ZM96.8828 30.7868C95.8208 31.7258 92.6398 31.5058 92.6398 31.5058V26.1878C92.6398 26.1878 94.2898 26.1848 94.8908 26.1918C95.4928 26.2018 96.1368 26.0648 97.1198 26.9188C98.1028 27.7708 98.0528 29.7528 96.8828 30.7868ZM92.6408 15.7288C92.6408 15.7288 94.0988 15.6968 94.6308 15.7048C95.1638 15.7128 95.7328 15.5778 96.6018 16.4308C97.4698 17.2838 97.4258 19.2928 96.3928 20.3268C95.4528 21.2668 92.6408 21.0468 92.6408 21.0468V15.7288ZM104.135 26.3278C103.148 24.4558 100.178 23.4738 100.178 23.4738C100.178 23.4738 103.431 21.8278 104.04 19.7238C104.648 17.6188 104.287 14.5938 102.473 12.8638C100.659 11.1338 98.6248 10.6278 96.4018 10.6278H83.6238L83.6168 15.8298H85.6688V31.4028L83.4558 31.4158V36.5558H98.0318C98.0318 36.5558 102.876 36.4318 104.292 32.8208C105.707 29.2098 104.615 27.2388 104.135 26.3278Z" fill="#C1C1C1"/>
</g>
</svg>
