<svg width="164" height="49" viewBox="0 0 164 49" fill="none" xmlns="http://www.w3.org/2000/svg">
<mask id="mask0" mask-type="alpha" maskUnits="userSpaceOnUse" x="34" y="13" width="96" height="24">
<path fill-rule="evenodd" clip-rule="evenodd" d="M34.0001 13.5H129.112V36.5573H34.0001V13.5Z" fill="white"/>
</mask>
<g mask="url(#mask0)">
<path fill-rule="evenodd" clip-rule="evenodd" d="M54.1754 13.5H34.0001V22.1466H39.7644V36.5573H48.411V22.1466H54.1754V13.5ZM120.466 13.5V20.9936C120.466 22.0023 120.034 22.8671 119.457 23.5876L116.143 26.9022C115.422 27.6225 114.557 27.911 113.548 27.911H109.946C111.099 26.6138 111.819 24.8846 111.819 23.1553V13.5H103.173V20.9936C103.173 22.0023 102.741 22.8671 102.164 23.5876L98.8493 26.9022C98.1287 27.6225 97.2641 27.911 96.2554 27.911H94.5259V13.5H85.8796V36.5573H98.4169C100.29 36.5573 102.164 35.8371 103.461 34.3958L107.496 30.3607V36.5573H115.71C117.584 36.5573 119.457 35.8371 120.754 34.3958L126.951 28.1992C128.392 26.9022 129.112 25.0287 129.112 23.1553V13.5H120.466ZM82.9973 36.5573H74.3506V29.0638C74.3506 28.0548 73.9183 27.1904 73.3419 26.4697L70.0273 23.1553C69.3068 22.5789 68.4422 22.1466 67.4335 22.1466H65.704V36.5573H57.0577V13.5H69.595C71.4686 13.5 73.3419 14.2205 74.6389 15.6615L80.8357 21.8584C82.2768 23.1553 82.9973 25.0287 82.9973 26.9022V36.5573Z" fill="#C1C1C1"/>
</g>
</svg>
